<svg width="940" height="661" viewBox="0 0 940 661" fill="none" xmlns="http://www.w3.org/2000/svg">
<g clip-path="url(#clip0_514_370)">
<path d="M882.875 388.88C872.58 378.59 862.291 368.293 851.986 358.013C848.666 354.701 845.287 351.447 841.967 348.135C841.023 347.193 840.198 345.242 838.77 346.238C837.121 347.389 839.224 348.31 839.734 349.349C844.092 358.232 851.392 364.439 858.917 370.435C859.679 371.042 860.684 371.345 861.577 371.788C861.729 371.946 861.882 372.103 862.035 372.261C862.188 372.418 862.341 372.576 862.495 372.734C862.495 372.734 862.527 372.702 862.527 372.702C862.37 372.548 862.212 372.395 862.054 372.242C861.896 372.089 861.738 371.936 861.581 371.784C855.683 365.735 849.776 359.696 843.911 353.617C843.503 353.194 843.412 352.468 843.173 351.883C843.722 352.219 844.362 352.464 844.805 352.906C850.894 358.977 856.985 365.047 862.993 371.197C863.941 372.168 865.226 373.17 864.86 374.892C863.709 374.387 862.473 374.014 861.421 373.35C858.496 371.504 855.647 369.537 852.768 367.618C852.613 367.464 852.458 367.31 852.304 367.155C852.149 367.001 851.995 366.846 851.84 366.692C851.685 366.538 851.531 366.383 843.832 357.827C836.391 350.004 836.404 350.483 836.561 350.909C838.864 357.191 845.045 360.06 848.992 364.905C849.524 365.559 850.569 365.798 851.376 366.229C850.847 365.475 850.367 364.682 849.782 363.975C845.582 358.898 838.859 355.918 837.123 348.786C837.078 348.6 836.874 348.453 836.744 348.287C836.581 348.695 836.417 349.103 843.832 357.827C851.531 366.383 851.685 366.538 851.84 366.692C851.995 366.846 852.149 367.001 852.304 367.155C852.458 367.31 852.613 367.464 852.768 367.618C856.051 370.402 859.299 373.231 862.647 375.936C863.388 376.535 864.459 376.887 865.42 377C866.148 377.086 866.942 376.613 867.707 376.389C867.562 376.806 867.534 377.348 867.249 377.617C866.166 378.636 864.862 378.359 863.8 377.715C853.356 371.38 844.741 362.917 836.56 353.995C835.671 353.025 835.027 351.121 835.319 349.902C836.645 344.374 832.76 345.642 830.168 345.992C787.873 351.704 745.37 355.654 702.857 358.918C665.375 361.796 628.394 368.05 591.256 373.059C552.003 378.353 512.384 380.398 473.332 387.107C450.949 390.952 428.683 395.474 406.292 399.265C376.854 404.248 348.122 412.336 318.957 418.489C307.385 420.93 295.883 423.556 284.488 426.701C281.511 427.523 281.694 428.488 283.733 430.326C293.962 439.546 302.537 450.028 308.364 462.623C309.395 464.852 311.458 463.413 312.879 463.036C328.399 458.923 343.816 454.409 359.395 450.539C394.632 441.787 430.273 435.113 466.153 429.469C484.82 426.533 503.256 422.07 521.98 419.234C565.341 412.667 608.637 405.65 652.054 399.477C668.14 397.19 684.496 396.835 700.717 395.449C718.494 393.931 736.039 390.473 753.73 388.497C779.167 385.655 804.646 382.841 830.275 381.875C842.048 381.431 853.939 382.264 865.556 379.394C866.213 379.232 866.981 379.521 867.698 379.599C867.094 379.796 866.5 380.04 865.884 380.183C846.89 384.598 827.426 382.128 808.237 384.125C778.224 387.25 748.201 390.114 718.338 394.598C696.127 397.933 673.448 397.528 651.295 400.773C592.015 409.455 532.641 417.653 473.779 429.035C448.849 433.856 423.7 437.567 398.807 442.557C372.609 447.808 346.742 454.536 321.212 462.491C316.377 463.998 311.152 463.93 306.41 466.048C305.731 466.351 303.8 465.189 303.248 464.241C296.766 453.101 288.121 443.497 281.043 432.789C280.748 432.342 280.651 431.764 280.461 431.247C280.943 431.552 281.564 431.751 281.886 432.177C285.328 436.721 288.723 441.302 292.131 445.872C292.285 446.027 292.438 446.182 292.591 446.337C292.747 446.645 292.903 446.954 293.059 447.262C293.211 447.418 293.364 447.575 293.517 447.731C293.517 447.731 293.533 447.715 293.533 447.715C293.377 447.563 293.22 447.41 293.063 447.258C292.909 446.947 292.754 446.637 292.6 446.327C292.445 446.174 292.29 446.021 292.135 445.869C291.774 445.028 291.432 444.178 291.046 443.348C290.517 442.209 289.954 441.085 289.406 439.954C291.116 440.152 291.242 441.794 291.991 442.839C295.271 447.413 298.489 452.03 301.748 456.617C303.085 458.498 305.294 459.97 304.134 462.883C303.779 463.775 304.653 464.493 305.594 464.585C306.812 464.706 307.038 463.751 306.874 462.882C306.648 461.685 306.402 460.4 305.787 459.381C299.341 448.703 291.861 438.839 282.438 430.568C281.467 429.716 280.366 428.111 278.753 429.891C278.217 430.484 277.556 430.964 276.953 431.496C276.944 431.149 276.821 430.752 276.947 430.464C277.357 429.528 275.608 428.263 278.003 427.514C291.888 423.172 306.085 420.205 320.276 417.109C345.934 411.512 371.349 404.692 397.14 399.841C433.864 392.934 470.552 385.618 507.707 381.232C532.307 378.328 557.125 377.331 581.585 373.203C609.986 368.409 638.678 365.787 667.138 361.276C691.848 357.36 716.999 355.943 742.014 354.314C761.84 353.023 781.463 350.344 801.154 348.021C812.839 346.642 824.604 345.932 836.332 344.906C836.913 344.855 837.48 344.65 838.054 344.516C837.766 344.01 837.533 343.461 837.182 343.003C832.974 337.506 828.353 334.352 820.465 335.357C810.88 336.577 801.025 335.659 791.288 335.729C790.456 335.735 789.627 336.217 788.797 336.478C789.316 337.176 789.76 337.951 790.368 338.561C792.817 341.016 795.331 343.406 797.782 345.859C798.119 346.196 798.234 346.753 798.452 347.209C797.926 347.056 797.247 347.061 796.898 346.725C794.073 343.998 790.935 341.481 788.643 338.351C786.749 335.765 784.636 336.006 782.221 336.312C759.017 339.252 736.029 343.702 712.692 345.768C677.226 348.908 642.179 355.654 606.76 358.985C557.785 363.592 509.614 373.417 460.933 379.829C427.78 384.196 395.402 392.406 362.703 398.991C331.136 405.347 299.779 412.737 268.323 419.644C266.188 420.113 266.547 420.887 267.632 422.227C280.933 438.648 295.063 454.487 307.224 471.712C319.181 488.648 331.11 505.626 342.926 522.672C343.305 523.218 344.237 524.297 343.201 524.495C342.38 524.652 340.679 523.684 340.445 522.896C338.653 516.852 334.126 512.509 330.779 507.515C320.56 492.273 310.175 477.107 299.086 462.493C288.699 448.804 277.665 435.562 266.307 422.658C252.853 407.374 242.779 389.689 230.28 373.758C211.568 349.908 191.852 326.781 174.964 301.592C151.51 266.609 124.148 234.357 102.749 197.956C96.7474 187.748 88.6978 178.995 81.9182 169.345C71.7752 154.907 62.1371 140.115 51.9915 125.679C46.1841 117.416 39.5141 109.756 34.6915 100.81C34.4345 100.334 34.4433 99.714 34.3284 99.1609C34.7529 99.5256 35.2788 99.8204 35.5869 100.265C40.3274 107.113 45.0571 113.969 49.7463 120.851C50.9734 122.652 52.5097 123.209 54.2388 121.872C55.9423 120.554 55.798 118.866 54.5276 117.187C49.8823 111.045 45.2888 104.864 40.6044 98.7525C39.9826 97.9413 39.1241 96.3454 37.8924 97.4449C36.5654 98.6295 38.352 99.3547 38.9396 100.203C43.2661 106.45 49.1114 111.608 52.2407 118.708C52.4322 119.142 52.3573 119.693 52.4063 120.19C52.0451 119.85 51.5574 119.576 51.3415 119.16C47.6417 112.044 42.0897 106.3 37.1944 100.071C36.3924 99.0506 35.1049 98.1544 36.6374 96.7962C38.0561 95.5389 39.8747 95.5507 40.6956 97.0422C45.2591 105.334 54.2281 110.694 56.3632 120.573C56.6018 121.677 57.4305 121.275 58.0348 121.121C97.4219 111.144 138.145 110.14 178.009 103.304C212.405 97.4059 246.808 91.31 281.416 86.9578C318.375 82.3101 355.301 76.9443 392.607 75.3462C424.055 73.999 455.523 73.1838 486.915 70.428C514.574 67.9999 542.324 66.6134 570.034 64.76C570.398 64.7356 570.756 64.62 571.116 64.5469C570.927 64.3447 570.74 64.1402 570.548 63.9406C564 57.1394 555.848 51.7247 552.358 42.2832C551.651 40.3711 549.091 40.4236 547.35 40.8253C539.85 42.5559 532.28 41.1152 524.744 41.5134C493.146 43.1831 461.717 46.523 430.236 49.535C400.66 52.3648 371.291 56.9815 341.613 58.9177C319.52 60.3591 297.521 63.2192 275.434 64.8089C245.569 66.9584 215.968 71.683 186.042 73.2626C153.483 74.9811 121.178 79.1642 89 84.4254C70.8364 87.3952 52.8945 91.2764 35.0854 95.8514C34.4437 96.0163 33.7306 95.9042 33.0508 95.9212C33.6794 95.5364 34.2623 95.0008 34.945 94.7948C37.1609 94.1259 39.4292 93.6311 41.6483 92.9721C46.109 91.6476 51.2249 91.5149 53.6578 86.4073C53.8735 85.9544 54.7731 85.8264 55.3551 85.5475C55.0672 86.0378 54.8011 86.5427 54.4865 87.0153C53.872 87.9383 52.5075 89.3582 52.7268 89.6652C53.606 90.8955 54.9581 89.8852 56.0881 89.6593C94.5013 81.9805 133.093 75.8801 172.277 73.3596C200.827 71.5231 229.313 68.5486 257.761 65.2532C283.428 62.28 309.228 60.3896 334.996 58.3629C358.63 56.5041 382.11 53.3289 405.669 50.885C432.357 48.1164 458.973 44.3427 485.845 43.4119C489.912 43.2711 493.955 42.371 498 41.7585C498.762 41.6431 499.478 41.2258 500.215 40.9478C499.501 40.4245 498.862 39.6569 498.063 39.4145C486.206 35.8195 474.419 34.2015 461.757 35.8459C429.006 40.099 396.117 43.3079 363.26 46.7228C323.577 50.8473 283.866 54.7122 244.175 58.7669C195.633 63.7258 147.108 68.7312 98.9538 76.9102C77.1794 80.6086 55.312 83.6831 33.9226 89.3359C31.7292 89.9155 29.6603 90.5832 31.6961 93.4811C31.9077 93.7824 31.7868 94.3165 31.8203 94.7426C31.4568 94.5356 30.922 94.4202 30.7546 94.1083C24.6326 82.6985 15.7434 73.4233 7.35614 63.7588C6.70425 63.0076 6.16618 62.1309 5.71048 61.2433C5.03062 59.9191 4.47116 58.5333 3.86048 57.1737C3.80886 58.7849 3.77368 60.3969 3.70307 62.0073C2.93372 79.5553 2.16246 97.1033 1.36664 114.65C1.34433 115.142 1.04339 115.621 0.87238 116.107C0.711638 115.603 0.418407 115.103 0.409258 114.597C0.0479328 94.6154 3.12696 74.7442 2.34146 54.7458C2.28746 53.371 2.57921 51.2883 3.81351 51.2386C5.21205 51.1822 4.62571 53.2502 4.77047 54.3482C5.27046 58.1405 6.94958 56.8787 9.9639 57.057C18.9523 57.5885 27.1224 54.5697 35.6193 53.1987C81.8318 45.7418 128.439 41.5446 174.876 35.9368C210.216 31.669 245.676 28.7481 281.172 26.632C310.912 24.859 340.58 22.2864 370.29 20.213C398.535 18.2418 426.693 14.9046 454.953 13.274C474.29 12.1582 493.459 8.78487 512.89 9.20745C513.74 9.22592 514.596 9.25081 515.439 9.17229C518.02 8.93202 520.597 8.64271 523.175 8.37248C521.696 6.66932 520.198 4.98157 518.755 3.24875C518.496 2.93763 518.461 2.44053 518.322 2.0293C518.645 2.10217 519.08 2.06526 519.275 2.26354C535.11 18.3498 551.668 33.8076 566.5 50.77C577.622 63.4892 589.91 75.1354 600.569 88.151C609.646 99.235 617.186 111.492 627.935 121.315C637.08 129.673 645.355 138.974 654.15 147.721C668.529 162.023 681.995 177.09 695.066 192.624C705.28 204.764 716.466 216.223 728.614 226.7C739.306 235.922 749.385 245.943 759.03 256.268C775.818 274.239 791.582 293.101 810.318 309.29C817.927 315.864 822.747 325.547 829.601 333.126C838.485 342.949 848.254 351.968 857.421 361.543C866.792 371.332 877.356 379.931 885.766 390.697C891.636 398.213 899.743 403.442 907.013 409.506C913.104 414.587 918.115 420.626 923.183 426.7C927.4 431.755 932.72 435.89 937.522 440.463C938.032 440.949 938.34 441.645 938.742 442.244C938.09 441.933 937.312 441.759 936.806 441.291C930.754 435.697 924.395 430.373 918.871 424.295C916.269 421.433 913.747 422.379 911.524 422.969C904.288 424.891 900.11 421.016 895.941 416.15C890.331 409.601 884.36 403.362 878.641 396.904C877.186 395.261 876.689 393.197 878.817 391.643C880.95 390.085 882.192 391.804 883.69 393.144C893.09 401.552 902.571 409.869 912.068 418.167C912.493 418.537 913.332 418.435 913.978 418.553L913.979 418.55C908.86 410.558 900.269 406.377 893.645 400.043C889.934 396.495 886.5 392.658 882.941 388.951C882.941 388.951 882.875 388.88 882.875 388.88ZM623.233 118.501L623.219 118.515L623.689 118.973C628.682 125.101 634.268 130.637 640.381 135.647C640.534 135.801 640.688 135.955 640.841 136.108C640.995 136.263 641.15 136.417 641.304 136.571C641.458 136.726 641.612 136.881 641.766 137.036C641.919 137.191 642.072 137.346 642.226 137.501C642.378 137.655 642.531 137.81 642.683 137.965C642.683 137.965 642.712 137.936 642.713 137.936C642.557 137.784 642.402 137.631 642.247 137.479C642.092 137.326 641.937 137.173 641.782 137.02C641.627 136.867 641.472 136.713 641.317 136.559C641.162 136.405 641.007 136.251 640.853 136.097C640.699 135.944 640.545 135.79 640.391 135.637C635.66 129.247 629.371 124.412 623.691 118.97C623.539 118.814 623.386 118.657 623.233 118.501ZM649.67 145.348C649.67 145.348 649.642 145.376 649.642 145.376C649.799 145.528 649.957 145.68 650.114 145.833L650.584 146.292C651.063 147.237 650.479 148.728 652.015 149.115C652.263 149.178 652.569 149.016 652.848 148.958C652.094 148.068 651.341 147.178 650.588 146.288C650.435 146.131 650.281 145.975 650.128 145.818C649.975 145.662 649.823 145.505 649.67 145.348ZM96.913 180.084C96.913 180.084 96.8998 180.097 96.8998 180.097C97.053 180.252 97.2062 180.407 97.3595 180.561C97.5131 180.716 97.6667 180.871 97.8203 181.026C97.9737 181.18 98.1272 181.335 98.2806 181.49C98.2806 181.49 98.3071 181.464 98.3071 181.464C98.1522 181.311 97.9972 181.157 97.8422 181.004C97.6872 180.851 97.5322 180.697 97.3772 180.544C97.2225 180.391 97.0677 180.238 96.913 180.084ZM797.575 299.105C797.575 299.105 797.6 299.08 797.6 299.08C797.447 298.926 797.293 298.772 797.14 298.618C796.984 298.464 796.829 298.309 796.674 298.155C796.078 297.503 795.664 296.461 794.485 296.967C794.194 297.092 794.032 297.516 793.811 297.802C794.758 297.927 795.704 298.053 796.65 298.178C796.804 298.333 796.959 298.489 797.113 298.644C797.267 298.798 797.421 298.951 797.575 299.105ZM690.006 189.347C690.006 189.347 689.997 189.356 689.997 189.356C690.153 189.51 690.308 189.663 690.464 189.816C690.79 191.926 689.639 191.287 688.868 190.543C687.338 189.064 686 187.389 684.524 185.851C680.684 181.852 676.798 177.896 672.968 173.886C672.409 173.3 671.757 172.528 672.641 171.704C672.768 171.586 673.503 171.817 673.649 172.065C676.943 177.706 681.877 181.831 686.618 186.133C686.822 186.318 687.156 186.362 687.429 186.471C687.337 186.074 687.367 185.579 687.136 185.294C683.12 180.339 679.111 175.377 675.005 170.497C673.891 169.172 672.254 167.962 670.601 169.343C668.664 170.962 670.485 172.465 671.453 173.683C676.763 180.366 682.119 187.014 687.566 193.585C689.375 195.768 692.093 196.141 694.763 196.239C696.099 196.288 695.941 195.579 695.231 194.828C693.647 193.153 692.055 191.484 690.467 189.813C690.313 189.658 690.16 189.502 690.006 189.347ZM13.4386 68.5011C13.2846 68.3465 13.1306 68.192 12.9765 68.0374C12.6388 67.573 12.3016 67.1083 11.9564 66.6496C11.9529 66.6449 11.8443 66.7193 11.7847 66.7567C12.181 67.1846 12.5773 67.6124 12.9736 68.0403C13.1284 68.1941 13.2832 68.348 13.438 68.5018C13.5925 68.6561 13.7471 68.8104 13.9017 68.9648C14.207 69.4337 14.5122 69.9026 14.8177 70.3717L14.8455 70.3437C14.5311 69.8839 14.2167 69.424 13.9023 68.9642C13.7478 68.8098 13.5932 68.6555 13.4386 68.5011ZM722.935 231.475L722.912 231.498C723.071 231.649 723.23 231.8 723.389 231.951C724.232 233.022 724.99 234.174 725.937 235.143C727.324 236.562 728.942 237.672 731.002 237.918C729.705 236.81 728.442 235.659 727.103 234.605C725.909 233.665 724.631 232.83 723.391 231.949C723.239 231.791 723.087 231.633 722.935 231.475ZM137.705 241.233C137.854 241.383 138.003 241.533 138.151 241.683C138.312 241.842 138.472 242 138.633 242.158L138.665 242.126C138.506 241.967 138.347 241.807 138.188 241.648C138.037 241.499 137.886 241.35 137.736 241.202C137.736 241.202 137.705 241.234 137.705 241.233ZM135.403 237.035L135.387 237.051C135.543 237.359 135.699 237.667 135.855 237.975C136.009 238.283 136.163 238.591 136.316 238.899C136.47 239.212 136.623 239.526 136.776 239.839L136.804 239.812C136.647 239.503 136.49 239.194 136.333 238.885C136.176 238.58 136.02 238.274 135.864 237.968C135.71 237.657 135.557 237.346 135.403 237.035ZM59.8107 131.937C59.8529 131.903 59.8951 131.869 59.9374 131.834C59.8946 131.868 59.8519 131.902 59.8092 131.936C59.6539 132.089 59.4986 132.241 59.3433 132.394C59.0437 132.387 58.7441 132.38 58.4445 132.373C59.764 128.021 63.233 131.008 65.5704 130.518C78.1085 127.89 90.7316 125.649 103.359 123.467C144.077 116.43 184.909 110.176 225.942 105.212C246.248 102.756 266.395 98.7706 286.745 96.9378C328.701 93.1594 370.797 91.1462 412.678 86.2345C441.708 82.8299 470.895 80.7051 500.042 78.3828C505.228 77.9696 504.559 74.4999 504.197 72.0257C503.696 68.5947 500.516 70.7169 498.652 70.8675C461.261 73.8872 423.783 75.17 386.323 76.8851C350.047 78.546 314.101 83.8293 278.142 88.4368C243.082 92.929 208.295 99.5054 173.333 104.799C151.812 108.057 130.206 110.773 108.604 113.458C90.2792 115.735 71.9498 117.846 54.2558 123.497C52.9273 123.921 52.5081 124.318 53.3787 125.509C55.059 127.808 56.7299 130.114 58.4047 132.417C65.6677 143.113 72.9305 153.808 80.1939 164.504C80.7564 165.332 81.4526 165.294 82.1778 164.761C83.0342 164.131 82.4639 163.605 82.0482 163.027C79.7098 159.777 77.3386 156.55 75.0785 153.246C70.1579 146.054 65.7836 138.456 59.3517 132.403C59.5047 132.247 59.6577 132.092 59.8107 131.937ZM115.45 205.104L115.465 205.089C115.427 205.049 115.389 205.009 115.35 204.969C115.383 205.014 115.416 205.059 115.45 205.104ZM116.388 206.479L116.378 206.488L116.846 207.411C116.8 208.387 118.329 209.426 116.953 210.197C116.66 210.361 115.327 209.083 114.751 208.273C109.087 200.307 103.497 192.29 97.8379 184.321C97.3248 183.598 96.8034 182.092 95.6775 182.818C94.3948 183.644 95.3079 184.856 95.9556 185.839C100.962 193.436 106.018 201.003 110.945 208.651C113.458 212.552 113.353 212.62 115.8 212.062C119.348 211.254 119.526 210.465 116.849 207.408C116.696 207.098 116.542 206.788 116.388 206.479ZM140.497 244.916C141.004 245.747 141.512 246.578 142.019 247.41C142.151 247.306 142.283 247.203 142.416 247.1C141.776 246.372 141.137 245.644 140.497 244.916ZM134.462 235.664L134.478 235.648C134.09 233.424 132.235 232.376 130.762 231.021L130.755 231.028C131.99 232.573 133.226 234.119 134.462 235.664ZM819.853 330.559C819.853 330.559 819.823 330.589 819.823 330.589C820.448 331.156 821.041 331.764 821.703 332.284C822.988 333.293 824.288 334.358 826.058 333.263C825.222 332.189 824.586 330.696 823.486 330.168C822.554 329.72 821.085 330.386 819.853 330.559ZM27.8102 79.6187L27.8184 79.6105C25.5289 74.1785 21.8625 69.6782 18.0768 65.2586L18.0739 65.2616C20.4865 70.6104 24.0256 75.1975 27.8102 79.6187ZM587.985 77.3003L587.985 77.2981C587.38 75.4794 585.866 74.9134 584.2 74.8104C583.694 74.7791 582.795 75.3801 582.675 75.8457C582.25 77.487 583.702 78.2686 584.629 79.2309C585.694 80.3361 586.862 81.3428 591.712 85.8438C590.41 84.6227 589.292 83.574 588.173 82.5252C588.163 82.6253 588.104 82.7685 588.15 82.819C589.116 83.8973 590.089 84.9689 591.081 86.0236C591.126 86.072 591.353 85.9507 587.985 82.3924C587.529 81.5304 587.063 80.6736 586.62 79.8049C586.127 78.836 585.655 77.8562 585.174 76.8811C586.111 77.0208 587.048 77.1606 587.985 77.3003ZM760.498 268.051L760.472 268.077C764.351 272.828 767.029 278.698 773.005 281.497C775.112 283.807 776.877 286.505 780.141 287.464C780.907 287.69 782.042 286.857 782.435 288.208C781.489 288.295 780.358 288.761 779.626 288.407C774.854 286.097 771.052 282.403 767.437 278.708C760.673 271.796 755.886 263.348 750.474 255.399C749.647 254.183 748.652 254.152 747.461 254.353C721.402 258.744 695.02 260.481 668.741 262.163C642.845 263.821 617.095 266.58 591.347 269.359C559.201 272.829 527.231 277.942 495.074 281.287C455.357 285.418 415.743 290.332 376.303 296.395C344.032 301.356 311.986 307.81 279.891 313.865C257.056 318.172 234.299 322.894 211.53 327.542C210.558 327.74 207.537 327.337 208.883 329.487C212.141 334.69 215.997 339.53 219.749 344.41C223.827 349.712 228.284 354.827 230.313 361.3C230.979 363.423 231.424 363.744 233.3 363.052C252.353 356.022 272.364 352.631 292.102 348.506C346.226 337.196 400.656 327.372 455.507 320.288C484.233 316.578 512.517 310.349 541.299 306.941C569.264 303.631 596.921 297.66 624.905 294.594C667.418 289.937 710.135 287.7 752.953 289.382C764.896 289.852 776.828 290.611 788.765 291.238L789.208 291.691C788.741 291.868 788.268 292.216 787.808 292.199C767.224 291.437 746.646 290.495 726.058 289.896C704.888 289.279 683.801 291.509 662.674 292.338C647.58 292.931 632.292 293.488 617.512 296.284C573.934 304.526 529.792 308.957 486.146 316.825C458.169 321.868 429.724 324.656 401.654 329.438C345.351 339.031 288.919 348.099 233.903 363.974C225.892 366.286 226.021 366.075 230.915 372.755C241.445 387.125 251.821 401.608 262.201 416.088C264.15 418.806 266.008 420.071 268.529 416.808C270.327 414.482 268.6 412.724 267.505 410.967C260.782 400.177 250.978 391.558 245.488 379.879C245.142 379.143 244.074 378.745 243.342 378.189C243.421 379.219 243.144 380.475 243.634 381.242C248.445 388.763 252.057 397.157 258.485 403.495C261.272 406.242 261.201 411.718 266.624 412.059C267.085 412.088 267.457 414.216 267.765 415.397C267.826 415.627 267.402 415.984 267.202 416.282C266.318 415.608 265.228 415.088 264.583 414.235C256.858 404.019 249.206 393.749 241.511 383.511C240.809 382.578 241.038 382.004 241.469 380.921C242.127 379.266 242.008 377.271 241.995 375.422C241.994 375.174 240.478 374.544 240.039 374.782C239.359 375.15 238.928 376.075 238.528 376.835C238.097 377.656 237.822 378.558 237.479 379.425C237.437 378.499 237.378 377.573 237.357 376.647C237.345 376.108 237.394 375.568 237.416 375.028L237.413 375.025C236.701 375.019 235.99 375.012 235.278 375.006C236.47 374.436 237.606 373.599 238.863 373.334C261.754 368.521 284.645 363.702 307.566 359.033C342.14 351.991 376.663 344.834 411.668 339.922C448.823 334.707 485.886 329.027 523.29 325.731C556.964 322.763 590.464 318.257 623.958 313.632C645.404 310.67 667.103 309.312 688.734 307.998C708.146 306.819 727.493 305.453 746.785 302.846C760.216 301.031 773.816 300.476 787.337 299.324C789.764 299.117 792.735 299.228 793.157 296.034C793.481 293.585 790.457 293.234 789.246 291.655L788.794 291.209C778.897 280.093 768.999 268.977 759.102 257.861C757.562 256.503 755.7 253.118 754.592 254.199C752.766 255.981 754.375 258.914 756.009 261.016C756.103 261.138 756.188 261.27 756.294 261.38C763.542 268.909 770.789 276.439 778.051 283.954C778.282 284.194 778.664 284.289 778.975 284.452C778.759 284.082 778.593 283.668 778.319 283.347C771.978 275.901 765.6 268.486 759.313 260.996C758.659 260.217 757.066 259.098 759.06 257.92C759.795 259.165 760.365 260.55 761.291 261.633C767.376 268.745 773.545 275.786 779.663 282.871C780.345 283.66 781.343 284.662 780.316 285.664C779.369 286.587 778.281 285.781 777.431 285.118C775.928 283.946 774.48 282.705 773.009 281.493C768.839 277.012 764.669 272.532 760.498 268.051ZM879.667 392.629C883.967 396.907 888.25 401.201 892.57 405.458C897.499 410.316 902.424 415.181 907.441 419.947C908.344 420.804 909.934 421.676 910.938 420.413C912.091 418.96 910.225 418.331 909.413 417.613C902.202 411.239 895.101 404.724 887.608 398.695C885.032 396.623 883.701 392.775 879.657 392.618C879.504 392.773 879.351 392.928 879.198 393.083C878.126 395.656 880.005 397.163 881.401 398.703C886.941 404.813 892.711 410.721 898.109 416.952C900.495 419.707 903.122 421.695 906.618 422.528C907.155 422.656 907.79 422.377 908.379 422.287C908.255 422.052 908.192 421.735 907.999 421.594C899.722 415.536 893.4 407.438 885.964 400.501C883.525 398.225 880.681 396.258 879.202 393.086C879.357 392.934 879.512 392.781 879.667 392.629ZM621.369 116.661L621.377 116.653C620.776 115.954 620.063 114.911 619.156 115.88C618.027 117.085 618.906 118.4 619.704 119.42C627.667 129.604 636.978 138.446 647.012 146.553C647.601 147.029 648.43 147.207 649.148 147.524C648.765 146.804 648.53 145.937 647.978 145.386C640.793 138.224 633.519 131.149 626.371 123.95C624.289 121.854 621.473 120.153 621.369 116.661ZM822.08 327.643C821.804 327.127 821.691 326.729 821.437 326.468C814.672 319.525 807.908 312.579 801.089 305.689C800.413 305.007 799.38 304.677 798.513 304.183C798.818 305.213 798.883 306.411 799.467 307.246C805.055 315.235 811.176 322.758 819.115 328.587C819.591 328.937 820.427 329.096 820.985 328.944C821.438 328.82 821.726 328.093 822.08 327.643ZM125.66 230.559C125.613 229.922 125.565 229.284 125.518 228.647C125.276 228.731 125.034 228.815 124.792 228.899C125.08 229.454 125.368 230.008 125.656 230.563C132.075 241.583 140.299 251.294 148.119 261.291C149.044 262.474 149.909 265.336 151.399 264.223C153.168 262.902 151.728 260.407 150.631 258.602C150.356 258.15 149.974 257.729 149.558 257.4C141.13 250.725 136.635 240.871 129.717 232.98C128.652 231.765 128.511 228.845 125.66 230.559ZM228.61 364.38C228.762 364.225 228.915 364.071 229.068 363.916C229.983 361.818 229.104 360.075 228.092 358.27C223.055 349.294 215.307 342.261 210.124 333.455C207.471 328.948 204.423 328.429 200.068 329.928C198.381 330.508 198.131 331.078 199.234 332.484C207.162 342.592 215.096 352.695 222.919 362.885C224.559 365.022 226.217 365.751 228.61 364.38ZM160.44 278.73C168.714 290.612 176.95 302.522 185.319 314.337C186.165 315.531 186.753 318.444 188.612 317.294C190.72 315.99 191.398 313.253 189.711 310.741C185.119 303.903 180.968 296.697 175.74 290.381C171.678 285.473 170.815 275.65 160.488 278.664C163.049 273.405 167.649 276.797 171.293 276.107C203.844 269.936 236.427 263.929 268.923 257.484C299.345 251.45 330.081 247.959 360.897 244.839C379.938 242.912 398.854 239.584 417.921 238.129C448.199 235.818 478.312 232.417 508.247 227.414C540.197 222.073 572.436 219.381 604.737 218.261C628.961 217.42 653.118 215.578 677.33 214.74C677.903 214.72 678.466 214.393 679.033 214.209C678.742 213.639 678.57 212.951 678.141 212.518C675.753 210.115 673.199 207.868 670.911 205.377C669.424 203.757 668.293 201.812 667.003 200.013C669.346 201.106 670.458 203.41 672.139 205.162C677.216 210.453 681.74 216.075 690.84 214.131C697.229 212.766 704.177 214.279 710.397 211.133L710.428 211.102C703.688 203.863 698.627 195.411 685.704 197.073C663.711 199.9 641.464 200.82 619.307 202.283C595.296 203.868 571.227 204.702 547.251 206.684C510.564 209.718 474.075 214.606 437.568 219.341C399.16 224.323 360.525 227.648 322.201 233.16C285.993 238.367 249.772 243.83 214.028 251.889C194.448 256.303 174.806 260.438 155.208 264.775C153.848 265.077 151.021 265.004 152.747 267.743C155.127 271.521 157.859 275.078 160.44 278.73ZM604.679 102.766C603.938 103.086 603.209 103.65 602.454 103.688C595.222 104.05 587.985 104.315 580.75 104.636C580.175 104.662 579.61 104.901 579.04 105.041C579.34 105.54 579.557 106.12 579.954 106.525C582.548 109.165 585.456 111.552 587.72 114.445C589.776 117.071 591.836 117.642 595.112 117.258C602.108 116.436 609.186 116.321 616.224 115.825C617.618 115.726 619.274 114.431 618.053 113.37C613.765 109.646 612.426 102.096 604.679 102.765C597.887 95.3034 591.193 87.7503 584.251 80.4313C581.959 78.0157 580.889 74.1653 575.758 74.9192C567.391 76.1486 558.863 76.3093 550.397 76.8379C531.611 78.011 512.779 78.1933 494.018 80.0234C469.22 82.4423 444.362 84.2459 419.553 86.5663C396.812 88.6932 374.152 92.0764 351.37 93.272C307.995 95.5483 264.964 100.569 222.029 106.785C197.65 110.315 173.246 113.667 148.864 117.177C121.494 121.116 94.2278 125.678 67.1268 131.189C66.0989 131.398 64.7141 131.521 65.8732 133.197C68.1957 136.555 70.5644 139.884 72.7843 143.309C76.6702 149.305 80.6945 155.233 84.1393 161.477C85.1355 163.282 85.5573 163.907 87.53 163.466C97.6227 161.21 107.674 158.684 117.859 156.94C146.093 152.107 174.404 147.719 202.652 142.958C230.672 138.235 258.63 133.179 286.948 130.42C345.934 124.673 404.895 118.665 463.886 112.973C485.693 110.869 507.561 109.406 529.392 107.551C554.455 105.422 579.49 102.904 604.679 102.766ZM718.762 219.437L718.742 219.457C722.525 226.746 729.49 231.452 733.97 238.173C734.323 238.703 734.496 239.353 734.753 239.948C734.089 239.972 733.372 240.175 732.772 239.993C729.337 238.95 725.915 237.63 723.707 234.704C718.849 228.266 712.623 222.878 708.932 215.551C708.314 214.323 707.401 214.135 706.078 214.209C677.27 215.832 648.476 217.93 619.644 218.846C582.03 220.041 544.527 222.329 507.443 228.784C461.587 236.767 415.038 238.461 369.013 244.849C349.831 247.511 330.514 249.19 311.273 251.448C285.615 254.459 260.563 260.856 235.143 265.221C213.985 268.853 192.957 273.234 171.828 277.042C168.386 277.662 168.873 278.338 170.48 280.598C177.046 289.834 183.475 299.167 189.866 308.525C190.974 310.148 192.197 311.914 191.852 314.068C191.569 315.833 192.289 315.858 193.635 315.435C198.633 313.864 203.649 312.352 208.652 310.798C226.822 305.155 245.578 301.973 264.03 297.524C291.998 290.78 320.478 286.787 348.691 281.431C375.95 276.257 403.715 273.739 431.257 270.048C466.081 265.381 500.516 258.359 535.366 253.671C581.781 247.429 628.393 245.847 675.049 244.592C696.602 244.013 717.994 241.562 739.503 240.71C739.909 240.694 740.305 240.408 740.705 240.249C740.488 239.95 740.313 239.606 740.049 239.358C732.959 232.712 725.86 226.075 718.762 219.437ZM801.473 334.298C807.491 334.298 813.509 334.308 819.527 334.28C820.097 334.278 820.666 334.033 821.235 333.9C820.867 333.431 820.557 332.901 820.125 332.503C810.616 323.742 802.079 314.168 795.156 303.201C794.122 301.563 792.92 299.792 790.437 300.04C784.759 300.608 779.085 301.284 773.392 301.627C754.346 302.775 735.512 306.405 716.553 307.568C679.651 309.832 642.872 312.406 606.176 317.36C563.134 323.17 519.732 326.283 476.641 331.781C427.322 338.073 378.071 345.025 329.406 355.542C301.478 361.578 273.437 367.092 245.44 372.802C243.413 373.216 242.551 373.326 243.954 375.848C250.886 388.318 260.624 398.762 268.597 410.469C269.876 412.347 270.932 414.274 270.056 416.484C269.173 418.712 270.177 418.319 271.622 417.996C300.935 411.435 330.184 404.558 359.591 398.44C401.164 389.79 442.667 380.873 484.805 375.006C530.447 368.65 575.844 360.607 621.728 355.883C658.808 352.066 695.585 345.783 732.743 342.388C755.682 340.292 778.207 334.196 801.473 334.298ZM659.47 167.428C635.908 169.502 611.039 169.311 586.269 171.633C557.315 174.348 528.287 176.304 499.271 178.318C466.929 180.561 434.846 185.29 402.509 187.739C357.559 191.144 312.765 196.457 268.259 203.664C240.668 208.132 213.389 214.531 185.791 218.943C168.582 221.693 151.245 223.733 134.095 226.942C133.233 227.103 130.873 226.732 132.129 228.839C134.612 233.003 137.515 236.917 140.061 241.046C144.455 248.172 150.565 254.237 153.334 262.363C153.807 263.753 154.66 263.745 155.878 263.485C191.819 255.814 227.534 247.03 263.882 241.349C300.415 235.639 336.841 229.493 373.739 225.988C417.441 221.838 460.932 215.462 504.51 210.017C541.753 205.364 579.209 203.545 616.641 201.316C638.816 199.995 660.96 198.132 683.116 196.489C684.538 196.384 685.945 196.071 687.359 195.855C686.513 194.508 685.788 193.065 684.8 191.831C679.693 185.456 672.571 179.836 669.954 172.584C667.649 166.197 664.373 168.009 659.47 167.428ZM634.674 149.703C638.215 149.488 641.757 149.281 645.298 149.048C645.967 149.004 646.63 148.857 647.296 148.757C646.832 148.194 646.46 147.51 645.892 147.087C637.181 140.603 630.053 132.499 622.517 124.785C619.51 121.707 618.6 115.906 612.171 116.632C597.689 118.268 583.175 119.66 568.656 120.942C535.227 123.895 501.82 127.204 468.343 129.465C436.145 131.64 404.011 134.437 371.987 138.223C326.682 143.579 281.432 149.449 236.235 155.648C191.35 161.804 146.116 165.888 102.037 177.126C99.6894 177.724 99.3166 178.586 100.756 180.371C108.435 189.896 114.546 200.401 120.095 211.252C120.63 212.296 121.26 212.255 122.162 212.029C159.954 202.585 198.358 196.188 236.638 189.195C270.55 182.999 304.922 180.395 339.113 176.372C362.651 173.603 386.15 170.496 409.67 167.573C444.198 163.283 478.96 161.518 513.45 156.319C553.524 150.279 594.081 148.683 634.674 149.703ZM531.723 30.51C534.581 30.51 537.44 30.4881 540.297 30.5323C540.757 30.5395 541.212 30.8422 541.669 31.0083C541.195 31.1601 540.725 31.4311 540.247 31.4457C534.538 31.6202 528.826 31.7237 523.117 31.9177C520.545 32.0051 517.978 32.2532 515.409 32.4285C516.907 34.2554 518.439 36.0568 519.879 37.9287C520.205 38.3516 520.211 39.0193 520.364 39.5744C519.916 39.2564 519.42 38.9884 519.028 38.6125C516.531 36.222 515.059 32.0828 511.086 32.1032C503.771 32.1406 496.457 32.8351 489.147 33.3268C487.471 33.4396 485.815 33.8408 484.149 34.1093C485.652 34.6886 487.122 35.3789 488.663 35.8277C494.565 37.5468 500.454 40.437 506.413 40.6102C520.719 41.0261 535.063 40.1662 549.39 39.7764C550.621 39.7429 552.242 41.2073 552.979 39.687C553.787 38.0213 551.812 37.1289 550.792 36.3229C546.984 33.3141 545.581 27.7739 538.604 27.867C535.215 27.9122 531.595 22.6079 528.383 19.421C526.554 17.607 522.977 15.5615 525.016 12.675C526.883 10.0331 524.752 10.3508 523.855 10.0655C522.651 9.68268 521.267 9.76075 519.966 9.7984C501.908 10.3207 483.957 12.2106 465.969 13.7546C431.072 16.7502 396.129 19.2226 361.199 21.8269C325.733 24.4711 290.25 26.9054 254.79 29.633C225.632 31.8759 196.474 34.1658 167.432 37.6971C145.973 40.3063 124.538 43.189 103.025 45.25C73.7778 48.0521 44.854 52.8141 16.0021 58.1586C15.3909 58.2719 14.1405 58.1312 15.2329 59.4573C16.7965 61.3555 18.2886 63.3166 19.735 65.306C24.6808 72.1088 30.6548 78.3562 31.6079 87.323C31.7986 89.1173 33.1719 88.4782 34.1176 88.1768C48.0131 83.7481 62.4415 81.5907 76.7287 79.285C120.704 72.188 164.728 65.3704 209.146 61.3619C245.118 58.1157 280.981 53.6279 316.968 50.5856C356.355 47.2559 395.487 41.7332 434.822 37.9803C467.086 34.9021 499.193 30.0668 531.723 30.51ZM208.737 327.218C216.995 325.355 226.209 323.043 235.519 321.216C273.03 313.857 310.754 307.615 348.292 300.46C376.256 295.13 404.365 291.201 432.536 287.572C474.943 282.109 517.424 277.224 559.877 272.114C585.391 269.043 610.838 264.962 636.443 263.214C672.165 260.776 707.833 257.99 743.407 254.003C745.688 253.748 748.722 254.39 750.264 251.801C751.786 249.245 745.151 242.239 741.235 242.139C726.833 241.769 712.613 244.279 698.281 244.863C671.524 245.953 644.762 247.268 617.992 247.55C584.123 247.908 550.814 253.417 517.34 257.333C479.307 261.782 441.978 270.919 403.761 274.474C369.983 277.616 336.735 284.571 303.435 290.778C265.758 297.802 228.005 304.811 191.643 317.457C189.964 318.041 188.716 318.9 190.132 320.807C192.013 323.343 193.989 325.81 195.933 328.3C196.546 329.083 197.876 329.874 198.228 329.079C200.532 323.874 204.333 326.778 208.737 327.218ZM616.664 150.263C598.707 150.944 578.792 151.398 558.914 152.521C526.678 154.34 494.983 161.027 462.808 163.556C427.32 166.345 392.025 170.875 356.72 175.382C327.016 179.175 297.152 181.717 267.454 185.55C232.433 190.07 197.877 197.417 163.194 203.956C148.091 206.804 133.1 210.149 118.342 214.46C117.135 214.813 115.234 215.001 116.369 217.378C119.507 223.95 123.802 227.819 131.863 226.276C149.457 222.907 167.157 220.239 184.962 218.075C214.803 214.448 243.796 206.135 273.568 201.746C316.363 195.437 359.257 190.165 402.341 186.694C444.184 183.323 485.794 177.683 527.73 175.147C562.451 173.047 597.051 168.996 631.861 168.008C632.434 167.992 633 167.743 633.57 167.602C633.26 167.105 633.034 166.52 632.626 166.123C628.421 162.038 624.175 157.995 619.976 153.904C619.499 153.44 619.237 152.756 618.876 152.174C619.553 152.486 620.373 152.649 620.884 153.135C623.793 155.902 626.345 159.137 629.564 161.458C632.996 163.933 634.587 168.799 640.816 167.868C649.995 166.496 659.419 166.769 668.739 166.327C669.156 166.307 669.566 166.147 669.98 166.051C669.736 165.601 669.58 165.066 669.236 164.714C665.95 161.355 662.405 158.218 659.402 154.627C657.268 152.075 655.003 150.295 651.667 150.281C640.649 150.235 629.632 150.263 616.664 150.263ZM575.548 104.646C559.728 106.038 544.067 107.675 528.368 108.739C500.881 110.6 473.455 113.063 446.051 115.862C420.874 118.434 395.661 120.668 370.473 123.137C338.296 126.291 306.07 129.047 273.974 132.876C243.842 136.471 214.051 142.517 184.062 147.113C151.07 152.168 118.163 157.482 85.6212 164.921C82.4718 165.641 81.0124 166.902 83.6411 169.98C86.0442 172.795 88.2277 175.795 90.5651 178.667C90.8742 179.047 91.5209 179.152 92.0113 179.385C92.2976 174.059 96.0249 177.659 98.1159 177.067C132.442 167.351 167.865 163.794 203.014 158.882C244.293 153.115 285.73 148.486 327.04 142.93C353.824 139.328 380.614 135.811 407.524 133.388C434.029 131.002 460.634 129.684 487.112 127.054C520.198 123.767 553.464 122.483 586.436 117.996C587.07 117.91 587.671 117.575 588.287 117.356C588.057 116.805 587.965 116.12 587.577 115.725C584.064 112.157 580.511 108.626 576.926 105.129C576.589 104.801 575.951 104.779 575.548 104.646ZM541.215 67.7901C529.152 68.7253 518.458 69.4595 507.787 70.4359C504.307 70.7543 505.601 74.0238 505.189 76.0245C504.818 77.8251 506.517 77.7502 507.756 77.6825C532.69 76.321 557.623 74.9471 582.555 73.5588C583.065 73.5304 583.564 73.3011 584.068 73.1656C583.958 72.7583 583.981 72.1491 583.716 71.9742C580.037 69.5401 578.851 63.6845 572.038 65.4767C565.729 67.1362 558.871 66.653 552.281 67.3532C550.819 67.5085 548.208 66.7263 548.067 68.3641C547.952 69.6923 550.047 71.2375 551.22 72.6385C551.71 73.224 552.348 73.6855 552.919 74.2034C552.042 73.875 550.91 73.7878 550.33 73.1774C547.45 70.1473 545.127 66.1498 541.215 67.7901ZM573.679 62.8341C573.541 62.5418 573.489 62.3939 573.407 62.2654C568.713 54.9095 563.481 48.0021 556.637 42.4716C556.159 42.0853 555.334 42.1275 554.67 41.9704C554.703 42.5142 554.695 43.064 554.775 43.6008C555.232 46.6614 558.103 47.8836 559.808 49.973C563.462 54.4507 567.452 58.6582 571.378 62.9087C571.765 63.3283 572.656 63.3105 573.326 63.4147C573.423 63.4297 573.591 62.9863 573.679 62.8341ZM26.568 84.1458C27.9809 83.4955 27.8442 82.4236 27.3119 81.6117C22.6471 74.4966 17.9203 67.4219 13.1847 60.3534C12.6287 59.5234 11.7502 59.041 10.789 59.6072C9.69312 60.2526 10.3896 61.1997 10.8037 61.8124C15.1794 68.287 19.6004 74.7314 24.0494 81.1561C24.7817 82.2137 25.7096 83.1362 26.568 84.1458ZM539.876 26.9103C540.06 24.8406 528.691 13.1287 526.776 13.2487C524.734 13.3766 525.766 14.6184 526.248 15.2973C529.59 19.9995 534.148 23.4539 538.573 27.0339C539.019 27.3948 539.716 27.7598 539.876 26.9103ZM63.3079 132.192C63.0193 132.396 62.5771 132.619 62.6024 132.707C62.7653 133.27 62.9431 133.865 63.2753 134.339C69.208 142.796 75.1578 151.24 81.1264 159.672C81.5408 160.257 82.1314 160.718 82.64 161.237C82.44 160.548 82.3978 159.753 82.0164 159.185C76.2233 150.556 70.39 141.954 64.5459 133.359C64.2557 132.932 63.7813 132.63 63.3079 132.192ZM712.536 216.79C712.796 217.851 712.733 218.91 713.233 219.431C717.488 223.872 721.844 228.216 726.18 232.58C726.324 232.725 726.576 232.764 726.777 232.853C726.647 232.538 726.571 232.185 726.38 231.912C722.89 226.908 717.399 223.285 716.057 216.754C715.891 215.947 714.37 215.417 713.477 214.758C713.148 215.469 712.819 216.181 712.536 216.79ZM816.814 319.535C816.5 317.427 801.509 301.481 799.683 301.231C799.293 301.177 798.811 301.359 798.478 301.587C798.371 301.66 798.493 302.422 798.703 302.548C805.792 306.807 809.661 314.331 815.907 319.435C816.136 319.623 816.414 319.751 816.669 319.907C816.736 319.735 816.803 319.562 816.814 319.535ZM589.439 80.2169C589.165 80.3174 588.803 80.4074 588.808 80.4548C588.842 80.7436 588.879 81.0959 589.06 81.2944C593.936 86.6339 598.823 91.964 603.743 97.2634C603.983 97.5221 604.539 97.4884 604.948 97.5908C604.817 97.1776 604.795 96.6727 604.538 96.3651C601.377 92.594 598.267 88.7758 594.961 85.1344C593.32 83.3264 591.305 81.8569 589.439 80.2169ZM102.24 184.356C101.083 185.096 99.7439 184.635 100.641 185.948C104.376 191.416 107.081 197.576 111.739 202.422C112.042 202.738 112.452 202.952 112.812 203.214C112.71 202.803 112.7 202.339 112.492 201.991C109.254 196.559 105.983 191.146 102.743 185.714C102.469 185.254 102.362 184.695 102.24 184.356ZM593.094 87.7111C593.221 88.3991 593.189 88.6585 593.303 88.7799C597.298 93.0155 601.291 97.2527 605.335 101.44C605.752 101.872 606.725 102.453 606.973 101.42C607.112 100.839 606.473 99.5681 605.943 99.4082C602.033 98.2295 600.026 94.9361 597.5 92.2039C596.2 90.7978 594.82 89.4655 593.094 87.7111ZM30.6944 87.0998C30.3384 85.4993 30.9015 84.0332 29.4063 83.2557C29.014 84.5833 28.4315 85.895 28.3181 87.2459C28.2691 87.8286 29.1905 88.4926 29.6711 89.1196C30.0571 88.3578 30.443 87.5959 30.6944 87.0998ZM11.1382 64.635C9.26216 62.6106 9.91051 59.9167 7.361 59.3969C7.18821 59.3617 6.61829 60.1479 6.68267 60.2405C7.75934 61.7893 8.88929 63.3032 10.071 64.7739C10.1795 64.9089 10.7206 64.6972 11.1382 64.635ZM201.854 326.933C201.505 327.221 201.102 327.555 200.7 327.889C201.127 328.06 201.576 328.412 201.976 328.364C202.771 328.27 203.539 327.954 204.318 327.73C203.587 327.493 202.856 327.257 201.854 326.933ZM752.242 256.099C752.452 255.291 752.647 254.959 752.593 254.675C752.412 253.728 753.783 252.618 752.325 251.861C752.175 251.783 751.439 252.316 751.463 252.502C751.597 253.531 751.883 254.54 752.242 256.099ZM711.966 215.4C711.573 214.93 711.222 214.51 710.871 214.09C710.604 214.345 710.069 214.744 710.116 214.83C710.419 215.39 710.848 215.883 711.236 216.398C711.433 216.128 711.631 215.858 711.966 215.4ZM93.6618 182.51C93.8449 181.907 94.0911 181.536 93.9968 181.303C93.8595 180.962 93.4772 180.72 93.1993 180.435C93.0255 180.717 92.6598 181.052 92.7206 181.267C92.8248 181.635 93.1959 181.927 93.6618 182.51ZM797.185 301.271C796.699 300.88 796.422 300.657 796.145 300.434C795.995 300.637 795.686 300.891 795.73 301.034C795.81 301.29 796.07 301.561 796.321 301.664C796.472 301.726 796.749 301.482 797.185 301.271ZM913.73 420.932C913.272 420.707 913.044 420.525 912.803 420.507C912.683 420.498 912.398 420.847 912.434 420.931C912.528 421.155 912.735 421.442 912.937 421.477C913.107 421.507 913.334 421.22 913.73 420.932ZM94.0334 178.319C94.2651 178.119 94.4103 177.994 94.5555 177.868C94.4128 177.744 94.2853 177.585 94.1199 177.512C94.0534 177.483 93.8062 177.65 93.8105 177.716C93.8217 177.888 93.927 178.054 94.0334 178.319ZM165.157 276.243C165.04 276.311 164.924 276.38 164.807 276.448C164.909 276.532 165.003 276.631 165.117 276.693C165.153 276.713 165.303 276.622 165.299 276.603C165.274 276.482 165.22 276.365 165.157 276.243ZM711.112 212.581C711.041 212.602 710.971 212.622 710.9 212.643C710.973 212.725 711.034 212.825 711.122 212.881C711.164 212.907 711.259 212.847 711.329 212.826C711.261 212.742 711.192 212.657 711.112 212.581ZM98.2537 178.467C98.1882 178.476 98.1226 178.485 98.057 178.494C98.0719 178.556 98.0687 178.65 98.1065 178.671C98.1522 178.697 98.2327 178.661 98.2981 178.652C98.2833 178.591 98.2685 178.529 98.2537 178.467ZM827.831 334.004C827.899 334.019 827.967 334.033 828.035 334.048C828.049 333.983 828.094 333.891 828.067 333.859C828.032 333.817 827.94 333.822 827.873 333.808L827.831 334.004Z" fill="#F9F9F9"/>
<path d="M852.768 367.618C855.647 369.537 858.496 371.504 861.421 373.35C862.473 374.014 863.709 374.387 864.86 374.892C865.226 373.17 863.941 372.168 862.993 371.197C856.985 365.047 850.894 358.977 844.805 352.906C844.362 352.464 843.722 352.219 843.173 351.883C843.412 352.468 843.503 353.194 843.911 353.617C849.776 359.696 855.683 365.735 861.581 371.784C861.738 371.936 861.896 372.089 862.054 372.242C862.212 372.395 862.37 372.548 862.527 372.702C862.527 372.702 862.495 372.734 862.495 372.734C862.341 372.576 862.188 372.418 862.035 372.261C861.882 372.103 861.729 371.946 861.577 371.788C860.684 371.345 859.679 371.042 858.917 370.435C851.392 364.439 844.092 358.232 839.734 349.349C839.224 348.31 837.121 347.389 838.77 346.239C840.199 345.242 841.023 347.193 841.967 348.135C845.287 351.447 848.666 354.701 851.986 358.013C862.291 368.293 872.58 378.59 882.875 388.88C882.875 388.88 882.941 388.951 882.941 388.951C886.5 392.658 889.934 396.495 893.645 400.043C900.269 406.377 908.86 410.558 913.979 418.55L913.978 418.553C913.332 418.435 912.493 418.537 912.068 418.167C902.571 409.869 893.09 401.552 883.69 393.144C882.192 391.804 880.95 390.085 878.817 391.643C876.689 393.197 877.186 395.261 878.641 396.904C884.36 403.362 890.331 409.601 895.941 416.15C900.11 421.016 904.288 424.891 911.524 422.969C913.747 422.379 916.269 421.433 918.871 424.295C924.395 430.373 930.754 435.697 936.806 441.291C937.312 441.759 938.09 441.933 938.742 442.244C938.34 441.645 938.032 440.949 937.522 440.463C932.72 435.89 927.4 431.755 923.183 426.7C918.115 420.626 913.104 414.587 907.013 409.506C899.743 403.442 891.636 398.213 885.766 390.697C877.356 379.931 866.792 371.332 857.421 361.543C848.254 351.968 838.485 342.949 829.601 333.126C822.747 325.547 817.927 315.864 810.318 309.29C791.582 293.101 775.818 274.239 759.03 256.268C749.385 245.943 739.306 235.922 728.614 226.7C716.466 216.223 705.28 204.763 695.066 192.624C681.995 177.09 668.529 162.023 654.15 147.721C645.355 138.974 637.08 129.673 627.935 121.315C617.186 111.492 609.646 99.235 600.569 88.151C589.91 75.1354 577.622 63.4892 566.501 50.77C551.668 33.8076 535.11 18.3498 519.275 2.26354C519.08 2.06526 518.645 2.10217 518.322 2.0293C518.461 2.44053 518.496 2.93763 518.755 3.24875C520.198 4.98157 521.696 6.66932 523.175 8.37248C520.597 8.64271 518.02 8.93202 515.439 9.17229C514.596 9.25081 513.74 9.22592 512.89 9.20745C493.459 8.78487 474.29 12.1582 454.953 13.274C426.693 14.9046 398.536 18.2418 370.29 20.213C340.58 22.2864 310.912 24.859 281.172 26.632C245.676 28.7481 210.216 31.669 174.876 35.9368C128.439 41.5446 81.8318 45.7418 35.6193 53.1987C27.1224 54.5697 18.9523 57.5885 9.9639 57.057C6.94958 56.8787 5.27046 58.1405 4.77048 54.3482C4.62571 53.2502 5.21205 51.1822 3.81351 51.2386C2.57921 51.2883 2.28746 53.371 2.34146 54.7458C3.12696 74.7442 0.0479328 94.6154 0.409258 114.597C0.418407 115.103 0.711638 115.603 0.87238 116.107C1.04339 115.621 1.34433 115.142 1.36664 114.65C2.16246 97.1033 2.93372 79.5553 3.70307 62.0073C3.77368 60.3969 3.80886 58.7849 3.86048 57.1737C4.47116 58.5333 5.03062 59.9191 5.71048 61.2433C6.16618 62.1309 6.70425 63.0076 7.35614 63.7588C15.7434 73.4233 24.6326 82.6986 30.7546 94.1083C30.922 94.4202 31.4568 94.5356 31.8203 94.7426C31.7868 94.3165 31.9077 93.7824 31.6961 93.4811C29.6603 90.5832 31.7292 89.9155 33.9226 89.3359C55.312 83.6831 77.1794 80.6086 98.9538 76.9102C147.108 68.7312 195.633 63.7258 244.175 58.7669C283.866 54.7122 323.577 50.8473 363.26 46.7228C396.117 43.3079 429.006 40.099 461.757 35.8459C474.419 34.2015 486.206 35.8195 498.063 39.4145C498.862 39.6569 499.501 40.4245 500.215 40.9478C499.478 41.2258 498.762 41.6431 498 41.7585C493.955 42.371 489.912 43.2711 485.845 43.4119C458.973 44.3427 432.357 48.1164 405.669 50.885C382.11 53.3289 358.63 56.5041 334.996 58.3629C309.228 60.3896 283.428 62.28 257.761 65.2532C229.313 68.5486 200.827 71.5231 172.277 73.3596C133.093 75.8801 94.5013 81.9805 56.0881 89.6593C54.9581 89.8852 53.606 90.8955 52.7268 89.6652C52.5075 89.3582 53.872 87.9383 54.4865 87.0153C54.8011 86.5427 55.0672 86.0378 55.3551 85.5475C54.7731 85.8264 53.8735 85.9544 53.6578 86.4073C51.2249 91.5149 46.109 91.6476 41.6484 92.9721C39.4292 93.6311 37.1609 94.1259 34.9451 94.7948C34.2623 95.0008 33.6794 95.5364 33.0508 95.9211C33.7306 95.9042 34.4437 96.0163 35.0854 95.8515C52.8945 91.2764 70.8364 87.3952 89 84.4254C121.178 79.1642 153.483 74.9811 186.042 73.2626C215.968 71.683 245.569 66.9584 275.434 64.8089C297.521 63.2192 319.52 60.3591 341.613 58.9177C371.291 56.9815 400.66 52.3648 430.236 49.535C461.717 46.523 493.146 43.1831 524.744 41.5134C532.28 41.1152 539.85 42.5559 547.35 40.8253C549.091 40.4236 551.651 40.3711 552.358 42.2832C555.848 51.7247 564 57.1394 570.548 63.9406C570.74 64.1402 570.927 64.3447 571.116 64.5469C570.756 64.62 570.398 64.7356 570.034 64.76C542.324 66.6134 514.574 67.9999 486.915 70.428C455.523 73.1838 424.055 73.999 392.607 75.3462C355.301 76.9443 318.376 82.3101 281.416 86.9578C246.808 91.31 212.405 97.4059 178.009 103.304C138.145 110.14 97.4219 111.144 58.0348 121.121C57.4305 121.275 56.6018 121.677 56.3632 120.573C54.2281 110.694 45.2591 105.334 40.6956 97.0422C39.8747 95.5507 38.0561 95.5389 36.6374 96.7962C35.1049 98.1544 36.3924 99.0506 37.1944 100.071C42.0897 106.3 47.6417 112.044 51.3415 119.16C51.5574 119.576 52.0451 119.85 52.4063 120.19C52.3573 119.693 52.4322 119.142 52.2407 118.708C49.1114 111.608 43.2661 106.45 38.9396 100.203C38.352 99.3547 36.5654 98.6295 37.8924 97.4449C39.1241 96.3454 39.9826 97.9413 40.6044 98.7525C45.2888 104.864 49.8823 111.045 54.5276 117.187C55.798 118.866 55.9423 120.554 54.2388 121.872C52.5097 123.209 50.9734 122.652 49.7463 120.851C45.0571 113.969 40.3274 107.113 35.5869 100.265C35.2788 99.8204 34.7529 99.5256 34.3284 99.1609C34.4433 99.714 34.4345 100.334 34.6915 100.81C39.5141 109.756 46.1841 117.416 51.9915 125.679C62.1371 140.115 71.7752 154.907 81.9182 169.345C88.6978 178.995 96.7474 187.748 102.749 197.956C124.148 234.357 151.51 266.609 174.964 301.592C191.852 326.781 211.568 349.908 230.28 373.758C242.779 389.689 252.853 407.374 266.307 422.658C277.665 435.562 288.699 448.804 299.086 462.493C310.175 477.107 320.56 492.273 330.779 507.515C334.126 512.509 338.653 516.852 340.445 522.896C340.679 523.684 342.38 524.652 343.201 524.495C344.237 524.297 343.305 523.218 342.926 522.672C331.11 505.626 319.181 488.648 307.224 471.712C295.063 454.487 280.933 438.648 267.632 422.227C266.547 420.887 266.188 420.113 268.323 419.644C299.779 412.737 331.136 405.347 362.703 398.991C395.402 392.406 427.78 384.196 460.933 379.829C509.614 373.417 557.785 363.592 606.76 358.985C642.179 355.654 677.226 348.908 712.692 345.768C736.029 343.702 759.017 339.252 782.221 336.312C784.636 336.006 786.749 335.765 788.643 338.351C790.935 341.481 794.073 343.998 796.898 346.725C797.247 347.061 797.926 347.056 798.452 347.209C798.234 346.753 798.119 346.196 797.782 345.859C795.331 343.406 792.817 341.016 790.368 338.561C789.76 337.951 789.316 337.176 788.797 336.478C789.627 336.217 790.456 335.735 791.288 335.729C801.025 335.659 810.88 336.577 820.465 335.357C828.353 334.352 832.974 337.506 837.182 343.003C837.533 343.461 837.766 344.01 838.054 344.516C837.48 344.65 836.913 344.855 836.332 344.906C824.604 345.932 812.839 346.642 801.154 348.021C781.463 350.344 761.84 353.023 742.014 354.314C716.999 355.943 691.848 357.36 667.138 361.277C638.678 365.787 609.986 368.409 581.585 373.203C557.125 377.331 532.307 378.328 507.707 381.232C470.552 385.618 433.864 392.934 397.14 399.841C371.349 404.692 345.934 411.512 320.276 417.109C306.085 420.205 291.888 423.172 278.003 427.514C275.608 428.263 277.357 429.528 276.947 430.464C276.821 430.752 276.944 431.149 276.953 431.496C277.556 430.964 278.217 430.484 278.753 429.891C280.366 428.111 281.467 429.716 282.438 430.568C291.861 438.839 299.341 448.703 305.787 459.381C306.402 460.4 306.648 461.685 306.874 462.882C307.038 463.751 306.812 464.706 305.594 464.585C304.653 464.493 303.779 463.775 304.134 462.883C305.294 459.97 303.085 458.498 301.748 456.617C298.489 452.03 295.271 447.412 291.991 442.839C291.242 441.794 291.116 440.152 289.406 439.954C289.955 441.085 290.517 442.209 291.046 443.348C291.432 444.178 291.774 445.028 292.135 445.869C292.29 446.021 292.445 446.174 292.6 446.327C292.754 446.637 292.909 446.947 293.063 447.258C293.22 447.41 293.377 447.563 293.533 447.715C293.533 447.715 293.517 447.731 293.517 447.731C293.364 447.575 293.211 447.418 293.059 447.262C292.903 446.954 292.747 446.645 292.591 446.337C292.438 446.182 292.285 446.027 292.131 445.872C288.723 441.302 285.328 436.721 281.886 432.177C281.564 431.751 280.943 431.552 280.461 431.247C280.651 431.764 280.748 432.342 281.043 432.789C288.121 443.497 296.766 453.101 303.248 464.241C303.8 465.189 305.731 466.351 306.41 466.048C311.152 463.93 316.377 463.998 321.212 462.491C346.742 454.536 372.609 447.808 398.807 442.557C423.7 437.567 448.849 433.856 473.779 429.035C532.641 417.653 592.015 409.455 651.295 400.773C673.448 397.528 696.127 397.933 718.338 394.598C748.201 390.114 778.224 387.25 808.237 384.125C827.426 382.128 846.89 384.598 865.884 380.183C866.5 380.04 867.093 379.796 867.697 379.599C866.981 379.521 866.213 379.232 865.556 379.394C853.939 382.264 842.048 381.431 830.275 381.875C804.646 382.841 779.167 385.655 753.73 388.497C736.039 390.473 718.494 393.931 700.717 395.449C684.496 396.835 668.14 397.19 652.054 399.477C608.637 405.65 565.341 412.667 521.98 419.234C503.256 422.07 484.82 426.533 466.153 429.469C430.274 435.113 394.632 441.787 359.395 450.539C343.816 454.409 328.399 458.923 312.879 463.036C311.458 463.413 309.395 464.852 308.364 462.623C302.537 450.028 293.962 439.546 283.733 430.326C281.694 428.488 281.511 427.523 284.488 426.701C295.883 423.556 307.385 420.93 318.957 418.489C348.122 412.336 376.854 404.248 406.292 399.265C428.683 395.474 450.949 390.952 473.332 387.107C512.384 380.398 552.003 378.353 591.256 373.059C628.394 368.05 665.375 361.796 702.857 358.918C745.37 355.654 787.873 351.704 830.168 345.992C832.76 345.642 836.645 344.374 835.319 349.902C835.027 351.121 835.671 353.025 836.56 353.995C844.741 362.917 853.356 371.38 863.8 377.715C864.862 378.359 866.166 378.636 867.249 377.617C867.534 377.348 867.562 376.806 867.707 376.389C866.942 376.613 866.148 377.086 865.42 377C864.459 376.886 863.388 376.535 862.647 375.936C859.299 373.231 856.051 370.402 852.768 367.618ZM852.768 367.618C852.613 367.464 852.458 367.31 852.304 367.155C852.149 367.001 851.995 366.846 851.84 366.692C851.685 366.538 851.531 366.383 843.832 357.827M843.832 357.827C836.391 350.004 836.404 350.483 836.561 350.909C838.864 357.191 845.045 360.06 848.992 364.905C849.524 365.559 850.569 365.798 851.376 366.229C850.847 365.475 850.367 364.682 849.782 363.975C845.582 358.898 838.859 355.918 837.123 348.786C837.078 348.6 836.874 348.453 836.744 348.287C836.581 348.695 836.417 349.103 843.832 357.827ZM297.689 453.753L297.708 453.734M623.233 118.501L623.219 118.515L623.689 118.973C628.682 125.101 634.268 130.637 640.381 135.647C640.534 135.801 640.688 135.955 640.841 136.108C640.995 136.263 641.15 136.417 641.304 136.571C641.458 136.726 641.612 136.881 641.766 137.036C641.919 137.191 642.072 137.346 642.226 137.5C642.378 137.655 642.531 137.81 642.683 137.965C642.683 137.965 642.712 137.936 642.713 137.936C642.557 137.784 642.402 137.631 642.247 137.479C642.092 137.326 641.937 137.173 641.782 137.02C641.627 136.867 641.472 136.713 641.317 136.559C641.162 136.405 641.007 136.251 640.853 136.097C640.699 135.944 640.545 135.79 640.391 135.637C635.66 129.247 629.371 124.412 623.691 118.97C623.539 118.814 623.386 118.657 623.233 118.501ZM649.67 145.348C649.67 145.348 649.642 145.376 649.642 145.376C649.799 145.528 649.957 145.68 650.114 145.833L650.584 146.292C651.063 147.237 650.479 148.728 652.015 149.115C652.263 149.178 652.569 149.016 652.848 148.958C652.094 148.068 651.341 147.178 650.588 146.288C650.435 146.131 650.281 145.975 650.128 145.818C649.975 145.662 649.823 145.505 649.67 145.348ZM96.913 180.084C96.913 180.084 96.8998 180.097 96.8998 180.097C97.053 180.252 97.2062 180.407 97.3595 180.561C97.5131 180.716 97.6667 180.871 97.8203 181.026C97.9737 181.18 98.1272 181.335 98.2806 181.49C98.2806 181.49 98.3071 181.464 98.3071 181.464C98.1522 181.311 97.9972 181.157 97.8422 181.004C97.6872 180.851 97.5322 180.697 97.3772 180.544C97.2224 180.391 97.0678 180.238 96.913 180.084ZM797.575 299.105C797.575 299.105 797.6 299.08 797.6 299.08C797.447 298.926 797.293 298.772 797.14 298.618C796.984 298.464 796.829 298.309 796.674 298.155C796.078 297.503 795.664 296.461 794.485 296.967C794.194 297.092 794.032 297.516 793.811 297.802C794.758 297.927 795.704 298.053 796.65 298.178C796.804 298.333 796.959 298.489 797.113 298.644C797.267 298.798 797.421 298.951 797.575 299.105ZM690.006 189.347C690.006 189.347 689.997 189.356 689.997 189.356C690.153 189.51 690.308 189.663 690.464 189.816C690.79 191.926 689.639 191.287 688.868 190.543C687.338 189.064 686 187.389 684.524 185.851C680.684 181.852 676.798 177.896 672.968 173.886C672.409 173.3 671.757 172.528 672.641 171.704C672.768 171.586 673.503 171.817 673.649 172.065C676.943 177.706 681.877 181.831 686.618 186.133C686.822 186.319 687.156 186.362 687.429 186.471C687.337 186.074 687.367 185.579 687.136 185.294C683.12 180.339 679.111 175.377 675.005 170.497C673.891 169.172 672.254 167.962 670.601 169.343C668.665 170.962 670.485 172.465 671.453 173.683C676.763 180.366 682.119 187.014 687.566 193.585C689.375 195.768 692.093 196.141 694.763 196.239C696.099 196.288 695.941 195.579 695.231 194.828C693.647 193.153 692.055 191.484 690.467 189.813C690.313 189.658 690.16 189.502 690.006 189.347ZM13.4386 68.5011C13.2846 68.3465 13.1306 68.192 12.9765 68.0374C12.6388 67.573 12.3016 67.1083 11.9564 66.6496C11.9529 66.6449 11.8443 66.7193 11.7847 66.7567C12.181 67.1846 12.5773 67.6124 12.9736 68.0403C13.1284 68.1941 13.2832 68.348 13.438 68.5018C13.5925 68.6561 13.7471 68.8104 13.9017 68.9648C14.207 69.4337 14.5122 69.9026 14.8177 70.3717L14.8455 70.3437C14.5311 69.8839 14.2167 69.424 13.9023 68.9642C13.7478 68.8098 13.5932 68.6555 13.4386 68.5011ZM722.935 231.475L722.912 231.498C723.071 231.649 723.23 231.8 723.389 231.951C724.232 233.022 724.99 234.174 725.937 235.143C727.324 236.562 728.942 237.672 731.002 237.918C729.705 236.81 728.442 235.659 727.103 234.605C725.909 233.665 724.631 232.83 723.391 231.949C723.239 231.791 723.087 231.633 722.935 231.475ZM137.705 241.233C137.854 241.383 138.003 241.533 138.151 241.683C138.312 241.842 138.472 242 138.633 242.158L138.665 242.126C138.506 241.967 138.347 241.807 138.188 241.648C138.037 241.499 137.886 241.35 137.736 241.202C137.736 241.202 137.705 241.234 137.705 241.233ZM135.403 237.035L135.387 237.051C135.543 237.359 135.699 237.667 135.855 237.975C136.009 238.283 136.163 238.591 136.316 238.899C136.47 239.212 136.623 239.526 136.776 239.839L136.804 239.812C136.647 239.503 136.49 239.194 136.333 238.885C136.176 238.58 136.02 238.274 135.864 237.968C135.71 237.657 135.557 237.346 135.403 237.035ZM59.8107 131.937C59.8529 131.903 59.8951 131.869 59.9374 131.834C59.8946 131.868 59.8519 131.902 59.8092 131.936C59.6539 132.089 59.4986 132.241 59.3433 132.394C59.0437 132.387 58.7441 132.38 58.4445 132.373C59.764 128.021 63.233 131.008 65.5704 130.518C78.1085 127.89 90.7316 125.649 103.359 123.467C144.077 116.43 184.909 110.176 225.942 105.212C246.248 102.756 266.395 98.7706 286.745 96.9378C328.701 93.1594 370.797 91.1462 412.678 86.2345C441.708 82.8299 470.895 80.7051 500.042 78.3828C505.228 77.9696 504.559 74.4999 504.197 72.0257C503.696 68.5947 500.516 70.7169 498.652 70.8675C461.261 73.8872 423.783 75.17 386.323 76.8851C350.047 78.546 314.101 83.8293 278.141 88.4368C243.082 92.929 208.295 99.5054 173.333 104.799C151.812 108.057 130.206 110.773 108.604 113.458C90.2792 115.735 71.9498 117.846 54.2558 123.497C52.9273 123.921 52.5081 124.318 53.3787 125.509C55.059 127.808 56.7299 130.114 58.4047 132.417C65.6677 143.113 72.9305 153.808 80.1939 164.504C80.7564 165.332 81.4526 165.294 82.1778 164.761C83.0342 164.131 82.4639 163.605 82.0482 163.027C79.7098 159.777 77.3386 156.55 75.0785 153.246C70.1579 146.054 65.7836 138.456 59.3517 132.403C59.5047 132.247 59.6577 132.092 59.8107 131.937ZM115.45 205.104L115.465 205.089C115.427 205.049 115.389 205.009 115.35 204.969C115.383 205.014 115.416 205.059 115.45 205.104ZM116.388 206.479L116.378 206.488L116.846 207.411C116.8 208.387 118.329 209.426 116.953 210.197C116.66 210.361 115.327 209.083 114.751 208.273C109.087 200.307 103.497 192.29 97.8379 184.321C97.3248 183.598 96.8034 182.092 95.6775 182.818C94.3948 183.644 95.3079 184.856 95.9556 185.839C100.962 193.436 106.018 201.003 110.945 208.651C113.458 212.552 113.353 212.62 115.8 212.062C119.348 211.254 119.526 210.465 116.849 207.408C116.696 207.098 116.542 206.788 116.388 206.479ZM140.497 244.916C141.004 245.747 141.512 246.578 142.019 247.41C142.151 247.306 142.283 247.203 142.416 247.1C141.776 246.372 141.137 245.644 140.497 244.916ZM134.462 235.664L134.478 235.648C134.09 233.424 132.235 232.376 130.762 231.021L130.755 231.028C131.99 232.573 133.226 234.119 134.462 235.664ZM819.853 330.559C819.853 330.559 819.823 330.588 819.823 330.589C820.448 331.156 821.041 331.764 821.703 332.284C822.988 333.293 824.288 334.358 826.058 333.263C825.222 332.189 824.586 330.696 823.486 330.168C822.554 329.72 821.085 330.386 819.853 330.559ZM27.8102 79.6187L27.8184 79.6105C25.5289 74.1784 21.8625 69.6782 18.0768 65.2586L18.0739 65.2616C20.4865 70.6104 24.0256 75.1975 27.8102 79.6187ZM587.985 77.3003L587.985 77.2981C587.38 75.4794 585.866 74.9134 584.2 74.8104C583.694 74.7791 582.795 75.3801 582.675 75.8457C582.25 77.487 583.702 78.2686 584.629 79.2309C585.694 80.3361 586.862 81.3428 591.712 85.8438C590.41 84.6228 589.292 83.574 588.173 82.5252C588.163 82.6253 588.104 82.7685 588.15 82.819C589.116 83.8973 590.089 84.9689 591.081 86.0236C591.126 86.072 591.353 85.9507 587.985 82.3924C587.529 81.5304 587.063 80.6736 586.62 79.8049C586.127 78.836 585.655 77.8562 585.174 76.8811C586.111 77.0208 587.048 77.1606 587.985 77.3003ZM760.498 268.051L760.472 268.077C764.351 272.828 767.029 278.698 773.005 281.497C775.112 283.807 776.877 286.505 780.141 287.464C780.907 287.69 782.042 286.857 782.435 288.208C781.489 288.295 780.358 288.761 779.626 288.407C774.854 286.097 771.052 282.403 767.437 278.708C760.673 271.796 755.886 263.348 750.474 255.399C749.647 254.183 748.652 254.152 747.461 254.353C721.402 258.744 695.02 260.481 668.741 262.163C642.845 263.821 617.095 266.58 591.347 269.359C559.201 272.829 527.231 277.942 495.074 281.287C455.357 285.418 415.743 290.332 376.303 296.395C344.032 301.356 311.986 307.81 279.891 313.865C257.056 318.172 234.299 322.894 211.53 327.542C210.558 327.74 207.537 327.337 208.883 329.487C212.141 334.69 215.997 339.53 219.749 344.41C223.827 349.712 228.284 354.827 230.313 361.3C230.979 363.423 231.424 363.744 233.3 363.052C252.353 356.022 272.364 352.631 292.102 348.506C346.226 337.196 400.656 327.372 455.507 320.288C484.233 316.578 512.517 310.349 541.299 306.941C569.264 303.631 596.921 297.66 624.905 294.594C667.418 289.937 710.135 287.7 752.953 289.382C764.896 289.852 776.828 290.611 788.765 291.238L789.208 291.691C788.741 291.868 788.268 292.216 787.808 292.199C767.224 291.437 746.646 290.495 726.058 289.896C704.888 289.279 683.801 291.509 662.674 292.338C647.579 292.931 632.292 293.488 617.512 296.284C573.934 304.526 529.792 308.957 486.146 316.825C458.169 321.868 429.724 324.656 401.654 329.438C345.351 339.031 288.919 348.099 233.903 363.974C225.892 366.286 226.021 366.075 230.915 372.755C241.445 387.125 251.821 401.608 262.201 416.088C264.15 418.806 266.008 420.071 268.529 416.808C270.327 414.482 268.6 412.724 267.505 410.967C260.782 400.177 250.978 391.558 245.488 379.879C245.142 379.143 244.074 378.745 243.342 378.189C243.421 379.219 243.144 380.475 243.634 381.242C248.445 388.763 252.057 397.157 258.485 403.495C261.272 406.242 261.201 411.718 266.624 412.059C267.085 412.088 267.457 414.216 267.765 415.397C267.826 415.627 267.402 415.984 267.202 416.282C266.318 415.608 265.228 415.088 264.583 414.235C256.858 404.019 249.206 393.749 241.511 383.511C240.809 382.578 241.038 382.004 241.469 380.921C242.127 379.266 242.008 377.271 241.995 375.422C241.994 375.174 240.478 374.544 240.039 374.782C239.359 375.15 238.928 376.075 238.528 376.835C238.097 377.656 237.822 378.558 237.479 379.425C237.437 378.499 237.378 377.573 237.357 376.647C237.345 376.108 237.394 375.568 237.416 375.028L237.413 375.025C236.701 375.019 235.99 375.012 235.278 375.006C236.47 374.436 237.606 373.599 238.863 373.334C261.754 368.521 284.645 363.702 307.566 359.033C342.14 351.991 376.663 344.834 411.668 339.922C448.823 334.707 485.886 329.027 523.29 325.731C556.964 322.763 590.464 318.257 623.958 313.632C645.403 310.67 667.103 309.312 688.734 307.998C708.146 306.819 727.493 305.453 746.785 302.846C760.216 301.031 773.816 300.476 787.337 299.324C789.764 299.117 792.735 299.228 793.157 296.034C793.481 293.585 790.457 293.234 789.246 291.655L788.794 291.209C778.897 280.093 768.999 268.977 759.102 257.861C757.562 256.503 755.7 253.118 754.592 254.199C752.766 255.981 754.375 258.914 756.009 261.016C756.103 261.138 756.188 261.27 756.295 261.38C763.542 268.909 770.789 276.439 778.051 283.954C778.282 284.194 778.664 284.289 778.975 284.452C778.759 284.082 778.593 283.668 778.319 283.347C771.978 275.901 765.6 268.486 759.313 260.996C758.659 260.217 757.066 259.098 759.06 257.92C759.795 259.165 760.365 260.55 761.291 261.633C767.376 268.745 773.545 275.786 779.663 282.871C780.345 283.66 781.343 284.662 780.316 285.664C779.369 286.587 778.281 285.781 777.431 285.118C775.928 283.946 774.48 282.705 773.009 281.493C768.839 277.012 764.669 272.532 760.498 268.051ZM879.667 392.629C883.967 396.907 888.25 401.201 892.57 405.458C897.499 410.316 902.424 415.181 907.441 419.947C908.344 420.804 909.934 421.676 910.938 420.413C912.091 418.96 910.225 418.331 909.413 417.613C902.202 411.239 895.101 404.724 887.608 398.695C885.032 396.623 883.701 392.775 879.657 392.618C879.504 392.773 879.351 392.928 879.198 393.083C878.126 395.656 880.005 397.163 881.401 398.703C886.941 404.813 892.711 410.721 898.109 416.952C900.495 419.707 903.122 421.695 906.618 422.528C907.155 422.656 907.79 422.377 908.379 422.287C908.255 422.052 908.192 421.735 907.999 421.594C899.722 415.536 893.4 407.438 885.964 400.501C883.525 398.225 880.681 396.258 879.202 393.086C879.357 392.934 879.512 392.781 879.667 392.629ZM621.369 116.661L621.377 116.653C620.776 115.954 620.063 114.911 619.156 115.88C618.027 117.085 618.906 118.4 619.704 119.42C627.667 129.604 636.978 138.446 647.012 146.553C647.601 147.029 648.43 147.207 649.148 147.524C648.765 146.804 648.53 145.937 647.978 145.386C640.793 138.224 633.519 131.149 626.371 123.95C624.289 121.854 621.473 120.153 621.369 116.661ZM822.08 327.643C821.804 327.127 821.691 326.729 821.437 326.468C814.672 319.525 807.908 312.579 801.089 305.689C800.413 305.007 799.38 304.677 798.513 304.183C798.818 305.213 798.883 306.411 799.467 307.246C805.055 315.235 811.176 322.758 819.115 328.587C819.591 328.937 820.427 329.096 820.985 328.944C821.438 328.82 821.726 328.093 822.08 327.643ZM125.66 230.559C125.613 229.922 125.565 229.284 125.518 228.647C125.276 228.731 125.034 228.815 124.792 228.899C125.08 229.454 125.368 230.008 125.656 230.563C132.075 241.583 140.299 251.294 148.119 261.291C149.044 262.474 149.909 265.336 151.399 264.223C153.168 262.902 151.728 260.407 150.631 258.602C150.356 258.149 149.974 257.729 149.558 257.4C141.13 250.725 136.635 240.871 129.717 232.98C128.652 231.765 128.511 228.845 125.66 230.559ZM228.61 364.38C228.762 364.225 228.915 364.071 229.068 363.916C229.983 361.818 229.104 360.075 228.092 358.27C223.055 349.294 215.307 342.261 210.124 333.455C207.471 328.948 204.423 328.429 200.068 329.928C198.381 330.508 198.131 331.078 199.234 332.484C207.162 342.592 215.096 352.695 222.919 362.885C224.559 365.022 226.217 365.751 228.61 364.38ZM160.44 278.73C168.714 290.612 176.95 302.522 185.319 314.337C186.165 315.531 186.753 318.444 188.612 317.294C190.72 315.99 191.398 313.253 189.711 310.741C185.119 303.903 180.968 296.697 175.74 290.381C171.678 285.473 170.815 275.65 160.488 278.664C163.049 273.405 167.649 276.797 171.293 276.107C203.844 269.936 236.427 263.929 268.923 257.484C299.345 251.45 330.081 247.959 360.897 244.839C379.938 242.912 398.854 239.584 417.921 238.129C448.199 235.818 478.312 232.417 508.247 227.414C540.197 222.073 572.436 219.381 604.737 218.261C628.96 217.42 653.118 215.578 677.33 214.74C677.903 214.72 678.466 214.393 679.033 214.209C678.742 213.639 678.57 212.951 678.141 212.518C675.753 210.115 673.199 207.868 670.911 205.377C669.424 203.757 668.293 201.812 667.003 200.013C669.346 201.106 670.458 203.41 672.139 205.162C677.216 210.453 681.74 216.075 690.84 214.131C697.229 212.766 704.177 214.279 710.397 211.133L710.428 211.102C703.688 203.863 698.627 195.411 685.704 197.073C663.711 199.9 641.464 200.82 619.307 202.283C595.296 203.869 571.227 204.702 547.251 206.684C510.564 209.718 474.075 214.606 437.568 219.341C399.16 224.323 360.525 227.648 322.201 233.16C285.993 238.367 249.772 243.83 214.028 251.889C194.448 256.303 174.806 260.438 155.208 264.775C153.848 265.077 151.021 265.004 152.747 267.743C155.127 271.521 157.859 275.078 160.44 278.73ZM604.679 102.766C603.938 103.086 603.209 103.65 602.454 103.688C595.222 104.05 587.985 104.315 580.75 104.636C580.175 104.662 579.61 104.901 579.04 105.041C579.34 105.54 579.557 106.12 579.954 106.525C582.548 109.165 585.456 111.552 587.72 114.445C589.776 117.071 591.836 117.642 595.112 117.258C602.108 116.436 609.186 116.321 616.224 115.825C617.618 115.726 619.274 114.431 618.053 113.37C613.765 109.646 612.426 102.096 604.679 102.765C597.887 95.3034 591.193 87.7503 584.251 80.4313C581.959 78.0157 580.889 74.1653 575.758 74.9192C567.391 76.1486 558.863 76.3093 550.397 76.8379C531.611 78.011 512.779 78.1933 494.018 80.0234C469.22 82.4423 444.362 84.2459 419.553 86.5663C396.812 88.6932 374.152 92.0764 351.37 93.272C307.995 95.5483 264.964 100.569 222.029 106.785C197.65 110.315 173.246 113.667 148.864 117.177C121.494 121.116 94.2278 125.678 67.1268 131.189C66.0989 131.398 64.7141 131.521 65.8732 133.197C68.1957 136.555 70.5644 139.884 72.7843 143.309C76.6702 149.305 80.6945 155.233 84.1393 161.477C85.1355 163.282 85.5573 163.907 87.53 163.466C97.6227 161.21 107.674 158.684 117.859 156.94C146.093 152.107 174.404 147.719 202.652 142.958C230.672 138.235 258.63 133.179 286.948 130.42C345.934 124.673 404.895 118.665 463.886 112.973C485.693 110.869 507.561 109.406 529.392 107.551C554.455 105.422 579.49 102.904 604.679 102.766ZM718.762 219.437L718.742 219.457C722.525 226.746 729.49 231.452 733.97 238.173C734.323 238.703 734.496 239.353 734.753 239.948C734.089 239.972 733.372 240.175 732.772 239.993C729.337 238.95 725.915 237.63 723.707 234.704C718.849 228.266 712.623 222.878 708.932 215.551C708.314 214.323 707.401 214.135 706.078 214.209C677.27 215.832 648.476 217.93 619.644 218.846C582.03 220.041 544.527 222.329 507.443 228.784C461.587 236.767 415.038 238.461 369.013 244.849C349.831 247.511 330.514 249.19 311.273 251.448C285.615 254.459 260.563 260.856 235.143 265.221C213.985 268.853 192.957 273.234 171.828 277.042C168.386 277.662 168.873 278.338 170.48 280.598C177.046 289.834 183.475 299.167 189.866 308.525C190.974 310.148 192.197 311.914 191.852 314.068C191.569 315.833 192.289 315.858 193.635 315.435C198.633 313.864 203.649 312.352 208.652 310.798C226.822 305.155 245.578 301.973 264.03 297.524C291.998 290.78 320.478 286.787 348.691 281.431C375.95 276.256 403.715 273.739 431.257 270.048C466.081 265.381 500.516 258.359 535.366 253.671C581.781 247.429 628.393 245.847 675.049 244.592C696.602 244.013 717.994 241.562 739.503 240.71C739.909 240.694 740.305 240.408 740.705 240.249C740.488 239.95 740.313 239.606 740.049 239.358C732.959 232.712 725.86 226.075 718.762 219.437ZM801.473 334.298C807.491 334.298 813.509 334.308 819.527 334.28C820.097 334.278 820.666 334.033 821.235 333.9C820.867 333.431 820.557 332.901 820.125 332.503C810.616 323.742 802.079 314.168 795.156 303.201C794.122 301.563 792.92 299.792 790.437 300.04C784.759 300.608 779.085 301.284 773.392 301.627C754.346 302.775 735.512 306.405 716.553 307.568C679.651 309.832 642.872 312.406 606.176 317.36C563.134 323.17 519.732 326.283 476.641 331.781C427.322 338.073 378.071 345.025 329.406 355.542C301.478 361.578 273.437 367.092 245.44 372.802C243.413 373.216 242.551 373.326 243.954 375.848C250.886 388.318 260.624 398.762 268.597 410.469C269.876 412.347 270.932 414.274 270.056 416.484C269.173 418.712 270.177 418.319 271.622 417.996C300.935 411.435 330.184 404.558 359.591 398.44C401.164 389.79 442.667 380.873 484.805 375.006C530.447 368.65 575.844 360.607 621.728 355.883C658.808 352.066 695.585 345.783 732.743 342.388C755.682 340.292 778.207 334.196 801.473 334.298ZM659.47 167.428C635.908 169.502 611.038 169.311 586.269 171.633C557.315 174.348 528.287 176.304 499.271 178.318C466.929 180.561 434.846 185.29 402.509 187.739C357.559 191.144 312.765 196.457 268.259 203.664C240.668 208.132 213.389 214.531 185.791 218.943C168.582 221.693 151.245 223.733 134.095 226.942C133.233 227.103 130.873 226.732 132.129 228.839C134.612 233.003 137.515 236.917 140.061 241.046C144.455 248.172 150.565 254.237 153.334 262.363C153.807 263.753 154.66 263.745 155.878 263.485C191.819 255.814 227.534 247.03 263.882 241.349C300.415 235.639 336.841 229.493 373.739 225.988C417.441 221.838 460.932 215.462 504.51 210.017C541.752 205.364 579.209 203.545 616.641 201.316C638.816 199.995 660.96 198.132 683.116 196.489C684.538 196.384 685.945 196.071 687.359 195.855C686.513 194.508 685.788 193.065 684.8 191.831C679.693 185.456 672.571 179.836 669.954 172.584C667.649 166.197 664.373 168.009 659.47 167.428ZM634.674 149.703C638.215 149.488 641.757 149.281 645.298 149.048C645.967 149.004 646.63 148.857 647.296 148.757C646.832 148.194 646.46 147.51 645.892 147.087C637.181 140.603 630.053 132.499 622.517 124.785C619.51 121.707 618.6 115.906 612.171 116.632C597.689 118.268 583.175 119.66 568.656 120.942C535.227 123.895 501.82 127.204 468.343 129.465C436.145 131.64 404.011 134.437 371.987 138.223C326.682 143.579 281.433 149.449 236.235 155.648C191.35 161.804 146.116 165.888 102.037 177.126C99.6894 177.724 99.3166 178.586 100.756 180.371C108.435 189.896 114.546 200.401 120.095 211.252C120.63 212.296 121.26 212.255 122.162 212.029C159.954 202.585 198.358 196.188 236.638 189.195C270.55 182.999 304.922 180.395 339.113 176.372C362.651 173.603 386.15 170.496 409.67 167.573C444.198 163.283 478.96 161.518 513.45 156.319C553.524 150.279 594.081 148.683 634.674 149.703ZM531.723 30.51C534.581 30.51 537.44 30.4881 540.297 30.5323C540.757 30.5395 541.212 30.8422 541.669 31.0083C541.195 31.1601 540.725 31.4311 540.247 31.4457C534.538 31.6202 528.826 31.7237 523.117 31.9177C520.545 32.0051 517.978 32.2532 515.409 32.4285C516.907 34.2554 518.439 36.0568 519.879 37.9287C520.205 38.3516 520.211 39.0193 520.364 39.5744C519.916 39.2564 519.42 38.9884 519.028 38.6125C516.532 36.222 515.059 32.0828 511.086 32.1032C503.771 32.1406 496.457 32.8351 489.147 33.3268C487.471 33.4396 485.815 33.8408 484.149 34.1093C485.652 34.6886 487.122 35.3789 488.663 35.8277C494.565 37.5468 500.454 40.437 506.413 40.6102C520.719 41.0261 535.063 40.1662 549.39 39.7764C550.621 39.7429 552.242 41.2073 552.979 39.687C553.787 38.0213 551.812 37.1289 550.792 36.3229C546.984 33.3141 545.581 27.7739 538.604 27.867C535.215 27.9122 531.595 22.6079 528.383 19.421C526.554 17.607 522.977 15.5615 525.016 12.675C526.883 10.0331 524.752 10.3508 523.855 10.0655C522.651 9.68268 521.267 9.76075 519.966 9.7984C501.908 10.3207 483.957 12.2106 465.969 13.7546C431.072 16.7502 396.129 19.2226 361.199 21.8269C325.733 24.4711 290.25 26.9054 254.79 29.633C225.632 31.8759 196.474 34.1658 167.432 37.6971C145.973 40.3063 124.538 43.189 103.025 45.25C73.7778 48.0521 44.854 52.8141 16.0021 58.1586C15.3909 58.2719 14.1405 58.1312 15.2329 59.4573C16.7965 61.3555 18.2886 63.3166 19.735 65.306C24.6808 72.1088 30.6548 78.3562 31.6079 87.323C31.7986 89.1173 33.1719 88.4782 34.1176 88.1768C48.0131 83.7481 62.4415 81.5907 76.7287 79.285C120.704 72.188 164.728 65.3704 209.146 61.3619C245.118 58.1157 280.981 53.6279 316.968 50.5856C356.355 47.2559 395.487 41.7332 434.822 37.9803C467.086 34.9021 499.193 30.0668 531.723 30.51ZM208.737 327.218C216.995 325.355 226.209 323.043 235.519 321.216C273.03 313.857 310.754 307.615 348.292 300.46C376.256 295.13 404.365 291.201 432.536 287.572C474.943 282.109 517.424 277.224 559.877 272.114C585.391 269.043 610.838 264.962 636.443 263.214C672.165 260.776 707.833 257.99 743.407 254.003C745.688 253.748 748.722 254.39 750.264 251.801C751.786 249.245 745.151 242.239 741.235 242.139C726.833 241.769 712.613 244.279 698.281 244.863C671.524 245.953 644.762 247.268 617.992 247.55C584.123 247.908 550.814 253.417 517.34 257.333C479.307 261.782 441.978 270.92 403.761 274.474C369.983 277.616 336.735 284.571 303.435 290.778C265.758 297.802 228.005 304.811 191.643 317.457C189.964 318.041 188.716 318.9 190.132 320.807C192.013 323.343 193.989 325.81 195.933 328.3C196.546 329.083 197.876 329.874 198.228 329.079C200.532 323.874 204.333 326.778 208.737 327.218ZM616.664 150.263C598.707 150.944 578.792 151.398 558.914 152.521C526.678 154.34 494.983 161.027 462.808 163.556C427.32 166.345 392.025 170.875 356.72 175.382C327.016 179.175 297.152 181.717 267.454 185.55C232.433 190.07 197.877 197.417 163.194 203.956C148.091 206.804 133.1 210.149 118.342 214.46C117.135 214.813 115.234 215.001 116.369 217.378C119.507 223.95 123.802 227.819 131.863 226.276C149.457 222.907 167.157 220.239 184.962 218.075C214.803 214.448 243.796 206.135 273.568 201.746C316.363 195.437 359.257 190.165 402.341 186.694C444.184 183.323 485.794 177.683 527.73 175.147C562.451 173.047 597.051 168.996 631.861 168.008C632.434 167.992 633 167.743 633.57 167.602C633.26 167.105 633.034 166.52 632.626 166.123C628.421 162.038 624.175 157.995 619.976 153.904C619.499 153.44 619.237 152.756 618.876 152.174C619.553 152.486 620.373 152.649 620.884 153.135C623.793 155.902 626.345 159.137 629.564 161.458C632.996 163.933 634.587 168.799 640.816 167.868C649.995 166.496 659.419 166.769 668.739 166.327C669.156 166.307 669.566 166.147 669.98 166.051C669.736 165.601 669.58 165.066 669.236 164.714C665.95 161.355 662.405 158.218 659.402 154.627C657.268 152.075 655.003 150.295 651.667 150.281C640.649 150.235 629.632 150.263 616.664 150.263ZM575.548 104.646C559.728 106.038 544.067 107.675 528.368 108.739C500.881 110.6 473.455 113.063 446.051 115.862C420.873 118.434 395.661 120.668 370.473 123.137C338.296 126.291 306.07 129.047 273.974 132.876C243.842 136.471 214.051 142.517 184.062 147.113C151.07 152.168 118.163 157.482 85.6212 164.921C82.4718 165.641 81.0124 166.902 83.6411 169.98C86.0442 172.795 88.2277 175.795 90.5651 178.667C90.8742 179.047 91.5209 179.152 92.0113 179.385C92.2976 174.059 96.0249 177.659 98.1159 177.067C132.442 167.351 167.865 163.794 203.014 158.882C244.293 153.115 285.73 148.486 327.04 142.93C353.824 139.328 380.614 135.811 407.524 133.388C434.029 131.002 460.634 129.684 487.112 127.054C520.198 123.767 553.465 122.483 586.436 117.996C587.07 117.91 587.671 117.575 588.287 117.356C588.057 116.805 587.965 116.12 587.577 115.725C584.064 112.157 580.511 108.626 576.926 105.129C576.589 104.801 575.951 104.779 575.548 104.646ZM541.215 67.7901C529.152 68.7253 518.458 69.4595 507.787 70.4359C504.307 70.7543 505.601 74.0238 505.189 76.0245C504.818 77.8251 506.517 77.7502 507.756 77.6825C532.69 76.321 557.623 74.9471 582.555 73.5588C583.065 73.5304 583.564 73.3011 584.068 73.1656C583.957 72.7583 583.981 72.1491 583.716 71.9742C580.037 69.5401 578.851 63.6845 572.038 65.4767C565.729 67.1362 558.871 66.653 552.281 67.3532C550.819 67.5085 548.209 66.7263 548.067 68.3641C547.952 69.6923 550.047 71.2375 551.22 72.6385C551.71 73.224 552.348 73.6855 552.919 74.2034C552.042 73.875 550.91 73.7878 550.33 73.1774C547.45 70.1473 545.127 66.1498 541.215 67.7901ZM573.679 62.8341C573.541 62.5418 573.489 62.3939 573.407 62.2654C568.713 54.9095 563.481 48.0021 556.637 42.4716C556.159 42.0853 555.334 42.1275 554.67 41.9704C554.703 42.5142 554.695 43.064 554.775 43.6008C555.231 46.6614 558.103 47.8836 559.808 49.973C563.462 54.4507 567.452 58.6582 571.378 62.9087C571.765 63.3283 572.656 63.3105 573.326 63.4147C573.423 63.4297 573.591 62.9863 573.679 62.8341ZM26.568 84.1458C27.9809 83.4955 27.8442 82.4236 27.3119 81.6117C22.6471 74.4966 17.9203 67.4219 13.1847 60.3534C12.6287 59.5234 11.7502 59.041 10.789 59.6072C9.69312 60.2526 10.3896 61.1997 10.8037 61.8124C15.1794 68.287 19.6004 74.7314 24.0494 81.1561C24.7817 82.2137 25.7096 83.1362 26.568 84.1458ZM539.876 26.9103C540.06 24.8406 528.691 13.1287 526.776 13.2487C524.734 13.3766 525.766 14.6184 526.248 15.2973C529.59 19.9995 534.148 23.4539 538.573 27.0339C539.019 27.3948 539.716 27.7598 539.876 26.9103ZM63.3079 132.192C63.0193 132.396 62.5771 132.619 62.6024 132.707C62.7653 133.27 62.9431 133.865 63.2753 134.339C69.208 142.796 75.1578 151.24 81.1264 159.672C81.5408 160.257 82.1314 160.718 82.64 161.237C82.44 160.548 82.3978 159.753 82.0164 159.185C76.2233 150.556 70.39 141.954 64.5459 133.359C64.2557 132.932 63.7813 132.63 63.3079 132.192ZM712.536 216.79C712.796 217.851 712.733 218.91 713.233 219.431C717.488 223.872 721.844 228.216 726.18 232.58C726.324 232.725 726.575 232.764 726.777 232.853C726.647 232.538 726.571 232.185 726.38 231.912C722.89 226.908 717.399 223.285 716.057 216.754C715.891 215.947 714.37 215.417 713.477 214.758C713.148 215.469 712.819 216.181 712.536 216.79ZM816.814 319.535C816.5 317.427 801.509 301.481 799.683 301.231C799.293 301.177 798.811 301.359 798.478 301.587C798.371 301.66 798.493 302.422 798.703 302.548C805.793 306.807 809.661 314.331 815.907 319.435C816.136 319.623 816.414 319.751 816.669 319.907C816.736 319.735 816.803 319.562 816.814 319.535ZM589.439 80.2169C589.165 80.3174 588.803 80.4074 588.808 80.4548C588.842 80.7436 588.879 81.0959 589.06 81.2944C593.936 86.6339 598.823 91.964 603.743 97.2634C603.983 97.5221 604.539 97.4884 604.948 97.5908C604.817 97.1776 604.795 96.6727 604.538 96.3651C601.377 92.594 598.267 88.7759 594.961 85.1344C593.32 83.3264 591.305 81.8569 589.439 80.2169ZM102.24 184.356C101.083 185.096 99.7439 184.635 100.641 185.948C104.376 191.416 107.081 197.576 111.739 202.422C112.042 202.738 112.452 202.952 112.812 203.214C112.71 202.803 112.7 202.339 112.492 201.991C109.254 196.559 105.983 191.146 102.743 185.714C102.469 185.254 102.362 184.695 102.24 184.356ZM593.094 87.7111C593.221 88.3991 593.189 88.6585 593.303 88.7799C597.298 93.0155 601.291 97.2527 605.335 101.44C605.752 101.872 606.725 102.453 606.973 101.42C607.113 100.839 606.473 99.5681 605.943 99.4082C602.033 98.2295 600.026 94.9361 597.5 92.2039C596.2 90.7978 594.82 89.4655 593.094 87.7111ZM30.6944 87.0998C30.3384 85.4993 30.9015 84.0332 29.4063 83.2557C29.014 84.5833 28.4315 85.895 28.3181 87.2459C28.2691 87.8286 29.1905 88.4926 29.6711 89.1196C30.0571 88.3578 30.443 87.5959 30.6944 87.0998ZM11.1382 64.635C9.26216 62.6106 9.91051 59.9167 7.361 59.3969C7.18821 59.3617 6.61829 60.1479 6.68267 60.2405C7.75934 61.7893 8.88929 63.3032 10.071 64.7739C10.1795 64.9089 10.7206 64.6972 11.1382 64.635ZM201.854 326.933C201.505 327.222 201.102 327.555 200.7 327.889C201.127 328.06 201.576 328.412 201.976 328.364C202.771 328.27 203.539 327.954 204.318 327.73C203.587 327.494 202.856 327.257 201.854 326.933ZM752.242 256.099C752.452 255.291 752.647 254.959 752.593 254.675C752.412 253.728 753.783 252.618 752.325 251.861C752.175 251.783 751.439 252.316 751.463 252.502C751.597 253.531 751.883 254.54 752.242 256.099ZM711.966 215.4C711.573 214.93 711.222 214.51 710.871 214.09C710.604 214.345 710.069 214.744 710.116 214.83C710.419 215.39 710.848 215.883 711.236 216.398C711.433 216.128 711.631 215.858 711.966 215.4ZM93.6618 182.51C93.8449 181.907 94.0911 181.536 93.9968 181.303C93.8595 180.962 93.4772 180.72 93.1993 180.435C93.0255 180.717 92.6598 181.052 92.7206 181.267C92.8248 181.635 93.1959 181.927 93.6618 182.51ZM797.185 301.271C796.699 300.88 796.422 300.657 796.145 300.434C795.995 300.637 795.686 300.891 795.73 301.034C795.81 301.29 796.07 301.561 796.321 301.664C796.472 301.726 796.749 301.482 797.185 301.271ZM913.73 420.932C913.272 420.707 913.044 420.525 912.803 420.507C912.683 420.498 912.399 420.847 912.434 420.931C912.528 421.155 912.735 421.442 912.937 421.477C913.107 421.507 913.334 421.22 913.73 420.932ZM94.0334 178.319C94.2651 178.119 94.4103 177.994 94.5555 177.868C94.4128 177.744 94.2853 177.585 94.1199 177.512C94.0534 177.483 93.8062 177.65 93.8105 177.716C93.8218 177.888 93.927 178.054 94.0334 178.319ZM165.157 276.243C165.04 276.311 164.924 276.38 164.807 276.448C164.909 276.532 165.003 276.631 165.117 276.693C165.153 276.713 165.303 276.622 165.299 276.603C165.274 276.482 165.22 276.365 165.157 276.243ZM711.112 212.581C711.041 212.602 710.971 212.623 710.9 212.643C710.973 212.725 711.034 212.825 711.122 212.881C711.164 212.907 711.259 212.847 711.329 212.826C711.261 212.742 711.192 212.657 711.112 212.581ZM98.2537 178.467C98.1882 178.476 98.1226 178.485 98.057 178.494C98.0719 178.556 98.0687 178.65 98.1065 178.671C98.1522 178.697 98.2327 178.661 98.2981 178.652C98.2833 178.591 98.2685 178.529 98.2537 178.467ZM827.831 334.004C827.899 334.019 827.967 334.033 828.035 334.048C828.049 333.983 828.094 333.891 828.067 333.859C828.032 333.817 827.94 333.822 827.873 333.808L827.831 334.004Z" stroke="#FDF9F0" stroke-width="1.71502" stroke-miterlimit="10"/>
<path d="M836.538 463.466C851.747 460.897 867.02 458.654 882.147 455.672C898.727 452.404 915.158 448.386 931.69 444.865C934.699 444.224 938.106 443.333 937.807 448.956C936.888 466.248 936.596 483.576 935.569 500.861C935.318 505.084 930.516 505.609 927.283 506.416C917.646 508.823 907.881 510.726 898.164 512.816C896.75 513.12 896.481 514.088 896.352 515.369C894.083 537.967 891.776 560.561 889.462 583.155C889.403 583.732 889.165 584.292 889.01 584.859C888.827 584.262 888.433 583.644 888.492 583.071C889.731 571.039 891.087 559.019 892.283 546.983C893.326 536.485 894.184 525.968 895.168 515.464C895.327 513.763 894.503 513.401 893.103 513.64C855.868 519.991 817.876 520.51 780.776 527.501C738.429 535.481 695.54 538.726 652.869 543.856C629.121 546.711 605.297 549.708 581.433 550.556C565.198 551.133 549.415 554.079 533.393 555.507C500.671 558.425 468.22 563.228 435.877 568.739C424.921 570.606 413.968 572.498 402.979 574.166C400.541 574.537 399.428 575.817 399.317 578.126C398.08 603.903 394.933 629.602 396.09 655.473C396.185 657.605 395.291 658.581 393.54 658.277C386.982 657.138 380.95 660.151 374.589 660.408C374.084 660.429 373.574 660.329 373.066 660.285C373.513 659.972 373.959 659.39 374.408 659.387C380.339 659.352 385.87 656.098 391.977 657.289C393.442 657.575 394.786 657.161 394.693 654.914C393.613 628.885 396.967 603.056 398.341 577.136C398.43 575.47 398.026 575.142 396.447 575.362C385.796 576.849 375.285 578.971 364.946 581.947C363.07 582.487 363.121 583.662 363.298 585.16C366.119 609.032 368.918 632.906 371.702 656.782C371.747 657.168 371.551 657.582 371.467 657.983C371.242 657.451 370.877 656.935 370.811 656.384C368.831 639.779 366.898 623.168 364.917 606.563C364.023 599.075 363.058 591.595 362.087 584.116C361.818 582.043 360.217 582.858 359.182 583.071C353.131 584.317 347.093 585.635 341.074 587.028C339.468 587.4 338.122 587.225 337.104 585.95C327.55 573.992 318.64 561.629 310.287 548.75C299.273 531.768 286.783 515.739 274.873 499.34C264.452 484.991 254.116 470.576 243.444 456.415C234.49 444.535 224.742 433.241 215.992 421.219C201.433 401.214 187.684 380.62 173.054 360.669C157.876 339.972 141.062 320.409 126.786 299.131C111.216 275.926 92.6326 254.992 77.583 231.476C65.491 212.582 52.875 194.014 41.7942 174.485C41.2982 173.611 40.4559 172.932 39.7748 172.163C39.6529 173.126 39.4304 174.088 39.4255 175.052C39.396 180.917 39.3503 186.783 39.451 192.646C39.4924 195.058 38.5507 196.025 36.1565 195.86C30.3393 195.46 24.5162 195.147 18.6969 194.777C17.3777 194.693 16.7939 193.81 16.7321 192.606C15.7537 173.529 14.9662 154.441 13.7295 135.381C13.3134 128.97 7.82678 125.204 4.1352 120.569C3.5373 119.818 2.99087 119.027 2.42065 118.254C3.24917 118.81 4.14171 119.291 4.89634 119.933C12.8212 126.679 16.6001 136.482 22.95 144.45C34.3953 158.812 43.113 175.048 52.7208 190.672C62.2469 206.164 72.4071 221.272 82.4736 236.425C97.3995 258.894 114.288 279.976 130.278 301.656C150.818 329.504 172.193 356.801 192.046 385.136C209.534 410.097 227.672 434.497 246.321 458.584C260.572 476.99 273.139 496.703 287.538 514.984C302.212 533.613 314.098 554.098 328.28 573.01C331.268 576.995 334.503 580.795 337.641 584.667C337.81 584.875 338.137 584.955 338.391 585.095C338.581 584.469 338.861 583.855 338.947 583.215C341.3 565.623 340.118 547.936 340.293 530.287C340.326 527.022 340.55 525.543 344.663 525.819C370.01 527.515 394.49 521.007 419.341 517.75C466.337 511.592 512.968 502.908 560.108 497.795C605.478 492.873 650.624 486.096 695.951 480.92C736.562 476.283 777.281 472.577 817.82 467.22C828.745 465.776 837.862 461.142 846.866 455.004C856.049 448.744 866.674 444.66 875.346 437.445C875.687 437.161 876.281 437.182 876.758 437.062C876.372 437.558 876.061 438.143 875.59 438.539C867.008 445.75 856.857 450.389 847.228 455.903C843.457 458.062 840.089 460.922 836.537 463.463C836.537 463.463 836.538 463.466 836.538 463.466ZM356.584 526.908C353.029 526.908 349.461 527.098 345.924 526.851C342.713 526.627 341.663 527.644 341.683 530.97C341.78 547.619 342.438 564.315 340.222 580.869C339.521 586.105 341.199 585.942 345.261 585.014C359.86 581.678 374.455 578.224 389.193 575.614C418.916 570.352 448.602 564.533 478.544 560.949C512.281 556.911 545.823 551.089 579.908 549.693C599.227 548.901 618.466 546.07 637.729 544.04C679.932 539.593 722.324 536.594 764.153 529.158C787.586 524.993 811.126 521.242 834.767 519.379C865.125 516.986 895.07 512.903 924.552 505.451C928.299 504.503 934.29 505.446 934.657 499.743C935.708 483.372 935.946 466.95 936.768 450.562C937 445.944 934.873 445.292 931.208 446.031C928.486 446.58 925.763 447.133 923.065 447.788C880.263 458.177 836.906 465.732 793.305 471.595C761.3 475.898 728.991 477.898 696.926 481.81C652.864 487.186 608.929 493.571 564.784 498.319C516.653 503.495 469.03 512.325 421.036 518.53C399.551 521.308 378.434 526.893 356.584 526.908ZM38.1131 187.925C38.1131 183.295 37.8959 178.128 38.2094 172.993C38.355 170.608 37.9483 168.753 36.7266 166.723C30.4518 156.296 23.5412 146.324 15.8901 136.861C15.6774 136.598 15.3694 136.412 15.1058 136.189C15.0187 136.547 14.8434 136.908 14.8584 137.262C14.9858 140.26 15.1439 143.257 15.3002 146.254C16.0857 161.315 16.8731 176.376 17.6611 191.436C17.7273 192.702 18.0046 193.561 19.6525 193.633C23.6482 193.807 27.6983 193.874 31.6074 194.612C36.9545 195.622 39.8546 194.597 38.1131 187.925Z" fill="#F9F9F9" stroke="#FDF9F0" stroke-width="1.71502" stroke-miterlimit="10"/>
<path d="M882.94 388.95C879.529 391.997 875.302 390.239 871.532 390.6C832.132 394.377 792.72 397.933 753.397 402.552C711.22 407.505 669.218 413.705 627.11 419.058C582.505 424.728 538.16 431.859 493.762 438.78C453.837 445.005 414.223 452.875 374.698 461.198C355.959 465.144 337.318 469.552 318.64 473.784C317.784 473.978 317.001 474.495 316.184 474.862C316.823 475.384 317.55 475.828 318.087 476.439C322.293 481.232 326.709 485.869 330.573 490.926C334.164 495.624 338.147 500.426 340.09 505.849C341.604 510.073 343.258 508.992 345.793 508.284C374.602 500.239 403.984 494.669 433.285 488.92C469.202 481.872 505.289 475.592 541.443 469.866C583.303 463.236 625.042 455.625 667.279 451.619C701.267 448.395 734.972 443.088 768.811 438.783C804.301 434.269 840.036 431.677 875.666 428.265C887.263 427.154 898.861 426.033 910.473 425.106C912.446 424.949 914.495 425.758 916.509 426.121C914.713 426.222 912.914 426.285 911.121 426.43C899.356 427.378 887.593 428.337 875.831 429.32C875.242 429.37 874.676 429.68 874.099 429.869C874.533 430.452 874.895 431.109 875.411 431.607C881.788 437.755 888.19 443.877 894.567 450.025C894.773 450.224 894.784 450.624 894.886 450.931C894.279 450.693 893.518 450.612 893.089 450.193C887.701 444.919 882.064 439.857 877.08 434.222C870.386 426.655 862.231 430.431 854.947 431.364C824.621 435.249 794.047 436.516 763.739 440.38C746.28 442.606 728.981 446.184 711.491 448.032C675.327 451.852 639.12 455.368 603.198 461.035C549.338 469.533 495.568 478.585 441.95 488.555C413.319 493.879 384.961 500.381 356.483 506.37C355.64 506.547 354.887 507.15 354.091 507.555C354.856 507.982 355.575 508.556 356.393 508.815C367.58 512.353 378.652 516.276 390.147 518.78C390.843 518.931 391.427 519.592 392.062 520.017C391.331 519.963 390.56 520.039 389.873 519.836C378.026 516.332 366.157 512.896 354.365 509.215C348.995 507.539 344.405 509.546 339.817 511.635C338.678 512.154 337.373 512.422 336.882 511.829C336.007 510.773 337.706 510.895 338.148 510.373C339.058 509.299 340.509 508.189 339.451 506.812C333.938 499.638 330.896 490.699 323.668 484.76C323.668 484.76 323.661 484.767 323.661 484.767C328.026 491.377 332.415 497.971 336.73 504.612C337.438 505.703 338.782 507.137 337.376 508.3C335.896 509.524 334.456 508.113 333.687 506.983C327.447 497.813 321.32 488.566 315.182 479.327C315.007 479.063 315.093 478.626 315.058 478.269C315.512 478.59 316.116 478.814 316.398 479.247C321.568 487.199 326.717 495.165 331.828 503.155C333 504.986 334.183 506.736 336.416 507.39C335.69 505.74 335.181 503.947 334.199 502.467C330.284 496.563 325.943 490.921 322.334 484.841C320.592 481.907 319.929 478.331 316.429 476.756C315.843 476.493 314.849 476.411 314.406 476.736C313.828 477.161 313.612 478.076 313.24 478.779C313.122 478.028 313.027 477.272 312.882 476.527C312.59 475.029 313.536 474.306 314.703 474.007C321.133 472.364 327.556 470.679 334.032 469.235C372.783 460.597 411.517 451.84 450.628 444.968C500.294 436.241 550.023 427.775 600.056 421.441C641.253 416.225 682.213 409.298 723.539 405.028C758.158 401.452 792.707 397.197 827.322 393.577C845.801 391.645 864.355 390.423 882.875 388.88C882.874 388.88 882.94 388.95 882.94 388.95Z" fill="#F9F9F9" stroke="#FDF9F0" stroke-width="1.71502" stroke-miterlimit="10"/>
<path d="M514.387 0.382812C514.652 0.47974 515.518 0.796702 516.384 1.11367C515.471 1.35067 514.568 1.74151 513.643 1.80233C485.624 3.64556 457.616 5.68953 429.578 7.19176C410.233 8.22827 390.722 8.27721 371.703 11.8056C340.064 17.6751 307.997 18.2112 276.138 21.2506C246.799 24.0497 217.346 25.7965 188.077 29.1633C130.02 35.8416 72.0552 43.327 14.0462 50.4279C11.3658 50.756 8.71641 52.0636 5.93115 50.9662C8.58621 50.4518 11.2218 49.7842 13.8992 49.4458C58.8597 43.7618 103.852 38.3191 148.782 32.4101C193.114 26.58 237.735 23.9764 282.214 19.8087C314.465 16.7869 346.848 15.4414 378.886 9.75857C395.126 6.8779 411.923 7.10768 428.474 6.00135C456.337 4.13876 484.204 2.33191 512.07 0.502783C512.609 0.467375 513.15 0.446349 514.387 0.382812Z" fill="#F9F9F9" stroke="#FDF9F0" stroke-width="1.71502" stroke-miterlimit="10"/>
<path d="M861.929 550.75C861.929 562.996 861.969 575.242 861.889 587.487C861.876 589.445 862.909 589.425 864.238 589.323C871.456 588.771 878.673 588.208 885.892 587.67C886.323 587.638 886.768 587.795 887.206 587.865C886.834 588.15 886.48 588.654 886.085 588.689C878.038 589.406 869.987 590.091 861.932 590.722C860.718 590.817 860.428 589.937 860.496 588.849C861.831 567.674 860.753 546.474 861.152 525.29C861.182 523.675 861.772 522.071 862.102 520.462C862.239 522.002 862.487 523.541 862.493 525.081C862.532 533.637 862.512 542.194 862.512 550.75C862.318 550.75 862.124 550.75 861.929 550.75Z" fill="#F9F9F9" stroke="#FDF9F0" stroke-width="1.71502" stroke-miterlimit="10"/>
<path d="M834.674 391.538C834.435 391.538 834.077 391.651 833.901 391.521C831.389 389.647 828.895 387.75 826.426 385.82C826.29 385.714 826.311 385.089 826.428 385.028C827.168 384.642 834.79 390.435 834.674 391.538Z" fill="#F9F9F9" stroke="#FDF9F0" stroke-width="1.71502" stroke-miterlimit="10"/>
<path d="M476.921 41.2295C476.627 41.759 476.368 42.2255 476.11 42.692C475.771 40.9795 475.388 39.2738 475.13 37.5494C475.075 37.1789 475.472 36.7409 475.66 36.334C476.072 37.9347 476.485 39.5355 476.921 41.2295Z" fill="#F9F9F9" stroke="#FDF9F0" stroke-width="1.71502" stroke-miterlimit="10"/>
<path d="M720.325 255.721C719.596 255.556 719.122 255.582 718.835 255.364C715.275 252.647 711.711 249.925 709.372 245.983C709.203 245.699 709.206 245.313 709.13 244.975C709.404 245.048 709.763 245.034 709.939 245.207C713.235 248.427 716.509 251.668 719.784 254.909C719.891 255.015 719.955 255.162 720.325 255.721Z" fill="#F9F9F9" stroke="#FDF9F0" stroke-width="1.71502" stroke-miterlimit="10"/>
<path d="M748.341 290.877C751.724 294.489 754.427 297.374 757.129 300.259C756.841 300.345 756.398 300.595 756.288 300.491C753.617 297.986 750.974 295.452 748.362 292.887C748.204 292.733 748.341 292.28 748.341 290.877Z" fill="#F9F9F9" stroke="#FDF9F0" stroke-width="1.71502" stroke-miterlimit="10"/>
<path d="M490.596 119.001C487.357 119.001 484.118 119.016 480.879 118.994C479.558 118.984 478.598 118.431 478.591 116.965C478.587 116.066 478.754 115.166 478.844 114.266C479.104 114.972 479.425 115.661 479.608 116.386C479.943 117.707 480.901 118.016 482.067 118.011C487.853 117.985 493.639 117.977 499.424 117.9C501.93 117.867 502.18 115.872 502.597 114.037C502.706 113.558 503.046 113.131 503.281 112.681C503.402 113.208 503.653 113.742 503.625 114.262C503.442 117.638 501.76 119.256 498.239 119.009C495.703 118.831 493.144 118.974 490.596 118.974C490.596 118.983 490.596 118.992 490.596 119.001Z" fill="#F9F9F9" stroke="#FDF9F0" stroke-width="1.71502" stroke-miterlimit="10"/>
<path d="M478.271 76.5414C478.664 75.7806 479.045 75.0402 479.427 74.2998C479.563 74.7694 479.857 75.2584 479.802 75.7046C479.666 76.8145 479.37 77.9049 479.138 79.0031C478.871 78.2437 478.603 77.4844 478.271 76.5414Z" fill="#F9F9F9" stroke="#FDF9F0" stroke-width="1.71502" stroke-miterlimit="10"/>
<path d="M229.064 363.912C228.909 364.064 228.755 364.215 228.6 364.367C223.487 358.251 218.31 352.187 213.284 346.001C210.375 342.422 207.696 338.655 204.94 334.953C204.417 334.25 203.797 333.497 203.648 332.689C203.573 332.279 204.354 330.957 205.067 332.505C205.291 332.991 205.398 333.561 205.716 333.969C211.938 341.958 218.184 349.929 224.425 357.904C224.578 358.059 224.731 358.215 224.885 358.371C224.885 358.371 224.908 358.347 224.908 358.347C224.751 358.195 224.595 358.042 224.438 357.89C224.493 357.466 224.548 357.042 224.602 356.617C224.965 356.827 225.496 356.948 225.664 357.262C226.839 359.456 227.94 361.691 229.064 363.912Z" fill="#F9F9F9" stroke="#FDF9F0" stroke-width="1.71502" stroke-miterlimit="10"/>
<path d="M165.939 279.923C167.832 282.218 169.271 283.722 170.436 285.414C176.283 293.907 182.062 302.447 187.84 310.987C188.045 311.291 187.986 311.774 188.05 312.174C187.46 311.764 186.684 311.479 186.308 310.924C180.867 302.895 175.503 294.814 170.06 286.787C168.941 285.137 167.541 283.68 166.343 282.079C166.091 281.742 166.156 281.169 165.939 279.923Z" fill="#F9F9F9" stroke="#FDF9F0" stroke-width="1.71502" stroke-miterlimit="10"/>
</g>
<defs>
<clipPath id="clip0_514_370">
<rect width="939.829" height="660.791" fill="white"/>
</clipPath>
</defs>
</svg>
