<svg width="962" height="653" viewBox="0 0 962 653" fill="none" xmlns="http://www.w3.org/2000/svg">
<g clip-path="url(#clip0_514_254)">
<path d="M961.092 366.72C961.025 367.526 960.549 368.035 959.833 368.294C958.359 368.827 956.903 369.57 955.378 369.777C947.811 370.807 941.305 374.316 935.006 378.306C931.925 380.257 928.82 382.147 925.522 383.706C913.009 389.623 901.225 397.135 888.173 401.818C872.371 407.488 857.44 415.809 840.548 418.229C823.295 420.702 806.444 425.153 789.328 428.29C780.183 429.966 771.349 432.846 762.565 435.831C749.804 440.167 737.376 445.429 724.499 449.465C718.145 451.457 711.614 452.602 705.184 454.208C694.456 456.886 683.815 459.909 673.131 462.762C671.064 463.314 668.981 463.825 666.882 464.233C658.234 465.911 650.738 469.537 644.93 476.421C642.683 479.083 639.668 480.945 636.632 482.732C625.617 489.217 613.58 493.274 601.748 497.875C593.178 501.206 584.374 503.96 576.131 508.161C569.537 511.522 562.15 512.596 555.142 514.77C545.124 517.877 535.241 521.149 526.434 527.268C515.169 535.095 502.888 541.277 490.867 547.862C473.997 557.103 456.246 564.43 438.713 572.26C423.699 578.965 408.184 584.322 392.968 590.467C371.438 599.161 350.693 609.559 330.14 620.344C319.397 625.981 308.541 631.402 297.712 636.872C291.401 640.059 285.145 643.345 279.005 646.848C277.949 647.45 277.146 648.182 276.505 649.339C275.576 651.014 273.494 651.298 271.861 652.064C271.291 652.332 270.607 651.735 270.423 651.057C269.953 649.32 268.615 648.437 267.098 648.023C260.05 646.101 254.893 641.611 250.136 636.311C240.934 626.06 231.983 615.558 221.849 606.188C208.498 593.845 196.932 579.857 185.064 566.17C180.182 560.539 176.675 553.74 172.077 547.834C161.919 534.784 153.194 520.819 144.834 506.596C142.299 502.281 139.284 498.286 136.4 494.206C132.89 489.242 129.687 484.1 127.036 478.621C126.259 477.015 125.59 475.315 124.565 473.877C113.629 458.527 105.393 441.424 93.7779 426.519C91.1419 423.136 88.3252 419.937 85.1778 416.998C79.9569 412.124 75.1948 406.788 70.4683 401.444C67.9701 398.619 66.2995 395.158 64.3522 391.918C60.3515 385.262 55.7982 378.947 53.2093 371.482C51.406 366.282 47.1674 362.512 44.3161 357.92C39.1727 349.637 33.3676 341.77 29.1893 332.872C25.5819 325.189 21.3856 317.785 17.5436 310.21C11.9687 299.218 7.74823 287.724 5.15687 275.662C4.49341 272.574 3.25311 269.684 2.32847 266.689C1.49967 264.005 1.15106 261.248 0.886662 258.524C0.716439 256.769 1.9071 255.029 3.16239 253.668C3.73803 253.044 4.74239 253.338 4.90245 254.097C5.17638 255.396 5.70345 254.926 6.31069 254.517C13.2743 249.827 21.234 247.371 29.0301 244.639C41.1589 240.388 53.1283 235.725 65.1479 231.191C72.9074 228.263 80.9419 226.238 88.8799 223.897C101.498 220.177 113.573 214.965 125.91 210.474C137.046 206.419 147.892 201.695 158.625 196.628C171.236 190.674 184.882 187.508 198.156 183.345C211.157 179.268 224.664 177.751 237.91 174.931C249.145 172.539 260.231 169.498 271.529 167.383C273.397 167.033 275.2 166.216 276.805 165.103C281.62 161.761 286.647 158.756 291.721 155.837C302.334 149.732 312.045 142.328 321.915 135.142C325.363 132.632 328.941 130.27 332.824 128.407C347.88 121.187 362.737 113.485 378.84 108.745C396.706 103.486 413.731 96.2262 430.377 87.9307C457.337 74.4947 485.422 63.8996 514.256 55.2141C528.802 50.8325 543.63 47.1759 557.483 40.8128C570.409 34.8758 583.583 29.6297 596.969 24.869C600.697 23.5432 604.078 21.5764 607.187 19.1131C611.108 16.0067 615.141 13.0114 619.487 10.5576C625.17 7.34981 630.836 3.93472 637.615 3.45235C638.464 3.39191 638.977 2.98831 639.421 2.19884C640.375 0.502798 641.274 0.528391 642.386 2.19994C642.787 2.80366 643.168 3.41158 643.783 3.79224C650.589 8.00644 656.679 13.2415 663.412 17.5577C664.252 18.0962 665.111 18.6342 666.024 19.0262C674.546 22.6858 680.911 29.1367 687.669 35.2051C695.471 42.2115 702.021 50.3005 709.008 58.021C716.292 66.0706 723.757 73.9323 731.915 81.1246C737.382 85.9438 742.268 91.3649 747.287 96.6414C755.456 105.231 763.813 113.632 772.396 121.81C776.335 125.563 780.601 128.918 785.005 132.088C791.862 137.024 798.086 142.675 804.247 148.436C812.82 156.452 820.512 165.227 828.094 174.172C836.396 183.966 845.638 192.962 853.957 202.743C864.032 214.587 873.551 226.872 882.418 239.703C892.453 254.225 901.391 269.414 910.992 284.193C911.418 284.849 911.827 285.541 912.094 286.271C916.267 297.704 923.619 307.426 929.251 318.074C931.345 322.033 934.052 325.675 936.57 329.4C939.092 333.129 941.57 336.86 943.386 341.011C945.308 345.405 949.351 348.023 952.414 351.467C955.776 355.247 959.149 359.111 959.361 364.584C959.383 365.152 959.653 365.313 960.083 365.456C960.685 365.656 961.003 366.098 961.092 366.72ZM658.869 463.061C663.678 461.907 668.057 460.948 672.385 459.801C683.006 456.985 693.494 453.547 704.237 451.343C719.701 448.171 734.578 443.273 749.146 437.43C758.913 433.512 768.943 430.525 779.003 427.611C789.014 424.711 799.355 423.212 809.554 421.114C818.006 419.376 826.37 417.238 834.921 415.957C846.536 414.218 857.857 411.376 868.537 406.322C872.084 404.644 875.54 402.665 879.346 401.682C885.763 400.025 891.589 396.992 897.604 394.376C904.555 391.353 910.959 387.272 917.813 384.067C922.793 381.738 927.727 379.343 932.376 376.37C939.314 371.934 946.453 367.907 954.824 366.784C955.961 366.631 957.149 366.357 955.785 364.862C955.365 364.402 955.253 363.798 955.551 363.263C956.137 362.207 955.694 361.308 955.186 360.448C953.661 357.866 952.139 355.272 949.864 353.245C944.961 348.878 940.783 343.997 938.374 337.761C937.87 336.456 936.888 335.333 936.102 334.142C926.628 319.786 917.371 305.304 910.267 289.573C909.739 288.404 909.173 287.249 908.57 286.116C905.108 279.609 900.477 273.832 896.804 267.469C888.867 253.718 879.815 240.699 870.353 228.007C861.916 216.69 853.044 205.669 843.352 195.343C836.174 187.695 828.729 180.276 822.223 172.019C812.449 159.613 800.904 148.985 788.856 138.884C783.827 134.669 778.211 131.165 773.351 126.735C763.005 117.302 753.292 107.227 743.582 97.1481C738.531 91.9045 733.566 86.5318 728.106 81.7371C719.865 74.5008 712.574 66.3872 705.213 58.3258C699.633 52.2156 694.634 45.5767 688.378 40.0828C685.805 37.8232 683.267 35.5051 680.897 33.0371C677.04 29.0208 672.632 25.8419 667.657 23.3586C663.634 21.3504 659.661 19.2107 656.172 16.3249C651.759 12.6748 646.933 9.61458 642.204 6.41478C641.683 6.0627 641.209 5.77859 640.452 5.87718C632.354 6.93213 625.199 10.303 618.498 14.7646C615.588 16.7024 612.684 18.6749 609.957 20.857C605.315 24.572 600.088 27.0377 594.529 29.0366C584.057 32.8027 573.591 36.5743 563.552 41.4692C554.883 45.6965 545.766 48.8772 536.559 51.733C526.746 54.777 516.818 57.4545 507.034 60.5862C479.257 69.4772 452.168 80.0784 426.158 93.3556C412.463 100.346 398.179 105.943 383.503 110.504C378.32 112.115 373.163 113.774 368.085 115.683C358.447 119.305 349.31 124.021 339.993 128.356C332.691 131.754 325.836 135.757 319.481 140.646C310.016 147.929 300.129 154.569 289.766 160.506C287.752 161.66 285.791 162.906 283.677 164.187C284.592 164.765 285.172 164.328 285.757 164.185C312.676 157.598 339.037 149.168 365.208 140.11C366.036 139.824 366.854 139.629 367.721 139.755C368.511 139.871 369.044 140.291 369.086 141.142C369.123 141.89 368.711 142.342 368.022 142.552C367.272 142.78 366.499 142.942 365.763 143.209C348.919 149.326 331.709 154.314 314.612 159.638C291.968 166.688 268.617 170.924 245.573 176.376C234.882 178.905 223.89 180.104 213.253 182.725C191.645 188.05 170.305 194.127 150.069 203.912C132.733 212.295 114.295 218.211 96.171 224.755C87.2446 227.978 77.8867 229.866 68.9475 233.074C56.0506 237.703 43.3579 242.878 30.4087 247.378C24.0196 249.599 17.4959 251.583 11.5654 254.97C10.6808 255.475 9.14781 255.698 9.22278 256.823C9.28325 257.731 10.7847 257.854 11.6648 258.279C16.9984 260.852 22.9222 262.119 27.9404 265.354C36.3833 270.796 44.0232 277.149 50.3516 285.062C56.5529 292.817 61.512 301.492 68.1735 308.889C74.3639 315.763 78.9334 323.831 84.6238 331.064C90.599 338.66 95.963 346.642 100.706 355.053C104.971 362.617 110.457 369.122 117.529 374.218C123.092 378.227 128.359 382.618 133.797 386.785C144.822 395.233 155.177 404.376 164.422 414.765C171.929 423.201 178.547 432.35 185.703 441.056C202.534 461.532 216.32 483.885 227.903 507.638C232.129 516.305 236.601 524.831 241.139 533.332C247.654 545.537 252.657 558.271 255.709 571.842C258.008 582.069 259.965 592.374 262.47 602.549C264.357 610.219 267.03 617.703 268.767 625.403C270.195 631.73 272.361 637.697 275.063 643.538C275.671 644.852 276.179 645.049 277.43 644.309C285.611 639.477 294.132 635.287 302.629 631.049C310.803 626.971 318.899 622.734 326.999 618.519C348.284 607.444 369.697 596.643 391.927 587.583C405.735 581.955 419.925 577.32 433.559 571.198C451.853 562.984 470.489 555.531 488.123 545.888C500.462 539.14 513.075 532.818 524.646 524.813C533.701 518.549 543.818 515.12 554.095 511.888C561.095 509.686 568.487 508.652 575.092 505.298C583.657 500.949 592.804 498.091 601.714 494.647C613.29 490.173 625.012 486.101 635.768 479.759C637.997 478.445 640.258 477.046 641.937 475.198C648.748 467.701 656.831 461.445 663.088 453.419C663.746 452.575 664.568 451.587 665.742 452.579C666.895 453.553 666.088 454.533 665.398 455.361C663.347 457.821 661.257 460.25 658.869 463.061ZM5.90047 259.142C4.48746 258.976 3.94973 259.341 4.14667 260.416C4.4034 261.818 4.58487 263.242 4.96743 264.61C6.29208 269.345 8.09732 273.94 9.0685 278.781C9.44684 280.666 9.75757 282.589 10.3806 284.399C17.9664 306.428 28.662 326.934 41.0058 346.626C41.271 347.049 41.5563 347.467 41.7582 347.921C43.7224 352.333 46.5985 356.162 49.5478 359.925C52.1593 363.257 54.749 366.649 56.1614 370.632C58.2631 376.559 61.6334 381.733 64.8567 387.042C69.1955 394.189 73.7111 401.095 79.6981 407.087C84.229 411.622 89.0481 415.918 93.1344 420.889C100.588 429.956 107.101 439.669 112.807 449.925C115.028 453.917 117.286 457.884 120.09 461.518C123.676 466.165 126.783 471.123 129.321 476.42C132.294 482.623 135.949 488.408 139.96 493.978C143.423 498.789 146.731 503.698 149.728 508.818C154.018 516.148 158.471 523.376 163.202 530.436C169.402 539.689 176.63 548.207 182.572 557.641C185.704 562.615 189.482 567.077 193.438 571.403C198.015 576.407 202.749 581.286 207.047 586.522C212.37 593.005 218.496 598.663 224.447 604.513C226.839 606.864 229.324 609.124 231.659 611.53C240.16 620.291 247.951 629.707 256.471 638.457C258.103 640.133 259.899 641.364 261.846 642.565C264.901 644.449 268.707 644.661 271.506 647.055C271.721 647.239 272.098 647.317 272.24 646.986C272.33 646.775 272.288 646.334 272.136 646.22C270.599 645.068 270.061 643.714 270.872 641.841C271.029 641.478 270.501 640.805 270.262 640.287C268.638 636.78 267.308 633.147 266.55 629.374C265.521 624.254 263.905 619.314 262.434 614.325C262.155 613.381 261.675 612.928 260.629 612.894C255.931 612.74 251.74 610.95 247.735 608.679C241.163 604.953 235.375 600.222 230.163 594.772C216.232 580.209 202.807 565.256 191.986 548.118C187.463 540.956 182.502 534.029 177.253 527.379C171.263 519.788 166.429 511.467 161.108 503.455C158.269 499.181 156.013 494.513 153.092 490.301C144.307 477.634 134.927 465.392 126.235 452.653C118.278 440.99 109.526 429.877 102.2 417.773C98.174 411.122 93.6331 404.81 89.2162 398.412C84.8903 392.145 81.2073 385.43 77.3362 378.856C72.0787 369.928 65.9475 361.574 60.0419 353.095C56.0631 347.383 51.575 341.972 47.303 336.436C42.4149 330.1 38.4782 323.312 36.486 315.473C34.8521 309.045 33.0897 302.648 31.2914 296.263C29.5931 290.232 28.853 284.109 29.1 277.854C29.1695 276.095 29.3531 274.343 30.8869 273.242C32.2148 272.289 31.9412 271.732 30.7961 270.894C27.2595 268.307 23.52 266.122 19.3752 264.654C15.4703 263.272 11.6437 261.698 7.90662 259.905C7.14167 259.538 6.31613 259.298 5.90047 259.142Z" fill="#FDF9F0" stroke="#FDF9F0" stroke-width="0.907546" stroke-miterlimit="10"/>
<path d="M340.79 207.914C340.822 208.645 340.367 209.097 339.854 209.502C338.788 210.347 337.679 211.164 336.387 211.596C330.639 213.523 324.888 215.48 318.708 215.37C315.458 215.311 312.386 216.453 309.2 216.73C298.536 217.656 288.634 221.204 278.895 225.345C272.776 227.946 266.247 228.714 259.753 229.62C250.119 230.963 240.86 233.946 231.393 236.007C225.893 237.205 221.196 239.977 216.403 242.644C215.406 243.199 214.417 243.775 213.39 244.267C212.685 244.605 211.959 244.523 211.496 243.811C210.967 242.998 211.261 242.265 211.979 241.769C212.856 241.162 213.817 240.678 214.728 240.118C220.724 236.431 227.111 233.924 233.997 232.181C245.696 229.219 257.472 226.811 269.39 224.999C274.164 224.273 278.503 222.195 282.925 220.387C291.818 216.749 301.076 214.662 310.586 213.291C314.556 212.719 318.57 212.967 322.469 212.13C327.883 210.968 333.463 210.296 338.22 207.033C339.5 206.155 340.73 206.675 340.79 207.914Z" fill="#FDF9F0" stroke="#FDF9F0" stroke-width="0.907546" stroke-miterlimit="10"/>
<path d="M719.659 372.108C718.644 371.968 717.672 371.562 717.019 370.621C716.369 369.686 716.522 368.732 717.076 367.807C717.632 366.879 718.38 366.124 719.183 365.404C722.476 362.45 725.812 359.541 728.723 356.188C733.333 350.878 737.372 345.228 739.571 338.442C739.855 337.565 740.209 336.679 740.703 335.907C744.674 329.708 747.185 322.717 751.229 316.561C751.503 316.144 751.725 315.689 752.028 315.296C752.562 314.604 753.249 314.264 754.072 314.778C754.791 315.227 754.845 315.922 754.573 316.665C754.499 316.865 754.416 317.068 754.299 317.245C750.556 322.918 748.192 329.336 744.637 335.11C743.7 336.633 742.829 338.184 742.262 339.89C739.949 346.858 735.839 352.743 731.04 358.168C728.109 361.482 724.866 364.505 721.505 367.392C720.718 368.068 719.788 368.618 720.963 369.937C721.825 370.905 721.057 372.067 719.659 372.108Z" fill="#FDF9F0" stroke="#FDF9F0" stroke-width="0.907546" stroke-miterlimit="10"/>
<path d="M499.639 131.325C499.087 131.3 498.678 131.018 498.463 130.535C498.125 129.776 498.444 129.137 498.981 128.608C501.162 126.458 503.29 124.248 505.562 122.198C509.633 118.523 513.802 114.961 518.414 111.954C520.028 110.901 521.422 109.566 522.789 108.207C523.562 107.439 524.455 106.576 525.507 107.668C526.452 108.648 525.7 109.522 524.954 110.227C523.61 111.497 522.345 112.904 520.826 113.926C513.878 118.603 507.697 124.17 501.748 130.021C501.15 130.61 500.62 131.341 499.639 131.325Z" fill="#FDF9F0" stroke="#FDF9F0" stroke-width="0.907546" stroke-miterlimit="10"/>
</g>
<defs>
<clipPath id="clip0_514_254">
<rect width="961.967" height="652.934" fill="white" transform="translate(0 0.0664062)"/>
</clipPath>
</defs>
</svg>
