<svg width="1034" height="624" viewBox="0 0 1034 624" fill="none" xmlns="http://www.w3.org/2000/svg">
<path d="M1014.56 355.593C1015.95 357.041 1017.63 356.738 1018.78 355.651C1021.48 353.108 1024.95 351.533 1027.3 348.561C1028.13 347.513 1028.75 346.49 1028.77 345.146C1028.77 344.46 1028.79 343.774 1028.79 343.087C1028.79 325.342 1028.79 307.597 1028.78 289.852C1028.78 287.698 1028.89 285.531 1028.44 283.402C1028.22 282.349 1028.5 281.486 1029.18 280.685C1030.33 279.324 1030.25 277.957 1028.94 276.796C1027.83 275.812 1028.17 275.155 1029.24 274.566C1029.84 274.236 1030.48 273.996 1031.11 273.719C1031.99 273.325 1032.66 272.636 1032.51 271.685C1032.21 269.783 1032.05 267.8 1030.16 266.542C1028.6 265.505 1027.03 264.532 1025.3 263.805C1022.6 262.664 1019.84 261.635 1017.2 260.353C1012.69 258.164 1007.92 256.702 1003.26 254.932C1000.95 254.054 998.739 253.127 996.846 251.484C995.126 249.99 993.129 248.842 990.893 248.403C985.036 247.254 979.801 244.571 974.566 241.919C971.515 240.373 968.502 238.723 965.779 236.594C964.63 235.696 963.346 234.899 962.008 234.326C956.036 231.766 950.635 228.189 945.035 224.966C942.234 223.353 939.536 221.536 936.638 220.124C932.685 218.199 928.679 216.303 924.53 214.875C915.88 211.897 907.801 207.701 899.549 203.851C888.083 198.5 877.049 192.355 866.089 186.067C861.308 183.324 856.05 181.65 851.163 179.158C849.942 178.536 848.663 177.985 847.55 177.202C841.867 173.208 835.474 170.627 828.962 168.558C822.762 166.589 817.048 163.637 811.121 161.116C808.33 159.929 805.53 158.747 802.672 157.739C794.454 154.842 786.35 151.663 778.509 147.861C772.766 145.076 766.661 143.187 760.851 140.605C752.069 136.702 742.946 133.679 734.111 129.959C726.534 126.768 719.069 123.296 711.371 120.389C703.754 117.513 696.476 113.957 689.299 110.117C685.26 107.957 680.78 106.637 676.617 104.686C668.457 100.86 660.402 96.8098 652.261 92.9426C646.691 90.2968 641.045 87.8128 635.442 85.2356C633.751 84.4579 632.068 83.657 630.427 82.7814C628.696 81.8581 626.986 80.9343 625.062 80.428C624.031 80.1567 622.97 79.7586 622.099 79.1607C617.284 75.8564 611.775 74.0432 606.514 71.6809C603.04 70.1209 599.849 67.9703 596.358 66.3892C594.393 65.4997 592.319 64.9841 590.335 64.151C582.494 60.8577 574.936 56.9479 566.999 53.8446C560.811 51.4249 554.519 49.2624 548.431 46.5297C544.594 44.8073 540.731 43.2131 537.081 41.0923C533.603 39.0716 529.602 38.1846 526.067 36.2399C523.329 34.7336 520.599 33.1651 517.724 31.9648C510.503 28.9505 503.407 25.614 495.956 23.1731C495.014 22.8648 494.133 22.4808 493.273 22.0062C491.297 20.9159 489.302 19.8044 487.135 19.1971C482.473 17.8902 478.494 15.0213 473.942 13.5295C467.21 11.3231 460.842 8.35367 454.654 4.94412C452.34 3.66885 449.582 3.49396 447.306 2.0345C446.545 1.5468 445.575 1.92158 444.847 2.52669C441.31 5.46314 437.112 7.07357 432.87 8.6434C431.229 9.25055 429.727 10.2356 428.163 11.0501C426.774 11.7737 425.429 12.6012 423.99 13.2077C415.755 16.6797 407.974 21.0443 400.338 25.6202C394.955 28.8467 389.232 30.9135 383.218 32.3691C381.769 32.7198 380.436 33.2789 379.127 33.96C373.656 36.8055 368.031 39.3344 362.75 42.5701C358.399 45.2359 353.465 46.6837 348.645 48.2997C345.117 49.4823 341.599 50.6486 338.417 52.6523C335.247 54.6486 331.58 55.5266 328.173 56.9927C322.959 59.2367 317.721 61.4168 312.606 63.8866C305.812 67.1664 298.732 69.81 291.904 72.9949C285.786 75.8485 279.509 78.4595 273.666 81.8017C267.195 85.5035 260.598 88.9082 253.9 92.1458C245.971 95.9785 238.019 99.7624 230.082 103.578C227.607 104.767 225.189 106.068 222.946 107.658C217.65 111.413 212.011 114.601 206.063 117.138C200.657 119.442 195.455 122.191 190.158 124.685C183.001 128.054 175.616 131.054 168.807 135.159C165.682 137.042 162.266 138.29 158.907 139.609C154.046 141.517 149.727 144.447 144.993 146.563C140.526 148.559 135.975 150.355 131.314 151.855C130.569 152.095 129.778 152.242 129.082 152.582C125.854 154.16 122.494 154.746 118.876 154.746C116.497 154.746 114.358 156.226 113.185 158.39C111.742 161.052 109.645 163.355 108.792 166.34C108.492 167.389 107.653 167.865 106.723 168.269C99.4484 171.43 92.2126 174.668 85.452 178.866C83.9498 179.798 82.2461 180.312 80.6003 180.948C75.4609 182.932 70.791 185.814 66.0249 188.536C58.6312 192.757 51.1649 196.851 43.1223 199.792C40.0986 200.897 37.1555 202.255 34.5405 204.243C32.585 205.729 30.2332 206.471 28.0055 207.473C22.848 209.793 17.356 210.634 11.9315 211.759C8.53778 212.462 5.86914 214.433 2.97168 216.032C1.84521 216.654 1.01245 217.412 2.25757 218.768C2.74268 219.295 2.43823 220.092 2.43823 220.767C2.44019 237.924 2.47107 255.081 2.40588 272.237C2.38867 276.756 3.09717 281.215 3.19092 285.726C3.25439 288.782 4.74194 291.341 7.45728 293.043C11.1887 295.381 14.8536 297.78 19.0393 299.347C22.3237 300.576 25.5861 302.007 28.4559 304.105C32.1318 306.791 36.3544 308.419 40.4159 310.344C44.3099 312.191 48.2454 313.926 51.7559 316.481C53.4194 317.692 55.2143 318.691 57.1185 319.502C58.8313 320.231 60.3782 321.257 61.9598 322.246C65.192 324.269 68.6331 325.954 71.9083 327.912C76.6937 330.772 81.6459 333.354 86.0905 336.783C89.5103 339.422 93.3314 341.361 97.3823 342.968C103.928 345.565 110.209 348.781 116.527 351.898C124.261 355.712 131.83 359.823 139.247 364.218C139.919 364.617 140.606 365.017 141.332 365.295C147.576 367.679 153.199 371.341 159.28 374.031C166.379 377.171 172.623 381.862 179.739 384.946C182.792 386.269 185.781 387.74 188.804 389.136C191.029 390.164 193.206 391.261 195.22 392.689C196.248 393.419 197.396 394.063 198.585 394.467C200.836 395.232 202.878 396.356 204.895 397.575C208.919 400.006 212.992 402.311 217.404 404.037C223.617 406.468 229.315 409.97 235.227 413.028C243.304 417.207 251.441 421.261 259.772 424.934C263.969 426.784 267.871 429.293 271.944 431.433C278.529 434.894 285.146 438.294 291.745 441.727C294.438 443.127 297.229 444.374 299.786 445.99C307.565 450.909 316.002 454.643 323.808 459.509C328.962 462.722 334.555 465.137 339.857 468.099C350.969 474.308 362.441 479.832 373.838 485.502C380.495 488.814 387.142 492.178 393.803 495.48C401.558 499.323 408.793 503.964 416.161 508.426C422.693 512.383 429.39 516.055 435.802 520.228C442.202 524.394 449.19 527.537 455.94 531.095C462.007 534.293 468.408 536.796 474.52 539.87C479.056 542.152 483.356 544.955 488.12 546.755C492.336 548.348 496.573 549.852 500.54 552.019C500.969 552.254 501.452 552.407 501.847 552.686C508.868 557.635 516.996 560.44 524.536 564.387C535.73 570.247 547.051 575.873 557.63 582.824C562.899 586.286 568.302 589.399 574.535 590.795C575.597 591.033 576.575 591.541 577.415 592.225C579.495 593.92 581.873 595.03 584.342 596.021C585.972 596.675 587.472 597.532 588.771 598.827C590.525 600.577 592.986 601.277 595.081 602.535C599.086 604.941 603.566 606.565 607.065 609.809C607.418 610.136 607.858 610.418 608.309 610.583C613.551 612.5 617.376 616.71 622.27 619.191C623.237 619.681 623.956 620.517 624.588 621.41C624.805 621.716 625.1 622.075 625.553 621.827C626.067 621.546 626.06 621.054 625.948 620.551C625.745 619.634 625.228 618.897 624.417 618.487C619.17 615.837 615.018 611.466 609.504 609.183C607.296 608.269 605.751 606.1 603.529 605.015C603.089 604.8 603.027 604.224 602.871 603.752C601.35 599.179 600.459 594.474 599.904 589.699C599.632 587.357 599.184 585.052 598.597 582.771C598.45 582.202 598.207 581.632 598.194 581.059C598.026 573.657 595.634 566.606 594.772 559.33C594.033 553.095 592.619 546.983 591.838 540.777C591.423 537.478 591.011 534.18 590.513 530.89C590.156 528.53 590.538 528.304 592.845 529.36C596.426 531 599.63 533.258 602.847 535.503C606.859 538.305 610.576 541.528 614.857 543.946C617.327 545.342 619.761 546.813 622.295 548.083C623.937 548.905 624.488 550.074 624.474 551.836C624.363 565.167 625.385 578.481 625.078 591.817C625.033 593.779 625.13 595.732 625.42 597.68C626.419 604.382 626.234 611.165 626.778 617.898C626.833 618.581 626.766 619.276 626.842 619.955C627.056 621.868 627.396 622.005 629.24 621.164C635.331 618.389 640.926 614.8 646.353 610.912C648.332 609.494 650.281 607.971 652.704 607.302C653.498 607.083 653.97 606.433 654.522 605.871C660.808 599.477 667.836 594.045 675.708 589.741C678.739 588.084 681.274 585.75 684.12 583.842C692.092 578.498 700.163 573.284 707.929 567.655C716.175 561.678 724.208 555.398 732.653 549.704C738.258 545.926 743.984 542.314 749.361 538.221C752.343 535.951 755.594 534.212 758.757 532.275C762.163 530.188 765.248 527.575 768.465 525.18C774.195 520.914 779.779 516.463 786.557 513.801C788.588 513.004 790.268 511.293 792.08 509.962C793.822 508.684 795.651 507.556 797.552 506.532C798.413 506.068 799.372 505.66 800.041 504.984C804.133 500.848 809.748 498.76 813.834 494.596C815.471 492.926 817.632 491.868 819.702 490.728C821.927 489.504 824.057 488.079 826.118 486.59C829.299 484.292 832.513 482.061 835.962 480.18C838.822 478.62 841.241 476.463 843.745 474.419C845.334 473.121 846.878 471.753 849.106 471.594C850.099 471.523 850.907 470.852 851.677 470.241C854.989 467.616 858.568 465.419 862.31 463.463C865.711 461.685 868.648 459.207 871.777 457.019C875.384 454.496 879.027 452.047 882.056 448.779C884.839 445.775 888.801 444.477 892.106 442.223C899.221 437.37 906.599 432.884 913.188 427.284C914.758 425.949 916.438 424.789 918.354 423.953C919.692 423.37 921.067 422.714 922.178 421.792C926.777 417.977 931.721 414.629 936.475 411.025C938.896 409.189 941.318 407.372 944.235 406.328C946.381 405.56 948.175 404.18 949.915 402.726C953.006 400.143 956.221 397.749 960.047 396.31C960.676 396.074 961.294 395.693 961.788 395.238C965.032 392.258 968.763 389.842 971.781 386.602C972.113 386.245 972.47 385.882 972.884 385.637C976.031 383.78 978.612 381.257 981.32 378.84C984.23 376.243 987.541 374.091 990.71 371.788C994.116 369.312 997.518 366.841 1001.28 364.878C1003.72 363.603 1005.68 361.583 1007.64 359.697C1009.67 357.751 1011.74 356.116 1014.54 355.577C1014.54 354.273 1013.65 354.177 1012.72 354.358C1011.27 354.64 1009.94 355.248 1008.73 356.139C1007.21 357.263 1007.16 357.239 1006.11 355.579C1005.42 354.505 1004.81 353.386 1004.16 352.29C1001.55 347.86 1000.34 342.874 998.517 338.129C995.173 329.423 992.933 320.403 990.678 311.387C990.23 309.597 990.198 307.702 989.993 305.853C989.863 304.683 990.282 303.8 991.279 303.098C993.92 301.238 996.433 299.202 999.302 297.67C1005.78 294.208 1011.95 290.228 1018.1 286.231C1018.67 285.86 1019.21 285.421 1019.71 284.955C1020 284.685 1020.11 284.262 1019.84 283.903C1019.55 283.53 1019.13 283.632 1018.76 283.762C1018.49 283.857 1018.21 283.989 1017.98 284.159C1014.57 286.649 1010.78 288.544 1007.33 290.933C1002.24 294.448 996.445 296.766 991.59 300.627C991.224 300.918 990.734 301.31 990.312 300.793C989.927 300.322 990.288 299.878 990.658 299.543C990.947 299.281 991.252 298.998 991.603 298.85C995.155 297.35 998.119 294.883 1001.37 292.893C1005.54 290.341 1009.6 287.62 1013.47 284.619C1016.41 282.342 1019.33 280.009 1022.55 278.133C1023.65 277.497 1024.76 276.886 1026.15 277.329C1027.88 277.881 1028.31 278.615 1027.23 280.051C1026.3 281.293 1026.19 282.508 1026.46 283.913C1026.61 284.68 1026.72 285.468 1026.72 286.246C1026.74 305.653 1026.75 325.06 1026.76 344.466C1026.76 344.564 1026.75 344.662 1026.75 344.76C1026.79 345.896 1026.4 346.815 1025.58 347.648C1022.35 350.921 1018.81 353.742 1014.56 355.593ZM597.92 601.869C594.564 600.294 591.711 599.28 589.496 597.116C588.637 596.276 587.669 595.696 586.613 595.148C584.442 594.022 581.923 593.546 580.041 591.918C578.122 590.257 575.875 589.332 573.51 588.708C569.385 587.62 565.63 585.793 562.056 583.512C558.176 581.035 554.346 578.462 550.349 576.187C540.475 570.566 530.425 565.268 520.242 560.221C515.422 557.832 510.342 555.984 505.771 553.07C501.304 550.222 496.59 547.861 491.532 546.182C489.407 545.476 487.325 544.604 485.284 543.63C479.459 540.851 473.921 537.548 468.004 534.903C456.037 529.554 444.299 523.681 433.284 516.497C426.634 512.159 419.556 508.545 412.859 504.279C406.67 500.337 400.306 496.708 393.706 493.425C387.14 490.158 380.538 486.934 374.025 483.541C367.003 479.883 359.733 476.683 352.728 472.962C343.908 468.278 334.997 463.759 326.278 458.894C319.778 455.268 313.244 451.709 306.742 448.092C304.025 446.58 301.419 444.802 298.65 443.35C290.589 439.125 282.482 434.99 274.409 430.788C269.378 428.169 264.628 425.016 259.375 422.816C252.87 420.093 246.636 416.802 240.34 413.648C235.439 411.192 230.664 408.486 225.786 405.983C219.089 402.548 212.076 399.813 205.494 396.061C198.378 392.006 191.178 388.009 183.577 384.836C175.069 381.284 167.562 375.8 159.136 372.063C154.399 369.962 150.081 367.001 145.229 365.11C139.444 362.856 134.409 359.204 128.956 356.326C120.554 351.891 112.068 347.639 103.45 343.642C99.1904 341.666 94.5557 340.429 90.6776 337.72C85.2115 333.903 79.5887 330.359 73.876 326.928C69.3527 324.21 64.6057 321.91 60.1119 319.117C56.8979 317.12 53.3528 315.607 50.239 313.372C49.2851 312.688 48.2534 312.143 47.1787 311.641C42.3882 309.408 37.5869 307.187 32.8857 304.775C29.9315 303.259 27.3437 301.073 24.2744 299.736C20.2394 297.98 16.5401 295.542 12.3825 294.013C10.9461 293.486 9.69135 292.432 8.39844 291.553C6.51294 290.27 5.39771 288.507 5.22876 286.186C4.93079 282.09 4.36841 277.997 4.34363 273.9C4.24146 256.941 4.29907 239.982 4.29883 223.022C4.29883 222.434 4.30859 221.846 4.31116 221.258C4.31641 220.076 4.73425 219.621 5.93787 220.206C8.4917 221.446 11.1008 222.574 13.6354 223.851C21.4152 227.771 28.6953 232.627 36.6646 236.193C41.775 238.48 46.3669 241.711 51.3683 244.194C60.6727 248.812 69.8207 253.694 78.3712 259.641C84.17 263.674 90.1704 267.392 96.8384 269.859C101.174 271.464 105.276 273.524 109.243 275.874C111.606 277.274 114.1 278.393 116.626 279.47C121.041 281.352 125.339 283.462 129.533 285.825C137.551 290.342 145.608 294.817 153.992 298.622C159.44 301.095 164.881 303.53 169.815 306.948C174.092 309.911 178.602 312.438 183.299 314.684C187.358 316.625 191.508 318.492 195.108 321.217C198.73 323.96 202.729 325.999 206.678 328.158C211.489 330.789 216.463 333.174 221.044 336.159C225.486 339.054 229.984 341.772 234.749 344.084C237.656 345.495 240.514 347.016 243.324 348.611C250.306 352.577 257.178 356.741 264.229 360.578C268.867 363.102 273.878 364.95 278.475 367.537C286.754 372.196 294.968 376.963 303.432 381.285C309.184 384.223 314.793 387.428 320.801 389.87C327.06 392.415 333.251 395.166 339.01 398.724C343.11 401.257 347.417 403.322 351.774 405.337C358.438 408.418 365.203 411.301 371.629 414.875C381.56 420.399 391.836 425.251 401.939 430.439C407.333 433.208 413.1 435.255 418.474 438.059C428.193 443.131 437.907 448.173 447.946 452.619C455.815 456.104 463.511 460.01 470.993 464.31C480.684 469.882 490.904 474.394 501.063 479.015C506.769 481.61 512.596 483.957 517.677 487.726C520.286 489.662 523.125 491.203 525.988 492.706C532.759 496.262 539.429 499.986 545.504 504.67C549.654 507.869 554.194 510.394 559.083 512.192C568.067 515.495 576.055 520.664 584.333 525.298C585.469 525.934 586.061 526.771 586.133 528.087C586.38 532.591 587.516 536.97 588.022 541.453C588.832 548.641 590.233 555.761 591.384 562.91C592.38 569.09 593.405 575.267 594.388 581.446C595.431 587.997 596.33 594.585 597.92 601.869ZM984.451 250.803C982.378 251.644 980.905 252.082 979.409 252.507C974.621 253.867 969.682 254.783 965.434 257.687C962.602 259.623 959.49 261.135 956.331 262.459C952.676 263.992 949.463 266.239 946.22 268.409C939.966 272.594 933.95 277.138 927.082 280.346C925.312 281.173 923.635 282.212 922.105 283.459C915.648 288.723 909.223 294.019 903.372 299.972C900.422 302.975 897.367 305.875 894.404 308.866C890.892 312.411 887.079 315.735 884.042 319.654C881.048 323.518 877.49 325.97 872.863 327.19C866.957 328.747 861.255 330.91 856.19 334.351C842.234 343.833 827.308 351.704 812.975 360.557C807.633 363.855 802.226 367.001 797.479 371.171C788.935 378.674 780.874 386.687 772.597 394.472C769.103 397.759 765.478 400.903 762.389 404.612C760.954 406.334 759.199 407.79 757.589 409.367C755.365 411.544 752.607 412.376 749.585 412.53C748.411 412.59 747.242 412.592 746.085 412.895C740.407 414.382 734.603 415.544 729.448 418.514C726.217 420.375 722.846 421.909 719.488 423.5C714.796 425.724 710.269 428.299 705.55 430.458C700.547 432.747 695.682 435.225 691.098 438.284C687.588 440.626 684.303 443.212 681.052 445.905C675.926 450.152 670.433 453.954 665.151 458.016C660.114 461.889 654.652 465.217 650.269 469.935C645.27 475.315 639.679 480.135 635.086 485.904C630.925 491.13 626.474 496.077 621.297 500.337C620.394 501.08 619.518 501.912 618.835 502.852C616.746 505.726 613.822 507.182 610.476 507.848C603.971 509.142 597.841 511.382 592.245 514.954C590.898 515.814 589.868 515.688 588.474 515.017C578.671 510.296 569.548 504.354 559.958 499.255C557.45 497.921 555.419 495.918 552.906 494.526C544.352 489.788 536.213 484.309 526.957 480.861C523.992 479.756 521.182 478.114 518.503 476.117C519.566 474.897 520.835 474.32 522.019 473.699C530.431 469.286 538.748 464.689 547.548 461.04C551.54 459.384 555.442 457.597 559.821 457.201C561.597 457.04 563.384 456.552 564.711 455.355C568.7 451.757 573.071 448.425 576.372 444.26C580.519 439.029 584.999 434.115 589.264 429.005C592.61 424.994 596.082 421.197 600.466 418.293C603.424 416.334 605.575 413.458 608.36 411.265C617.376 404.166 626.914 397.789 636.15 390.996C637.251 390.186 638.399 389.382 639.638 388.827C648.25 384.968 656.151 379.822 664.282 375.113C669.829 371.9 675.413 368.989 681.612 367.266C683.463 366.752 685.421 366.198 686.862 364.742C688.859 362.722 691.028 360.83 692.759 358.6C695.948 354.492 699.706 350.909 703.044 346.939C706.003 343.42 709.4 340.283 712.903 337.272C718.785 332.217 725.079 327.716 731.337 323.155C738.149 318.192 744.712 312.879 751.627 308.068C761.271 301.356 771.688 295.815 781.203 288.889C781.754 288.487 782.375 288.17 782.991 287.87C788.545 285.163 793.854 282.009 799.254 279.018C803.641 276.588 808.302 274.791 813.297 274.023C814.407 273.853 815.399 273.462 816.208 272.732C817.807 271.29 819.537 269.933 820.874 268.269C825.201 262.883 830.477 258.468 835.597 253.937C841.462 248.747 847.722 243.998 853.87 239.134C856.092 237.375 858.323 235.542 861.031 234.56C864.982 233.126 868.28 230.697 871.415 228.011C874.098 225.713 876.863 223.532 879.764 221.514C882.207 219.814 884.738 218.411 887.763 218.039C888.617 217.934 889.513 217.627 890.245 217.177C894.212 214.739 898.644 213.457 902.953 211.847C904.667 211.207 906.085 211.362 907.699 212.136C912.115 214.253 916.695 215.982 921.255 217.773C926.702 219.912 932.173 222.043 937.297 224.974C944.774 229.25 951.993 233.987 959.835 237.63C962.043 238.655 964.101 240.03 966.029 241.564C966.711 242.107 967.504 242.516 968.263 242.957C973.263 245.862 978.539 248.213 984.451 250.803ZM380.104 403.909C381.261 402.225 382.98 402.019 384.162 401.011C388.953 396.926 394.309 393.677 399.733 390.51C407.769 385.817 416.058 382.079 425.626 382.061C428.293 382.056 430.563 381.002 431.86 378.377C432.282 377.524 433.028 376.811 433.7 376.104C437.556 372.051 441.483 368.083 446.506 365.417C447.276 365.008 447.93 364.381 448.638 363.855C456.651 357.91 464.042 351.141 472.561 345.861C474.221 344.832 475.789 343.633 477.311 342.404C483.343 337.535 489.755 333.189 496.138 328.813C498.795 326.992 501.434 325.103 504.389 323.732C507.148 322.452 509.756 320.898 512.263 319.168C518.167 315.093 524.385 311.561 531.068 308.947C535.625 307.164 540.298 305.675 544.932 304.092C546.455 303.571 547.855 302.871 548.754 301.508C552.089 296.451 556.706 292.626 561.042 288.517C565.309 284.474 569.989 280.854 573.856 276.41C576.456 273.423 579.387 270.871 582.559 268.548C583.982 267.506 585.417 266.471 586.761 265.333C595.671 257.794 604.908 250.689 614.61 244.195C619.169 241.143 623.167 237.252 628.058 234.724C639.546 228.784 650.109 221.181 661.988 215.956C667.271 213.632 672.013 210.217 677.532 208.343C679.5 207.675 681.096 206.323 682.133 204.415C685.622 198 690.661 192.963 696.475 188.692C699.946 186.142 703.568 183.788 707.208 181.481C715.817 176.025 724.434 170.564 732.604 164.478C740.306 158.741 748.454 153.631 755.971 147.646C756.812 146.976 757.778 146.468 758.651 145.837C759.696 145.081 760.794 144.948 761.99 145.376C764.202 146.167 766.479 146.812 768.619 147.764C780.062 152.852 791.403 158.181 803.316 162.136C806.015 163.032 808.579 164.25 811.181 165.393C816.538 167.745 821.588 170.87 827.437 172.028C828.004 172.14 828.557 172.396 829.078 172.661C829.982 173.119 829.852 173.766 829.138 174.221C828.405 174.69 827.585 175.077 826.751 175.322C824.184 176.075 821.86 177.307 819.606 178.71C818.442 179.434 817.312 180.309 816.04 180.744C809.315 183.044 804.713 188.311 799.363 192.522C796.753 194.576 794.461 197.027 791.379 198.467C789.42 199.382 787.722 200.734 785.993 202.027C784.662 203.023 783.319 204.038 781.864 204.827C775.855 208.086 770.769 212.525 765.861 217.191C764.226 218.746 762.889 220.558 761.746 222.528C760.173 225.239 758.48 227.88 756.812 230.534C755.629 232.417 753.97 233.611 751.883 234.503C746.841 236.657 741.944 239.11 737.329 242.13C730.687 246.478 724.355 251.274 717.623 255.494C708.408 261.27 699.148 266.984 690.427 273.512C679.906 281.387 668.581 288.053 657.547 295.15C653.343 297.853 649.109 300.497 645.062 303.432C643.476 304.583 641.896 305.744 640.27 306.837C632.229 312.238 624.829 318.266 620.085 326.976C619.21 328.581 617.842 329.641 616.009 330.105C611.239 331.313 606.724 333.2 602.409 335.532C593.165 340.526 584.602 346.588 575.952 352.512C572.716 354.728 569.797 357.383 566.558 359.561C560.796 363.437 554.876 367.077 549.26 371.176C535.523 381.204 522.946 392.537 511.22 404.837C507.636 408.597 503.926 412.261 501.137 416.675C499.777 418.828 498.036 419.801 495.536 419.642C492.759 419.466 490.043 419.939 487.439 420.844C481.047 423.067 474.858 425.759 468.899 428.991C463.288 432.034 457.874 435.373 452.836 439.294C451.593 440.261 450.625 440.468 449.204 439.516C447.178 438.159 444.98 437.043 442.793 435.949C437.629 433.365 432.489 430.732 427.105 428.603C422.073 426.613 417.738 423.243 412.859 421.009C407.249 418.44 401.696 415.765 396.156 413.054C390.701 410.385 385.457 407.355 380.104 403.909ZM453.295 441.728C453.707 440.422 454.793 440.032 455.627 439.401C462.54 434.171 470.104 430.018 477.981 426.498C483.667 423.959 489.331 421.11 495.906 421.476C498.746 421.633 500.918 420.209 502.523 417.806C504.374 415.035 506.402 412.373 508.733 409.984C518.659 399.813 528.507 389.556 539.751 380.786C545.776 376.087 551.616 371.121 558.179 367.165C562.046 364.833 565.787 362.3 569.364 359.596C579.543 351.902 590.139 344.856 601.031 338.232C605.334 335.616 609.937 333.588 614.758 332.334C618.388 331.39 620.823 329.513 622.675 326.386C625.08 322.326 627.889 318.567 631.642 315.585C640.473 308.566 649.561 301.916 659.329 296.245C661.537 294.963 663.702 293.63 665.754 292.115C668.992 289.724 672.415 287.622 675.86 285.55C679.052 283.632 682.186 281.629 685.209 279.443C691.801 274.676 698.293 269.761 705.197 265.443C715.171 259.206 725.167 252.997 734.656 246.037C739.677 242.355 745.079 239.327 750.754 236.975C755.759 234.9 758.844 231.457 761.224 226.855C763.205 223.024 765.781 219.605 768.984 216.596C776.116 209.899 784.729 205.33 792.643 199.762C794.393 198.531 796.344 197.558 797.926 196.084C801.295 192.944 804.994 190.204 808.517 187.252C810.628 185.483 812.82 183.819 815.421 182.842C817.087 182.217 818.659 181.442 820.126 180.456C822.339 178.969 824.703 177.816 827.242 177.001C828.731 176.523 830.245 176.066 831.305 174.773C831.982 173.947 832.79 174.03 833.684 174.46C837.299 176.197 841.127 177.494 844.446 179.843C846.206 181.089 848.138 182.05 850.098 182.968C855.684 185.583 861.487 187.733 866.814 190.909C877.765 197.438 889.077 203.287 900.612 208.712C901.28 209.026 902.127 209.155 902.49 210.032C901.936 210.683 901.132 210.848 900.401 211.045C896.692 212.045 893.166 213.464 889.826 215.37C888.986 215.849 888.038 216.353 887.107 216.423C884.017 216.655 881.55 218.234 879.093 219.847C875.646 222.11 872.457 224.718 869.349 227.42C867.265 229.232 865.103 231.021 862.549 232.004C858.167 233.689 854.42 236.267 850.864 239.236C848.382 241.308 845.824 243.289 843.275 245.28C836.398 250.652 829.878 256.43 823.66 262.548C821.008 265.158 818.804 268.194 815.976 270.642C815.078 271.418 814.238 272.246 812.989 272.388C808.141 272.939 803.557 274.583 799.447 276.987C789.908 282.566 779.482 286.668 770.925 293.902C770.41 294.338 769.748 294.598 769.161 294.951C761.348 299.646 753.504 304.3 746.197 309.77C737.489 316.29 728.748 322.766 720.002 329.234C714.171 333.545 708.598 338.213 703.687 343.592C698.277 349.518 692.832 355.416 687.565 361.468C685.519 363.819 683.059 365.177 680.165 365.946C675.301 367.238 670.659 369.123 666.43 371.807C661.956 374.646 657.249 377.058 652.715 379.782C648.435 382.354 644.159 384.952 639.529 386.89C638.633 387.266 637.76 387.751 636.968 388.315C629.461 393.657 621.984 399.04 614.479 404.384C608.801 408.427 603.772 413.253 598.369 417.621C595.003 420.342 591.782 423.095 589.052 426.498C584.521 432.147 579.054 437.02 575.123 443.185C574.661 443.909 573.964 444.536 573.258 445.043C570.612 446.946 568.335 449.21 566.196 451.662C564.275 453.863 561.873 455.284 558.848 455.548C555.189 455.867 551.799 457.116 548.516 458.726C546.319 459.804 544.087 460.825 541.819 461.744C533.71 465.032 526.196 469.467 518.628 473.784C516.777 474.84 515.338 474.948 513.487 473.843C509.622 471.536 506.15 468.605 502.027 466.707C500.52 466.013 499.016 465.239 497.675 464.275C494.785 462.197 491.593 460.652 488.38 459.259C479.123 455.245 470.082 450.799 461.121 446.183C458.455 444.81 455.709 443.53 453.295 441.728ZM314.412 370.511C314.498 369.645 315.09 369.386 315.598 369.168C321.604 366.59 326.335 362.017 331.915 358.764C335.381 356.744 338.591 354.29 342.021 352.201C346.822 349.276 351.949 347.187 357.566 346.285C360.757 345.773 364.004 344.982 365.89 341.912C368.866 337.068 373.298 333.937 378.077 331.118C385.929 326.485 393.746 321.752 400.825 315.992C410.723 307.938 421.101 300.602 431.977 293.946C433.479 293.027 434.869 291.929 436.351 290.976C442.121 287.27 447.954 283.66 453.675 279.881C462.668 273.94 471.619 267.943 481.69 263.896C482.717 263.483 483.504 262.737 484.024 261.744C486.082 257.813 489.354 255.046 492.797 252.394C501.032 246.052 509.972 240.729 518.34 234.566C526.934 228.237 535.693 222.118 544.692 216.347C557.886 207.885 570.779 198.941 584.921 192.052C592.311 188.452 599.605 184.648 607.188 181.451C608.396 180.942 609.346 180.102 610.136 179.082C614.267 173.739 617.759 167.944 621.862 162.574C623.542 160.375 625.24 158.257 627.438 156.578C630.942 153.9 634.471 151.255 637.987 148.592C641.659 145.811 645.289 142.975 649.583 141.147C650.469 140.77 651.264 140.138 652.036 139.541C662.969 131.083 674.631 123.623 685.496 115.075C686.927 113.949 688.172 113.895 689.774 114.786C695.342 117.883 701.158 120.475 707.043 122.912C714.098 125.833 721.433 128.086 728.219 131.648C731.444 133.341 734.842 134.547 738.263 135.753C744.079 137.804 749.921 139.812 755.446 142.602C758.031 143.907 757.981 143.859 755.675 145.723C749.191 150.966 742.01 155.227 735.383 160.277C729.698 164.61 723.794 168.66 717.776 172.539C710.446 177.264 703.111 181.992 695.94 186.954C689.763 191.229 684.544 196.516 680.769 203.103C679.87 204.671 678.754 206.025 676.991 206.642C673.549 207.847 670.469 209.781 667.219 211.377C656.928 216.433 646.7 221.586 637.01 227.763C631.158 231.493 624.553 233.988 619.229 238.608C617.827 239.825 616.267 240.863 614.749 241.94C608.435 246.419 601.985 250.708 595.924 255.537C590.253 260.054 584.804 264.844 578.915 269.095C577.023 270.46 575.292 272.127 573.755 273.889C569.745 278.486 565.021 282.321 560.605 286.482C555.972 290.848 551.03 294.904 547.448 300.271C546.775 301.278 545.835 301.971 544.685 302.367C543.39 302.813 542.101 303.279 540.795 303.691C530.85 306.823 521.284 310.741 512.685 316.793C510.128 318.592 507.385 320.155 504.622 321.628C498.897 324.681 493.632 328.431 488.289 332.069C481.483 336.703 475.225 342.087 468.337 346.605C466.617 347.733 464.646 348.576 463.169 349.955C458.496 354.318 453.228 357.913 448.253 361.882C446.264 363.469 444.157 364.887 441.992 366.248C437.38 369.145 433.642 373.098 430.39 377.382C428.892 379.357 427.42 380.303 425.065 380.219C422.406 380.126 419.79 380.479 417.214 381.157C405.738 384.176 395.788 390.165 386.309 397.058C384.097 398.666 382.007 400.392 379.513 401.643C377.838 402.483 376.584 402.413 375.175 401.479C369.672 397.834 363.203 396.151 357.552 392.761C355.297 391.407 353.077 389.958 350.732 388.748C346.819 386.727 342.889 384.737 338.95 382.768C332.035 379.313 325.093 375.911 318.197 372.421C316.926 371.777 315.422 371.525 314.412 370.511ZM623.536 84.1015C621.567 85.9439 619.556 86.7842 617.82 88.0199C612.631 91.7124 607.484 95.4572 602.141 98.9405C597.944 101.677 593.242 103.532 589.256 106.572C586.443 108.718 583.544 110.727 580.438 112.397C577.826 113.8 575.762 115.958 573.264 117.438C568.885 120.032 564.299 122.274 559.809 124.683C551.825 128.965 545.149 134.713 540.075 142.269C537.526 146.066 534.406 149.222 530.236 151.31C523.755 154.555 517.487 158.216 510.854 161.166C509.336 161.841 507.803 162.561 506.442 163.499C499.908 168.005 492.975 171.912 486.645 176.723C484.848 178.089 482.904 179.222 480.881 180.241C477.297 182.048 473.749 183.899 470.405 186.167C462.295 191.666 454.219 197.239 445.848 202.317C440.06 205.829 435.143 210.241 430.575 215.068C424.583 221.399 418.834 227.971 414.177 235.393C413.184 236.975 411.817 237.941 410.11 238.582C406.892 239.789 403.893 241.435 400.895 243.116C394.233 246.851 387.498 250.448 380.648 253.843C375.292 256.497 369.838 258.936 364.493 261.601C357.227 265.225 349.977 268.879 343.15 273.321C340.698 274.917 337.878 275.944 335.409 277.519C329.555 281.253 323.928 285.336 318.199 289.259C314.678 291.671 311.4 294.586 308.582 297.869C305.007 302.032 301.493 306.252 298.106 310.569C295.49 313.902 292.275 316.267 288.4 317.935C284.537 319.599 280.618 321.166 277.002 323.37C273.823 325.307 270.494 326.964 267.125 328.555C261.981 330.984 256.988 333.718 252.495 337.227C250.179 339.035 250.277 339.203 247.704 337.706C245.76 336.575 243.955 335.153 241.919 334.24C234.491 330.913 227.583 326.609 220.355 322.906C215.666 320.503 211.41 317.291 206.995 314.382C200.375 310.019 193.393 306.243 186.051 303.185C185.459 302.939 184.641 302.959 184.546 302.058C184.821 301.455 185.383 301.228 185.885 300.943C191.421 297.796 196.949 294.643 202.325 291.22C204.633 289.751 207.117 288.549 209.555 287.292C212.175 285.942 214.892 284.62 217.79 284.229C221.885 283.677 225.316 281.858 228.185 279.182C233.047 274.646 237.647 269.826 242.295 265.065C244.895 262.403 247.247 259.491 249.932 256.923C253.682 253.334 257.593 249.909 261.517 246.508C266.329 242.338 271.011 237.994 276.334 234.458C283.362 229.789 290.885 225.953 298.22 221.816C306.827 216.961 315.998 213.163 324.82 208.721C330.572 205.826 336.49 203.636 342.621 201.989C347.004 200.813 350.36 198.279 353.425 195.235C357.385 191.302 361.268 187.311 365.627 183.787C369.041 181.027 372.127 177.865 375.452 174.99C378.562 172.301 381.616 169.484 385.029 167.231C387.882 165.347 390.851 163.613 393.646 161.629C398.519 158.172 403.629 155.075 408.563 151.706C414.793 147.454 421.502 143.997 428.321 140.719C435.999 137.03 443.415 132.798 450.981 128.873C456.62 125.948 462.522 123.59 467.969 120.218C474.964 115.887 481.75 111.224 488.86 107.08C490.756 105.975 492.449 104.646 493.195 102.469C494.413 98.9155 497.101 96.6426 500.144 94.8268C504.681 92.1193 509.32 89.5481 513.783 86.7507C520.756 82.3805 528.16 78.7949 535.084 74.3255C542.311 69.6614 550.029 65.7619 557.513 61.4941C559.128 60.5731 560.686 59.5447 562.224 58.4966C563.649 57.5249 565.061 57.4007 566.657 58.0772C571.789 60.2522 577.203 61.7772 581.952 64.8325C582.765 65.3554 583.707 65.687 584.609 66.0591C590.123 68.3337 595.886 70.0559 601.037 73.1399C603.829 74.8118 606.825 76.0061 609.759 77.3503C611.448 78.1237 613.314 78.4537 614.924 79.4418C617.582 81.0726 620.143 82.8763 623.536 84.1015ZM684.999 112.87C684.747 113.972 683.717 114.29 682.973 114.869C674.922 121.125 666.363 126.677 658.194 132.77C654.975 135.171 652.007 138.026 648.394 139.75C644.627 141.547 641.29 143.874 638.001 146.346C635.887 147.935 633.86 149.656 631.654 151.104C625.91 154.874 621.159 159.666 617.45 165.373C614.885 169.32 612.061 173.075 609.479 177.001C608.719 178.157 607.935 179.385 606.57 179.813C602.509 181.084 598.953 183.393 595.145 185.18C582.363 191.179 569.866 197.685 558.077 205.508C546.81 212.984 535.356 220.175 524.334 228.027C517.871 232.632 511.671 237.613 504.914 241.798C499.656 245.055 494.729 248.775 489.823 252.517C486.939 254.717 484.249 257.169 482.666 260.574C482.243 261.485 481.558 262.161 480.552 262.493C475.29 264.226 470.617 267.175 465.938 269.995C457.886 274.848 450.048 280.058 442.163 285.183C436.915 288.593 431.922 292.438 426.488 295.512C418.683 299.928 411.537 305.224 404.601 310.814C395.88 317.843 386.644 324.074 376.979 329.706C372.556 332.282 368.177 335.061 365.419 339.489C363.385 342.754 360.516 344.183 357.006 344.691C350.261 345.668 344.284 348.488 338.65 352.142C330.283 357.569 322.29 363.571 313.527 368.395C312.193 369.129 311.25 369.285 309.779 368.623C301.297 364.802 293.338 359.903 284.735 356.364C275.744 352.665 267.317 347.853 258.625 343.566C257.136 342.831 255.712 341.956 254.298 341.081C252.881 340.204 252.764 339.498 253.98 338.327C254.815 337.522 255.817 336.856 256.827 336.271C267.005 330.384 277.413 324.938 288.091 320.011C291.93 318.24 295.681 316.36 298.442 312.983C302.041 308.583 305.663 304.203 309.324 299.856C313.006 295.485 317.338 291.816 322.097 288.69C325.288 286.595 328.537 284.585 331.552 282.246C333.89 280.431 336.389 278.933 339.006 277.572C342.045 275.989 345.148 274.466 347.974 272.55C354.33 268.238 361.249 264.956 368.159 261.779C376.797 257.806 385.197 253.398 393.679 249.132C399.104 246.404 404.036 242.701 409.784 240.655C412.944 239.531 415.059 237.592 416.831 234.841C420.442 229.233 424.47 223.924 429.299 219.272C429.861 218.73 430.329 218.092 430.857 217.514C435.021 212.951 439.311 208.548 444.625 205.253C449.121 202.466 453.498 199.488 457.945 196.62C465.761 191.578 473.182 185.899 481.607 181.835C484.183 180.593 486.55 179.026 488.844 177.35C494.151 173.473 499.755 170.046 505.237 166.435C507.697 164.816 510.217 163.3 512.901 162.09C519.066 159.31 524.986 156.049 530.97 152.916C533.576 151.552 536.059 149.958 538.036 147.713C541.073 144.265 543.618 140.425 546.658 136.969C548.155 135.267 549.676 133.674 551.466 132.272C558.231 126.975 566.142 123.645 573.469 119.317C574.314 118.818 575.266 118.445 575.903 117.708C577.026 116.411 578.473 115.609 579.909 114.77C583.376 112.748 586.884 110.803 589.964 108.174C591.682 106.707 593.715 105.693 595.745 104.698C597.151 104.009 598.57 103.324 599.902 102.506C608.256 97.3718 616.023 91.3766 624.127 85.8748C625.36 85.0378 626.15 84.9327 627.496 85.6012C633.367 88.519 639.267 91.3921 645.263 94.0422C649.209 95.7867 653.079 97.6679 656.945 99.5735C665.553 103.816 674.131 108.127 683.086 111.618C683.802 111.897 684.603 112.065 684.999 112.87ZM562.292 56.3304C560.378 57.5656 558.806 58.5412 557.274 59.575C552.386 62.8732 546.964 65.2163 541.899 68.1905C535.659 71.8543 529.556 75.7408 523.226 79.2638C515.788 83.4035 508.523 87.8531 501.178 92.1612C500.419 92.6064 499.604 92.9596 498.862 93.4292C496.096 95.178 493.408 97.3131 492.192 100.246C490.91 103.34 488.791 105.106 486.158 106.706C477.875 111.741 469.881 117.244 461.412 121.978C460.303 122.598 459.193 123.246 458.015 123.708C454.451 125.104 451.048 126.837 447.668 128.609C441.162 132.02 434.796 135.715 428.181 138.896C422.078 141.831 416.104 144.932 410.32 148.464C406.052 151.071 402.135 154.169 397.832 156.727C392.785 159.727 387.972 163.137 383.144 166.467C378.091 169.953 373.437 174.083 368.926 178.274C363.121 183.667 357.024 188.75 351.563 194.521C348.852 197.386 345.63 199.458 341.642 200.487C335.491 202.075 329.338 203.811 323.913 207.345C323.75 207.451 323.569 207.538 323.386 207.606C317.867 209.665 312.815 212.717 307.426 215.065C300.045 218.28 293.32 222.745 286.245 226.548C278.974 230.457 272.021 234.824 265.863 240.381C262.734 243.203 259.4 245.803 256.34 248.695C252.146 252.658 247.487 256.146 243.87 260.705C240.329 265.167 235.728 268.608 232.098 272.996C230.672 274.72 228.917 276.186 227.222 277.667C225.07 279.545 222.696 281.109 219.995 282.108C218.519 282.655 216.921 282.555 215.404 283.043C210.039 284.769 205.112 287.425 200.393 290.378C195.821 293.239 191.161 295.927 186.461 298.553C181.266 301.455 181.282 301.334 175.873 298.419C172.497 296.599 169.595 294.081 166.21 292.272C158.696 288.257 151.171 284.247 143.823 279.941C139.419 277.361 134.959 274.962 130.295 272.901C126.637 271.285 123.051 269.507 119.393 267.783C120.237 266.654 121.155 265.798 122.069 264.913C124.289 262.765 127.08 261.499 129.562 259.764C135.913 255.327 142.549 251.349 149.455 247.859C154.457 245.332 159.75 243.189 165.371 243.014C170.251 242.863 174.275 241.948 176.679 237.316C176.723 237.232 176.807 237.168 176.878 237.1C180.15 233.982 182.951 230.433 185.781 226.941C191.148 220.32 197.591 214.875 204.458 210.009C209.548 206.402 215.206 203.592 220.635 200.47C226.663 197.005 233.092 194.268 238.871 190.346C242.034 188.2 245.301 186.212 248.808 184.658C257.76 180.69 266.525 176.278 275.882 173.276C277.819 172.655 279.227 171.431 280.588 169.932C283.353 166.889 286.156 163.869 288.902 160.815C291.729 157.672 295.008 155.029 297.852 151.927C303.46 145.811 310.121 140.988 317.175 136.738C323.968 132.645 330.921 128.815 337.844 124.942C344.852 121.021 351.567 116.603 358.805 113.063C368.66 108.243 378.371 103.107 388.471 98.8223C398.568 94.5395 408.802 90.5873 418.586 85.5922C420.846 84.438 423.137 83.3658 425.539 82.4721C429.328 81.0625 432.686 78.9896 435.03 75.4109C436.566 73.0648 438.248 70.7041 440.579 69.0012C444.85 65.8808 449.222 62.8962 453.435 59.6999C460.742 54.1555 468.806 50.016 477.051 46.0651C486.228 41.6679 495.631 37.7044 504.44 32.555C505.477 31.9484 506.417 31.5209 507.724 32.072C511.239 33.5545 514.87 34.7368 518.275 36.5118C523.126 39.0405 527.867 41.8178 533.142 43.4608C534.062 43.7476 534.922 44.2831 535.754 44.7934C542.651 49.0194 550.27 51.6031 557.773 54.4383C559.137 54.9539 560.54 55.3418 562.292 56.3304ZM657.735 599.555C657.214 598.147 657.574 597.004 657.693 595.842C658.16 591.274 659.27 586.777 659.16 582.141C659.112 580.087 659.151 578.019 659.591 575.992C661.105 569.008 662.704 562.064 663.668 554.947C664.913 545.748 666.158 536.542 667.358 527.338C667.688 524.809 668.728 523.567 670.65 522.356C676.366 518.754 682.149 515.254 687.571 511.195C691.643 508.147 695.665 504.952 700.055 502.422C708.484 497.565 716.19 491.673 724.248 486.288C731.332 481.553 738.31 476.653 745.491 472.07C753.09 467.221 760.818 462.587 767.658 456.647C769.052 455.436 770.654 454.459 772.414 453.765C774.902 452.785 777.047 451.24 779.043 449.479C782.362 446.55 785.947 443.975 789.831 441.869C794.405 439.389 798.726 436.537 803.055 433.664C808.853 429.817 814.091 425.174 820.169 421.739C824.195 419.463 827.488 416.156 831.436 413.766C842.593 407.011 853.231 399.498 863.706 391.736C870.313 386.84 876.894 381.86 883.842 377.482C891.9 372.404 899.551 366.758 907.105 361.035C913.829 355.942 920.792 351.249 927.75 346.524C931.073 344.268 934.48 342.137 937.835 339.928C939.466 338.854 940.74 337.273 942.614 336.543C946.171 335.158 949 332.727 951.597 330.055C957.349 324.138 964.619 320.398 971.524 316.179C974.426 314.405 977.488 312.836 980.463 311.143C982.327 310.082 983.716 308.377 986.119 307.282C985.863 311.252 987.69 314.478 988.318 318.036C989.306 323.63 991.198 329.005 993.076 334.373C995.98 342.678 998.185 351.268 1003.36 358.602C1004.11 359.662 1004.06 360.514 1003.03 361.4C1001.83 362.432 1000.56 363.35 999.159 364.055C997.488 364.894 995.924 365.894 994.419 366.991C988.338 371.424 982.143 375.703 976.576 380.812C974.93 382.322 972.709 383.236 971.168 384.826C968.217 387.87 964.625 390.13 961.636 393.1C960.856 393.875 959.93 394.427 958.934 394.844C955.367 396.334 952.28 398.561 949.282 400.954C947.833 402.11 946.473 403.487 944.709 404.127C937.731 406.659 932.611 412.005 926.631 416.034C923.321 418.264 920.522 421.208 916.702 422.753C915.192 423.364 913.791 424.413 912.555 425.504C906.58 430.779 899.666 434.737 893.257 439.401C891.52 440.666 889.704 441.896 887.76 442.783C884.94 444.07 882.555 445.878 880.346 447.978C879.069 449.193 878.006 450.729 876.546 451.638C870.477 455.415 865.205 460.39 858.689 463.48C856.01 464.751 853.696 466.566 851.39 468.384C850.525 469.066 849.627 469.682 848.56 469.877C846.036 470.339 844.077 471.764 842.21 473.383C840.357 474.989 838.493 476.6 836.358 477.809C831.573 480.52 827.201 483.855 822.571 486.79C817.277 490.147 811.888 493.335 807.286 497.661C806.663 498.246 805.807 498.616 805.008 498.97C804.105 499.371 803.151 499.729 802.484 500.443C799.899 503.211 796.63 504.974 793.433 506.876C791.334 508.124 789.314 509.516 787.443 511.121C786.568 511.872 785.481 512.428 784.412 512.892C780.624 514.535 777.129 516.631 773.751 519.018C766.902 523.859 760.747 529.708 753.059 533.339C752.533 533.587 752.054 533.953 751.589 534.311C745.457 539.041 739.064 543.388 732.605 547.663C723.457 553.717 714.715 560.349 705.95 566.948C700.717 570.888 695.078 574.285 689.665 577.99C685.058 581.143 680.711 584.73 675.89 587.502C670.421 590.645 665.416 594.368 660.403 598.124C659.628 598.704 658.9 599.341 657.735 599.555ZM503.86 30.873C500.733 32.8589 497.658 34.5566 494.414 35.8926C485.982 39.3644 478.222 44.2547 469.696 47.5229C468.881 47.8354 468.165 48.3968 467.377 48.7927C459.628 52.6883 452.819 58.011 445.772 62.9756C440.634 66.5956 435.722 70.4333 432.322 75.8725C431.422 77.3108 430.095 78.3182 428.534 79.0296C425.329 80.4909 422.1 81.9117 418.956 83.497C413.704 86.1444 408.347 88.5582 402.961 90.906C392.905 95.2888 382.614 99.1324 372.833 104.146C365.074 108.124 357.11 111.704 349.525 116.017C341.181 120.761 332.882 125.582 324.575 130.39C319.239 133.479 313.88 136.537 308.822 140.077C301.395 145.276 295.285 151.917 288.92 158.284C285.246 161.959 281.858 165.889 278.386 169.744C277.564 170.657 276.551 171.167 275.415 171.544C270.856 173.056 266.339 174.697 262.005 176.77C255.644 179.812 248.916 182.111 242.876 185.782C236.93 189.396 231.088 193.176 224.824 196.232C219.978 198.596 215.508 201.623 210.756 204.165C207.497 205.909 204.26 207.766 201.278 210.042C193.598 215.904 186.777 222.612 180.695 230.103C178.599 232.684 176.211 235.039 174.246 237.709C172.526 240.047 170.474 241.287 167.589 241.288C165.635 241.289 163.666 241.132 161.737 241.652C155.662 243.29 149.74 245.308 144.325 248.592C138.466 252.145 132.487 255.495 126.785 259.32C123.929 261.236 121.286 263.41 118.507 265.412C116.92 266.556 115.663 266.563 114.003 265.519C109.942 262.966 105.794 260.568 101.211 258.98C95.168 256.887 90.6112 252.778 86.8083 247.768C83.9708 244.03 84.4832 241.197 88.5582 238.753C92.0209 236.676 95.6203 234.918 99.8514 235.054C100.907 235.088 101.976 234.738 103.039 234.562C108.059 233.73 113.076 232.848 118.187 232.844C121.228 232.842 124.227 232.569 127.25 232.17C135.538 231.077 143.882 231.419 152.211 231.669C152.788 231.686 153.388 231.818 153.928 232.025C156.346 232.953 158.919 233.013 161.433 233.332C163.265 233.564 165.159 233.59 166.992 233.128C170.002 232.37 170.452 230.89 168.322 228.656C165.862 226.077 163.966 223.251 162.843 219.771C160.35 212.051 157.915 204.246 151.988 198.233C151.921 198.165 151.881 198.07 151.829 197.986C150.416 195.7 148.499 193.864 146.379 192.284C144.756 191.075 143.51 189.62 142.614 187.855C141.804 186.261 140.877 184.781 139.397 183.724C138.143 182.829 138.159 181.719 138.573 180.352C139.85 176.139 142.763 173.591 146.746 172.133C151.278 170.474 155.412 168.019 159.694 165.853C165.018 163.161 169.96 159.742 175.522 157.511C177.52 156.709 179.57 156.039 181.59 155.294C187.846 152.986 194.143 150.86 200.848 150.234C202.792 150.052 204.725 149.663 206.635 149.243C208.864 148.754 210.861 147.82 212.517 146.132C214.983 143.618 218.091 141.813 220.405 139.108C220.836 138.605 221.471 138.227 222.08 137.935C225.367 136.359 228.303 134.236 231.294 132.188C235.901 129.033 240.68 126.111 245.14 122.761C249.876 119.205 254.931 116.228 260.277 113.794C265.899 111.233 271.496 108.662 276.776 105.436C277.522 104.981 278.349 104.622 279.181 104.349C282.461 103.273 285.461 101.614 288.489 100.002C294.636 96.7326 300.406 92.7724 306.543 89.5525C316.93 84.1026 327.257 78.4922 338.024 73.783C342.332 71.8987 346.585 69.8804 350.937 68.1035C358.369 65.0687 365.76 61.8721 373.813 60.7388C376.406 60.3739 378.258 58.7931 379.827 56.8279C380.745 55.6784 381.612 54.4915 382.817 53.6059C385.738 51.458 388.61 49.2395 391.574 47.1524C400.739 40.6985 410.695 35.6173 420.676 30.5967C432.235 24.7826 443.805 18.9915 454.465 11.5938C455.803 10.6652 456.845 10.7175 458.237 11.3057C467.605 15.2638 477.054 19.0364 486.373 23.1047C491.399 25.2988 496.409 27.5042 501.579 29.3398C502.306 29.5978 503.064 29.8642 503.86 30.873ZM1028.09 270.743C1026.61 271.579 1025.4 272.431 1024.07 272.986C1021.52 274.049 1019.13 275.382 1016.96 277.069C1008.21 283.863 999.06 290.048 989.492 295.647C982.566 299.7 975.77 303.99 969.051 308.38C963.719 311.863 957.913 314.531 952.751 318.309C945.643 323.51 938.388 328.512 931.182 333.58C930.305 334.196 929.38 334.774 928.409 335.221C924.123 337.195 920.139 339.678 916.249 342.322C904.75 350.138 893.479 358.268 881.53 365.446C873.009 370.565 864.358 375.574 856.641 381.996C850.322 387.255 843.786 392.274 837.127 397.098C829.12 402.899 821.745 409.511 813.455 414.959C805.842 419.961 798.243 424.971 790.428 429.654C783.63 433.727 777.339 438.581 770.281 442.287C765.442 444.828 761.228 448.449 756.779 451.65C745.729 459.601 734.544 467.358 723.255 474.963C715.622 480.106 707.867 485.076 700.492 490.589C696.327 493.702 692.261 496.927 687.303 498.749C686.669 498.982 686.071 499.362 685.516 499.758C681.944 502.304 677.672 503.834 674.682 507.229C674.437 507.507 674.026 507.645 673.68 507.826C670.382 509.548 667.02 511.159 663.795 513.01C659.816 515.294 655.91 517.644 652.416 520.742C649.573 523.262 646.844 525.966 643.708 528.156C640.102 530.674 636.188 532.725 632.712 535.448C631.481 536.412 630.141 536.803 628.725 535.597C627.749 534.766 626.533 534.334 625.335 533.881C619.187 531.555 613.368 528.508 607.567 525.463C603.086 523.111 599.038 519.95 594.217 518.208C594.126 518.175 594.043 518.118 593.958 518.068C592.473 517.202 592.447 516.817 593.958 515.908C598.874 512.951 604.17 510.952 609.793 509.852C613.949 509.039 617.638 507.498 620.25 503.939C620.936 503.004 621.861 502.223 622.756 501.466C626.205 498.546 629.434 495.403 632.34 491.945C637.005 486.393 641.65 480.828 646.925 475.824C650.616 472.322 653.934 468.425 658.053 465.373C665.769 459.655 673.476 453.925 681.171 448.178C682.189 447.418 683.183 446.601 684.068 445.693C685.727 443.991 687.701 442.727 689.614 441.357C697.151 435.954 705.677 432.382 713.881 428.223C717.543 426.366 721.304 424.68 725.016 422.919C728.187 421.416 731.204 419.553 734.432 418.13C738.765 416.22 743.371 415.159 748.015 414.628C753.089 414.048 757.384 412.508 760.96 408.629C765.201 404.028 769.578 399.544 774.24 395.332C782.016 388.306 789.248 380.693 797.214 373.862C801.013 370.605 804.777 367.343 809.171 364.869C812.584 362.946 815.923 360.886 819.229 358.782C822.29 356.835 825.389 354.97 828.594 353.263C834.821 349.945 840.989 346.505 846.773 342.448C855.239 336.509 864.024 331.247 874.154 328.602C878.768 327.397 882.595 325.029 885.23 320.911C885.854 319.935 886.748 319.121 887.573 318.287C889.64 316.198 891.759 314.161 893.819 312.067C901.583 304.176 909.303 296.243 917.873 289.197C921.357 286.332 924.723 283.324 928.832 281.339C930.595 280.488 932.464 279.801 934.097 278.747C938.371 275.989 942.496 273 946.769 270.24C950.054 268.118 953.157 265.699 956.789 264.125C960.747 262.409 964.563 260.4 968.242 258.14C969.754 257.211 971.337 256.486 973.063 256.023C977.41 254.858 981.797 253.796 986.052 252.349C988.259 251.599 990.089 251.928 991.932 252.953C993.125 253.617 994.241 254.437 995.325 255.274C996.733 256.361 998.272 257.133 999.904 257.853C1004.21 259.751 1008.79 260.908 1013.1 262.78C1016.43 264.224 1019.69 265.819 1023.08 267.092C1025 267.812 1026.54 268.841 1028.09 270.743ZM107.363 170.313C106.693 176.928 104.965 183.008 101.52 188.469C98.3759 193.454 95.565 198.59 93.2339 204.003C90.9053 209.411 88.1125 214.569 84.7171 219.4C83.141 221.643 81.6943 223.983 80.5658 226.498C78.6664 230.731 77.7551 235.042 79.3579 239.613C79.9076 241.18 80.3581 242.794 80.7054 244.418C81.1052 246.287 81.9564 247.927 83.0576 249.427C87.7457 255.814 93.8182 260.382 101.118 263.488C104.972 265.127 108.899 266.702 112.402 269.079C114.042 270.192 115.864 270.917 117.698 271.6C123.214 273.655 128.405 276.425 133.766 278.82C138.52 280.945 142.676 284.135 147.334 286.451C154.089 289.808 160.821 293.286 167.088 297.458C172.843 301.288 178.909 304.382 185.216 307.07C193.36 310.54 200.886 315.067 208.242 319.946C212.725 322.919 217.241 325.846 222.044 328.33C230.206 332.552 238.339 336.832 246.32 341.401C252.259 344.802 258.502 347.67 264.472 351.019C274.824 356.828 286.084 360.711 296.482 366.438C305.741 371.537 315.626 375.39 325.045 380.212C334.454 385.028 344.117 389.341 353.225 394.752C356.252 396.551 359.319 398.388 362.58 399.661C368.275 401.883 373.593 404.801 378.791 407.913C386.957 412.802 395.374 417.194 403.957 421.267C408.644 423.491 413.426 425.486 417.801 428.328C420.016 429.767 422.468 430.793 424.883 431.878C429.614 434.004 434.332 436.168 438.99 438.449C442.942 440.385 446.675 442.741 450.515 444.878C461.89 451.208 473.515 457.082 485.509 462.175C490.855 464.446 495.573 467.829 500.72 470.441C501.855 471.017 503.042 471.53 504.076 472.255C512.697 478.296 521.982 483.096 531.673 487.149C532.665 487.564 533.681 487.951 534.609 488.485C539.782 491.461 545.061 494.28 550.055 497.534C555.709 501.219 561.562 504.559 567.362 507.984C572.079 510.769 576.819 513.545 581.781 515.9C582.654 516.314 583.828 516.61 584.072 517.604C584.505 519.362 585.161 521.149 584.663 523.253C582.925 522.694 581.556 521.768 580.158 520.929C573.939 517.2 567.643 513.654 560.844 511.024C556.557 509.366 552.314 507.494 548.607 504.693C541.708 499.48 534.393 494.952 526.668 491.079C522.097 488.787 518.059 485.637 513.671 483.054C507.994 479.714 501.698 477.693 495.828 474.766C488.996 471.36 481.889 468.517 475.263 464.692C465.757 459.204 455.949 454.311 445.957 449.776C439.809 446.986 433.48 444.575 427.717 440.977C424.724 439.108 421.568 437.531 418.407 435.963C411.039 432.31 403.278 429.515 396.066 425.503C390.851 422.6 385.404 420.116 380.108 417.355C373.509 413.915 367.002 410.303 360.205 407.249C355.113 404.961 349.897 402.872 345.047 400.143C337.27 395.769 329.409 391.648 321.176 388.174C311.421 384.059 302.308 378.629 292.923 373.756C286.579 370.462 280.733 366.272 274.167 363.38C270.401 361.721 266.641 360.042 263.067 357.991C256.015 353.944 248.989 349.852 241.94 345.799C236.932 342.919 231.544 340.765 226.613 337.724C223.946 336.079 221.517 334.092 218.726 332.62C212.232 329.193 205.588 325.974 199.424 322.018C194.136 318.623 188.781 315.429 183.162 312.654C180.353 311.266 177.422 310.059 174.871 308.247C168.372 303.633 161.504 299.749 154.087 296.801C147.976 294.371 142.566 290.559 136.638 287.733C130.811 284.955 125.505 281.142 119.477 278.732C115.1 276.981 110.879 274.938 106.846 272.496C104.917 271.328 102.902 270.321 100.783 269.529C93.8737 266.946 87.374 263.62 81.2591 259.446C76.5742 256.248 71.8947 252.995 66.8779 250.316C53.8454 243.356 40.7811 236.456 27.7189 229.552C20.5384 225.756 13.6349 221.427 6.07104 218.365C4.65125 217.791 4.63501 217.195 5.90039 216.372C9.06445 214.313 12.5034 212.98 16.3057 212.778C17.4933 212.715 18.6207 212.447 19.7732 212.214C23.3308 211.494 26.3865 209.283 30.0294 208.821C30.4861 208.763 30.89 208.364 31.3423 208.182C34.3679 206.968 36.6871 204.578 39.6756 203.266C42.4571 202.045 45.3459 201.074 48.0883 199.809C55.1961 196.531 62.2147 193.06 68.8711 188.898C71.7747 187.083 74.7785 185.428 77.9344 184.056C81.7015 182.418 85.5948 181.047 89.082 178.803C93.1338 176.195 97.5266 174.238 101.925 172.322C103.607 171.589 105.149 170.417 107.363 170.313ZM137.154 179.107C133.988 177.27 132.645 174.252 130.388 172.152C126.872 168.881 125.494 164.412 123.161 160.482C122.56 159.469 122.961 158.66 124.014 158.479C127.242 157.927 130.064 156.25 133.158 155.341C138.054 153.904 142.857 152.104 147.304 149.669C156.248 144.77 165.761 141.099 174.829 136.462C181.695 132.95 188.618 129.498 195.769 126.529C200.281 124.656 204.575 122.253 208.96 120.075C213.082 118.028 217.314 116.187 221.119 113.546C225.715 110.355 230.535 107.573 235.638 105.244C240.536 103.008 245.306 100.494 250.16 98.159C254.395 96.1216 258.737 94.297 262.904 92.133C267.328 89.836 271.639 87.3061 275.996 84.8912C280.94 82.1505 286.357 80.2627 291.329 77.4826C293.288 76.3874 295.355 75.4191 297.475 74.69C304.259 72.3564 310.603 69.0521 317.074 66.0274C320.532 64.4113 324.083 63.0113 327.573 61.4796C332.4 59.3613 337.541 57.9487 342.035 55.0576C343.172 54.3259 344.51 53.8809 345.793 53.4053C350.558 51.6391 355.332 49.8961 360.117 48.1843C362.162 47.4528 364.132 46.5381 365.898 45.317C370.358 42.233 375.502 40.4722 380.154 37.771C381.953 36.7268 383.925 36.1998 385.945 35.7219C388.89 35.0249 391.874 34.3323 394.679 33.225C404.801 29.2292 413.763 22.9189 423.742 18.573C430.012 15.8427 435.909 12.2605 442.231 9.58527C443.233 9.16112 444.282 8.7364 444.911 7.84056C445.821 6.54191 446.967 6.54673 448.278 6.9082C449.223 7.16839 450.198 7.33748 451.115 7.67026C452.107 8.03039 453.513 8.24401 453.685 9.36278C453.876 10.6016 452.401 10.9465 451.549 11.4973C442.487 17.3566 433.019 22.4777 423.352 27.2739C412.293 32.7607 401.173 38.1889 391.076 45.3814C386.309 48.7768 381.205 51.8036 377.585 56.6142C376.552 57.9876 375.036 58.7069 373.311 58.9796C370.211 59.4697 367.152 60.1547 364.195 61.2243C351.308 65.8868 338.596 70.9566 326.511 77.4792C325.994 77.758 325.441 77.9674 324.917 78.2351C315.591 83.0067 305.911 87.1214 297.256 93.1465C296.055 93.9827 294.692 94.5826 293.436 95.3447C285.55 100.13 276.719 103.064 268.852 107.894C267.61 108.656 266.221 109.199 264.858 109.74C258.915 112.102 253.222 115.042 247.97 118.607C238.812 124.824 229.942 131.462 220.29 136.933C219.782 137.221 219.253 137.552 218.883 137.989C216.904 140.333 214.182 141.875 212.138 144.083C209.516 146.913 206.24 147.925 202.694 148.255C195.513 148.922 188.604 150.665 181.932 153.292C177.842 154.903 173.612 156.142 169.712 158.293C161.829 162.641 154.093 167.279 145.722 170.706C141.851 172.291 138.337 174.418 137.154 179.107ZM83.0645 237.767C82.3329 233.965 82.691 230.838 84.277 227.904C85.3935 225.839 86.6481 223.849 87.8312 221.819C89.7042 218.607 92.064 215.698 93.6875 212.327C97.4631 204.488 100.877 196.481 105.622 189.113C108.268 185.007 109.849 180.38 110.543 175.42C111.151 171.065 112.383 166.79 115.025 163.121C115.834 161.998 115.835 159.753 117.568 159.965C119.159 160.159 119.568 162.175 120.263 163.563C122.368 167.764 124.454 171.951 127.856 175.349C129.782 177.273 131.688 179.327 133.088 181.634C134.374 183.752 135.626 185.792 137.531 187.391C138.301 188.038 138.65 188.969 139.151 189.809C140.199 191.565 141.229 193.316 142.939 194.611C148.186 198.585 151.675 204.022 155.053 209.531C155.304 209.94 155.399 210.443 155.578 210.898C157.992 217.015 159.137 223.644 163.07 229.164C162.064 229.791 161.122 229.396 160.172 229.298C157.83 229.056 155.594 228.207 153.295 227.92C147.754 227.23 142.179 227.172 136.585 227.551C131.802 227.875 127.016 228.773 122.292 228.789C113.515 228.82 105 230.712 96.335 231.399C95.5672 231.46 94.8044 231.736 94.0661 231.99C90.267 233.297 86.6233 234.924 83.0645 237.767ZM663.42 527.014C662.848 530.9 661.771 534.196 661.946 537.657C662.085 540.425 661.514 543.111 660.884 545.784C660.66 546.737 660.33 547.69 660.277 548.655C659.995 553.747 658.882 558.73 658.335 563.787C658.22 564.853 657.963 565.914 657.669 566.948C655.893 573.19 654.86 579.504 654.791 586.04C654.746 590.195 654.565 594.478 652.544 598.356C652.239 598.94 652.167 599.662 652.061 600.331C651.525 603.712 650.691 606.832 647.002 608.276C645.856 608.725 644.912 609.709 643.902 610.482C640.076 613.409 635.934 615.832 631.683 618.068C630.877 618.492 630.052 619.22 628.786 618.734C628.563 615.978 628.246 613.163 628.124 610.339C627.73 601.236 627.219 592.138 627.316 583.015C627.357 579.105 627.024 575.18 626.681 571.278C626.104 564.718 626.438 558.152 626.348 551.589C626.328 550.161 626.998 549.319 628.307 548.643C631 547.25 633.639 545.729 636.19 544.089C643.275 539.533 650.281 534.855 657.369 530.305C659.154 529.159 660.895 527.862 663.42 527.014ZM668.257 521.404C668.395 519.859 668.932 518.553 668.781 517.19C668.582 515.388 669.356 514.363 671.032 513.566C673.845 512.229 676.778 511.045 679.039 508.729C682.032 505.662 686 503.923 689.666 502.024C694.045 499.755 698.161 497.262 702.086 494.305C711.084 487.525 720.571 481.441 729.906 475.145C740.138 468.243 750.208 461.111 760.262 453.958C766.005 449.872 771.561 445.523 777.923 442.384C779.327 441.692 780.797 441.027 782.001 440.057C788.06 435.175 795.064 431.778 801.505 427.499C809.979 421.869 818.727 416.676 826.663 410.22C835.779 402.803 845.215 395.778 854.554 388.637C858.052 385.962 861.167 382.768 864.968 380.522C872.891 375.839 880.359 370.456 888.363 365.87C897.45 360.663 905.897 354.386 914.497 348.388C917.95 345.979 921.402 343.585 925.046 341.447C927.578 339.961 930.361 338.963 932.765 337.27C938.367 333.322 943.94 329.33 949.566 325.417C953.987 322.343 958.194 318.936 962.999 316.447C965.963 314.911 968.76 313.121 971.569 311.328C975.696 308.696 979.909 306.199 984.096 303.661C984.495 303.419 985.023 303.084 985.403 303.619C985.711 304.051 985.559 304.604 985.206 304.971C983.781 306.452 982.373 307.983 980.593 309.033C974.867 312.409 969.121 315.752 963.344 319.04C961.209 320.256 959.082 321.481 957.201 323.056C953.898 325.821 950.64 328.644 947.424 331.511C946.237 332.569 945.01 333.536 943.543 334.118C941.604 334.888 939.931 336.043 938.277 337.285C936.085 338.93 933.877 340.578 931.54 342.001C924.428 346.33 917.597 351.082 910.794 355.862C907.359 358.276 904.235 361.136 900.775 363.551C895.796 367.028 891.008 370.791 885.912 374.081C882.045 376.578 878.181 379.075 874.445 381.753C863.459 389.628 852.813 397.98 841.432 405.296C834.02 410.06 826.663 414.897 819.485 420.012C816.38 422.225 813.111 424.189 810.056 426.503C804.513 430.701 798.812 434.699 792.758 438.153C787.306 441.264 781.967 444.534 777.229 448.701C775.905 449.865 774.516 450.999 772.849 451.634C770.343 452.589 768.047 453.943 766.063 455.676C760.352 460.663 754.051 464.791 747.581 468.674C738.499 474.124 730.053 480.52 721.15 486.238C715.3 489.996 709.917 494.449 703.916 497.996C701.64 499.341 699.325 500.613 697.166 502.162C689.686 507.525 682.356 513.111 674.485 517.904C672.531 519.095 670.792 520.73 668.257 521.404ZM664.39 517.3C665.134 518.29 664.7 519.009 664.409 519.715C664.034 520.626 663.661 521.539 663.719 522.543C663.813 524.145 662.926 524.983 661.621 525.733C655.769 529.098 650.037 532.67 644.502 536.53C639.117 540.285 633.555 543.727 627.802 546.876C626.864 547.39 626.017 548.071 624.826 547.426C619.93 544.776 614.928 542.306 610.465 538.928C604.768 534.618 599.073 530.304 592.538 527.293C589.626 525.952 588.569 523.745 589.343 520.12C592.616 521.688 596.085 522.896 599.047 524.866C604.783 528.681 611.018 531.484 617.117 534.573C620.779 536.428 624.865 537.423 628.282 539.728C629.859 540.791 631.083 540.621 632.622 539.984C634.57 539.179 635.924 537.533 637.727 536.575C644.266 533.103 649.828 528.299 655.344 523.488C658.102 521.082 660.992 519.036 664.39 517.3Z" fill="#FDF9F0" stroke="#FDF9F0" stroke-width="0.745106" stroke-miterlimit="10"/>
</svg>
