<svg width="474" height="300" viewBox="0 0 474 300" fill="none" xmlns="http://www.w3.org/2000/svg">
<g clip-path="url(#clip0_1525_372)">
<path d="M375.812 237.185C376.608 237.729 377.109 237.652 377.582 237.641C378.622 237.613 378.851 238.212 378.851 239.089C378.851 240.105 378.294 240.405 377.387 240.327C376.468 240.25 375.517 240.311 374.649 240.072C370.497 238.917 367.786 241.737 364.469 243.48C365.265 244.224 366.133 244.124 366.857 244.379C367.775 244.701 368.504 245.234 368.265 246.233C368.003 247.321 367.09 247.321 366.161 246.994C364.285 246.328 362.287 246.75 360.373 246.389C360.228 246.361 360.044 246.422 359.905 246.494C357.317 247.877 354.813 249.392 352.447 251.024C352.659 251.651 353.065 251.518 353.343 251.64C354.067 251.956 354.49 252.484 354.329 253.289C354.162 254.127 353.416 254.144 352.781 254.144C351.05 254.144 349.319 254.094 347.589 254.033C346.687 253.999 345.963 254.299 345.179 254.765C343.097 255.992 340.915 257.047 338.606 258.262C339.513 258.834 340.376 258.668 341.188 258.662C342.613 258.651 344.004 258.784 345.312 259.361C346.041 259.683 346.676 260.205 346.325 261.116C345.991 261.976 345.257 262.081 344.427 261.809C341.121 260.721 337.648 261.393 334.287 260.855C333.791 260.777 333.185 260.943 332.728 261.182C330.408 262.403 328.12 263.686 325.604 265.068C326.957 265.329 328.059 265.501 329.144 265.767C329.729 265.906 330.291 266.2 330.263 266.955C330.235 267.699 329.784 268.121 329.094 268.332C328.515 268.509 327.881 268.665 327.335 268.432C323.328 266.705 319.738 267.793 316.388 270.091C315.169 270.93 313.633 271.046 312.381 272.123C313.416 272.556 314.401 272.567 315.386 272.639C316.421 272.717 317.707 272.795 317.579 274.177C317.456 275.553 316.165 275.426 315.13 275.337C313.516 275.198 311.869 275.154 310.299 274.799C307.566 274.182 305.518 275.692 303.325 276.758C302.168 277.324 301.105 278.068 300.019 278.717C300.32 278.79 300.687 278.829 301.01 278.967C301.606 279.223 301.945 279.694 301.906 280.366C301.862 281.127 301.272 281.382 300.676 281.421C299.385 281.51 298.066 281.626 296.786 281.493C292.495 281.038 289.289 283.28 286.072 285.912C286.896 285.912 287.719 285.889 288.543 285.912C289.851 285.95 291.114 286.25 292.339 286.694C293.179 287 293.291 287.677 293.124 288.415C292.934 289.231 292.266 289.397 291.599 289.192C288.354 288.204 285.037 288.837 281.759 288.687C279.905 288.604 278.887 290.152 277.106 291.179C280.512 291.018 283.484 291.301 286.439 290.796C286.862 290.724 287.302 290.735 287.736 290.719C288.554 290.685 289.345 290.796 289.411 291.796C289.478 292.867 288.699 293.35 287.781 293.461C286.278 293.638 284.764 293.761 283.256 293.794C280.172 293.86 277.084 293.866 274 293.849C273.037 293.849 272.158 294.049 271.401 294.599C269.136 296.242 266.47 297.263 264.361 299.145C263.849 299.6 263.17 299.617 262.513 299.606C255.099 299.456 247.703 300.1 240.284 299.989C233.299 299.883 226.353 299.262 219.396 298.823C216.697 298.656 214.003 298.496 211.304 298.379C203.311 298.029 195.319 297.84 187.338 297.169C182.496 296.764 177.626 296.647 172.767 296.419C171.743 296.369 170.725 296.347 169.701 296.181C168.549 295.998 167.397 295.909 166.506 297.119C165.549 298.429 164.519 297.302 163.696 296.797C163.133 296.453 162.683 296.053 161.981 296.097C161.069 296.159 160.534 295.731 160.501 294.799C160.473 294.044 159.928 293.833 159.349 293.633C155.024 292.14 150.722 290.558 146.359 289.17C142.719 288.01 138.956 287.216 135.339 285.995C131.56 284.718 127.914 283.064 124.169 281.676C120.289 280.238 116.622 278.185 112.687 277.036C108.696 275.87 104.906 274.177 100.91 273.039C97.4482 272.056 94.1589 270.402 90.7305 269.364C85.048 267.638 79.7718 264.862 73.9502 263.491C69.8706 262.531 65.997 260.738 61.973 259.522C56.0846 257.746 50.5023 255.165 44.6863 253.205C41.269 252.056 37.9909 250.458 34.5457 249.397C31.6127 248.493 28.8688 247.033 25.8133 246.5C25.0898 246.372 24.4219 245.928 23.7429 245.601C19.9973 243.808 16.1403 242.309 12.1943 241.01C9.43376 240.1 6.84575 238.717 3.99616 237.996C2.98322 237.741 2.99436 236.719 2.98323 235.831C2.9387 231.518 3.01662 227.21 2.72721 222.897C2.18178 214.737 2.07603 206.544 1.28015 198.412C0.178162 187.155 0.996305 175.898 0.706894 164.646C0.25608 146.339 -0.216996 128.015 0.111374 109.686C0.200424 104.585 0.734722 99.4946 1.07979 94.3989C1.11318 93.9048 1.14101 93.4552 0.912821 92.9889C0.601147 92.3561 0.862731 91.8399 1.40259 91.4458C1.93133 91.0572 2.52685 91.1682 2.88304 91.5846C4.06852 92.9778 5.25399 92.4505 6.44503 91.6845C7.50249 91.0073 9.03303 90.9018 9.0386 89.0145C9.0386 87.7489 10.2797 87.3881 11.6043 88.1985C12.339 88.6537 13.018 88.9812 13.864 88.6648C14.7712 88.3262 15.4724 87.9987 15.1107 86.6886C14.671 85.0955 15.6116 84.4183 17.2256 84.8235C18.4389 85.1288 19.4407 85.8393 20.6373 86.4388C20.7542 85.634 20.2032 85.2454 19.9861 84.7403C19.4017 83.3914 20.0529 82.4588 21.5111 82.6309C22.0955 82.6975 22.7355 82.7697 23.2309 83.0472C25.0954 84.0964 26.8819 83.4691 28.7353 83.0361C29.9096 82.7586 30.4773 82.2312 30.6164 81.0156C30.8057 79.3448 31.4624 78.9284 33.0208 79.4613C34.9854 80.1385 36.9223 80.7991 39.0149 80.0608C39.6939 79.8221 39.8108 80.5771 40.4008 80.8935C40.4008 79.9332 40.3284 79.1227 40.4175 78.3289C40.5677 77.0356 41.5195 76.4305 42.5769 77.1577C45.2762 79.0061 47.6305 77.6351 50.0738 76.6581C50.725 76.3972 50.8697 75.8255 51.0756 75.2759C51.5542 73.9937 52.3501 73.644 53.6024 74.3378C54.593 74.8874 55.606 75.7311 56.5243 74.0991C56.7525 73.6884 57.5428 73.5385 58.1105 73.3775C58.8841 73.1555 59.4296 72.7891 59.7746 72.0064C60.2533 70.9296 61.0714 70.6187 62.1456 71.2848C62.4183 71.4513 62.73 71.5679 63.0249 71.7011C64.6241 72.4116 65.5165 71.925 65.702 70.2412C65.8523 68.8424 67.5442 67.5046 68.7575 68.2151C70.9448 69.4974 72.698 68.0375 74.6348 67.8044C75.3472 67.7211 76.2599 66.622 76.6996 67.7544C77.0391 68.6315 75.7869 68.7258 75.1746 69.0644C74.5624 69.3975 73.9057 69.6584 73.1822 69.9914C74.6069 70.874 76.2544 70.6631 77.6903 71.2348C78.4862 71.5513 78.7144 70.9129 78.7144 70.2301C78.7199 68.5593 78.7032 66.8885 78.7311 65.2176C78.7645 63.3636 79.4602 62.6476 81.1465 63.3525C83.1501 64.1907 84.6807 63.1416 86.3838 62.7253C87.2631 62.5088 88.0757 61.9259 89.0052 61.9481C89.6508 61.9648 89.8177 61.7317 89.9736 61.1877C90.3799 59.7833 91.365 59.206 92.8232 58.984C94.1812 58.773 95.4835 58.1735 96.797 57.7072C97.5706 57.4297 97.5038 56.7247 97.5539 56.0753C97.6318 55.0705 97.5205 54.0769 98.1439 53.1222C99.5297 50.9906 101.756 50.7131 103.748 51.1571C106.798 51.8344 109.347 50.8296 112.002 49.8138C112.742 49.5307 113.065 49.07 113.16 48.2596C113.254 47.4214 113.583 46.5998 113.883 45.8005C114.724 43.5468 115.959 42.9529 118.319 43.5579C120.384 44.0908 122.527 44.2185 124.503 45.2176C125.582 45.7616 126.579 44.5737 127.658 44.2851C128.961 43.9409 130.213 43.5912 130.113 41.6873C130.057 40.5937 131.927 39.5335 132.857 39.9665C135.539 41.2154 138.177 41.1655 140.843 39.9609C141.188 39.8055 141.556 39.7111 141.917 39.6001C144.55 38.7952 144.567 38.7897 144.4 36.0031C144.361 35.3314 144.589 34.8319 145.184 34.5432C145.735 34.2768 146.214 34.4377 146.648 34.8707C148.268 36.4638 150.143 36.4194 152.041 35.5313C155.943 33.6939 159.855 31.8732 163.662 29.8249C165.699 28.7258 168.042 28.4816 170.241 27.8488C173.33 26.9606 176.446 26.017 179.318 24.4405C181.505 23.2415 183.81 22.2423 186.08 21.2099C189.442 19.6778 192.971 18.5676 196.06 16.3584C197.434 15.3758 199.048 14.4988 200.646 13.7217C202.694 12.7225 204.603 11.4347 206.412 10.0247C206.918 9.63063 207.603 8.98117 208.053 9.08664C209.996 9.55292 211.048 7.82658 212.634 7.46577C214.315 7.0883 215.901 6.33893 217.66 6.24456C218.183 6.21681 218.506 5.8782 218.667 5.33976C219.084 3.92982 220.186 3.7633 221.389 4.0575C222.435 4.31284 223.453 4.6903 224.466 5.06777C225.362 5.40082 225.813 5.21209 225.774 4.18517C225.746 3.43024 225.73 2.66976 225.797 1.92039C225.969 0.0941323 226.937 -0.327738 228.691 0.1996C232.815 1.44856 236.989 2.54209 241.141 3.68558C243.378 4.30174 245.604 4.97895 247.859 5.50629C256.213 7.46577 264.511 9.74165 273.01 10.9851C278.564 11.7955 284.029 13.2054 289.639 13.5773C294.198 13.8826 298.55 15.3259 303.047 15.8255C309.23 16.5138 315.286 17.9015 321.447 18.6953C324.052 19.0284 326.534 20.2218 329.133 20.6381C334.298 21.4597 339.251 23.2193 344.533 23.6134C348.051 23.8743 351.457 25.3342 354.974 25.8393C358.531 26.35 361.881 27.6045 365.398 28.1707C366.645 28.3706 367.358 28.9756 367.202 30.3523C367.09 31.357 367.625 31.8066 368.615 31.9065C373.073 32.3728 377.431 33.5662 381.934 33.7383C382.207 33.7494 382.474 33.7827 382.746 33.7772C385.062 33.7161 385.54 34.1102 385.462 36.5027C384.661 61.4541 385.607 86.4222 384.995 111.368C384.722 122.525 384.911 133.677 384.633 144.829C384.594 146.356 385.023 147.177 386.514 147.921C388.613 148.965 390.394 150.596 392.653 151.44C399.521 153.999 406.278 156.897 413.252 159.112C417.932 160.594 422.173 163.197 426.993 164.207C431.779 165.207 436.148 167.321 440.696 168.992C446.361 171.068 452.166 172.817 457.988 174.41C461.522 175.381 465.045 176.364 468.485 177.602C470.355 178.273 470.538 179.55 469.075 180.893C467.767 182.092 466.275 183.097 464.878 184.196C464.65 184.374 464.205 184.507 464.416 184.901C464.516 185.084 464.867 185.195 465.112 185.218C467.711 185.445 470.06 186.777 472.687 186.927C473.538 186.977 474.072 187.588 474 188.482C473.933 189.325 473.332 189.625 472.525 189.664C471.64 189.703 470.8 189.531 469.982 189.231C467.433 188.287 464.756 187.877 462.095 187.41C461.132 187.244 460.286 187.371 459.619 188.21C459.324 188.581 458.828 188.781 458.494 189.131C458.144 189.497 457.253 189.47 457.415 190.125C457.548 190.658 458.327 190.569 458.823 190.73C459.719 191.018 460.782 191.313 460.515 192.484C460.225 193.761 459.134 193.611 458.127 193.316C457.765 193.211 457.387 193.139 457.036 193.006C455.11 192.273 453.357 192.073 451.788 193.894C451.048 194.749 449.584 194.726 448.799 195.759C449.472 196.264 450.324 196.225 451.053 196.536C451.732 196.825 452.422 197.124 452.116 198.046C451.832 198.901 451.109 199.167 450.291 199.006C448.593 198.673 446.907 198.285 445.226 197.896C444.63 197.757 444.052 197.713 443.489 198.001C441.82 198.851 440.15 199.7 438.28 200.649C439.477 201.254 440.568 201.443 441.625 201.748C442.454 201.987 443.272 202.27 444.068 202.592C444.97 202.964 445.02 203.763 444.736 204.502C444.452 205.245 443.751 205.223 443.072 205.034C440.629 204.363 438.263 203.464 435.709 203.147C433.293 202.847 431.958 204.74 430.099 205.556C429.614 205.767 429.87 206.2 430.366 206.3C430.945 206.417 431.535 206.561 432.119 206.583C432.837 206.616 433.527 206.739 434.173 207.011C435.002 207.36 435.837 207.877 435.508 208.915C435.202 209.88 434.312 209.775 433.449 209.62C431.217 209.214 428.986 208.815 426.743 208.509C425.028 208.276 423.687 209.364 422.273 210.058C420.932 210.719 419.68 211.551 418.361 212.317C418.489 212.678 418.928 212.667 419.229 212.839C419.936 213.25 419.93 213.905 419.769 214.543C419.585 215.276 418.956 215.337 418.333 215.232C417.96 215.17 417.598 215.054 417.242 214.932C415.378 214.305 413.764 214.482 412.088 215.742C410.218 217.147 408.053 218.162 405.833 219.461C407.697 219.878 409.306 220.394 410.708 221.454C411.409 221.987 411.571 222.564 411.203 223.258C410.803 224.008 410.062 224.185 409.411 223.697C407.569 222.32 405.387 222.292 403.267 221.931C402.382 221.782 401.653 221.887 401.013 222.459C399.85 223.502 398.408 224.124 396.972 225.057C398.024 225.856 399.176 225.595 400.15 225.934C401.013 226.239 402.371 226.084 402.037 227.538C401.736 228.865 400.601 228.737 399.521 228.509C398.569 228.304 397.557 228.315 396.649 227.993C392.458 226.505 390.254 229.847 387.299 231.379C387.321 231.523 387.344 231.673 387.36 231.818C388.646 232.173 389.926 232.528 391.212 232.872C392.175 233.128 392.815 233.655 392.492 234.721C392.175 235.77 391.279 235.653 390.472 235.454C388.273 234.91 386.153 234.049 383.848 233.96C382.964 233.927 382.123 234.005 381.35 234.477C379.658 235.504 377.916 236.447 375.817 237.185H375.812ZM165.883 249.336C165.883 263.303 165.883 277.263 165.883 291.229C165.883 293.483 166.406 293.761 168.437 292.656C169.851 291.884 171.254 291.113 172.756 290.474C174.576 289.703 176.547 289.031 178.127 287.932C182.062 285.19 186.27 282.914 190.282 280.333C195.753 276.819 201.881 274.621 207.319 271.107C208.766 270.175 210.252 269.275 211.799 268.532C215.049 266.977 218.35 265.54 221.633 264.052C224.038 262.964 226.158 261.343 228.674 260.461C230.85 259.7 232.976 258.795 235.158 258.018C238.531 256.814 241.77 255.148 244.92 253.422C249.395 250.968 253.702 248.215 258.144 245.706C260.949 244.119 263.81 242.587 266.776 241.332C268.908 240.427 271.151 239.633 273.004 238.362C278.135 234.837 283.879 232.445 289.178 229.231C292.834 227.011 296.708 225.145 300.671 223.441C305.707 221.276 310.076 217.79 315.169 215.676C316.661 215.054 318.263 214.543 319.549 213.616C323.284 210.913 327.619 209.309 331.504 206.872C336.975 203.441 342.824 200.738 348.947 198.568C355.392 196.275 361.43 192.983 367.836 190.58C372.35 188.887 376.413 186.306 380.682 184.141C382.246 183.347 383.014 182.242 382.997 180.305C382.913 171.257 382.095 162.226 382.045 153.2C381.967 138.068 382.017 122.936 382.446 107.788C383.075 85.4286 382.607 63.0417 382.607 40.6659C382.607 40.2884 382.574 39.9054 382.613 39.5335C382.713 38.6287 382.285 38.3511 381.472 38.5732C381.01 38.7009 380.559 38.884 380.12 39.0728C377.387 40.244 375.033 42.1258 372.333 43.3248C368.204 45.1621 364.213 47.2604 360.222 49.3642C357.74 50.6687 355.319 52.0952 352.809 53.3442C348.952 55.2648 344.995 56.9801 341.088 58.7897C336.018 61.1377 330.97 63.5468 325.983 66.0503C320.84 68.6259 315.698 71.1738 310.472 73.5829C306.704 75.3203 302.98 77.1355 299.168 78.7841C296.947 79.7444 294.654 80.5604 292.472 81.6206C289.857 82.8918 287.235 84.1574 284.547 85.262C279.421 87.377 274.173 89.2088 269.119 91.4735C263.715 93.8993 258.489 96.7192 253.157 99.3059C251.515 100.105 249.751 100.655 248.087 101.415C245.298 102.686 242.527 104.013 239.772 105.351C235.909 107.227 232.08 109.159 228.362 111.296C225.785 112.778 223.103 114.021 220.403 115.237C216.335 117.069 212.339 119.039 208.499 121.31C204.831 123.48 201.085 125.523 197.234 127.333C192.698 129.464 188.195 131.64 183.726 133.916C181.238 135.182 178.812 136.58 176.246 137.729C173.04 139.167 169.712 140.266 166.451 141.548C164.97 142.131 163.952 143.081 163.929 144.746C163.89 147.815 163.729 150.885 163.679 153.949C163.534 162.792 163.556 171.635 163.612 180.477C163.634 183.863 163.495 187.333 164.163 190.619C165.399 196.68 165.605 202.825 165.766 208.909C166.128 222.381 165.877 235.864 165.877 249.342L165.883 249.336ZM161.174 150.896C161.174 149.281 161.069 147.654 161.202 146.045C161.341 144.368 160.512 143.758 159.048 143.425C156.104 142.753 153.138 142.187 150.277 141.193C148.546 140.594 146.787 140.083 145.056 139.484C141.016 138.096 136.73 137.679 132.684 136.292C130.085 135.398 127.436 134.632 124.786 133.905C123.022 133.422 121.219 133.078 119.421 132.706C114.713 131.74 109.937 130.874 105.585 128.826C102.797 127.516 100.086 126.145 97.0419 125.59C94.8045 125.184 92.6228 124.585 90.43 124.03C88.866 123.636 87.3188 123.142 85.7604 122.775C78.514 121.066 71.2565 119.411 64.1214 117.274C60.2477 116.114 56.4631 114.615 52.5338 113.722C46.6843 112.395 40.9629 110.658 35.1858 109.098C33.9391 108.759 32.7369 108.254 31.5014 107.86C26.0137 106.111 20.437 104.59 15.6004 101.276C15.0328 100.888 14.4539 100.516 13.736 100.349C10.3966 99.5612 7.28543 98.2512 4.51933 96.1974C4.28001 96.0198 4.11304 95.5979 3.72902 95.8255C3.41734 96.0142 3.48413 96.4083 3.49526 96.7136C3.72902 101.948 2.67712 107.122 2.73834 112.356C2.91644 126.744 2.71608 141.127 3.3116 155.52C3.7958 167.255 3.41734 179.023 3.42847 190.78C3.42847 192.129 3.32829 193.505 3.57318 194.815C4.71413 200.932 4.58612 207.155 4.94788 213.316C5.35417 220.244 6.01091 227.183 5.7215 234.144C5.67141 235.348 6.25023 235.898 7.26874 236.27C10.4022 237.407 13.5245 238.579 16.6523 239.733C19.7913 240.888 22.7578 242.503 25.8912 243.575C29.2529 244.724 32.6368 245.873 35.965 247.083C40.8182 248.848 45.7382 250.447 50.4912 252.506C54.2925 254.155 58.2441 255.437 62.1734 256.758C66.6648 258.273 71.1006 259.933 75.7034 261.138C78.4639 261.859 81.2634 262.664 83.7958 263.93C87.5414 265.801 91.6544 266.583 95.4446 268.31C99.5575 270.186 104.094 270.963 108.234 272.822C108.724 273.044 109.186 273.439 109.692 273.5C113.399 273.977 116.605 275.853 120.039 277.086C120.946 277.408 121.731 278.101 122.644 278.357C125.716 279.212 128.593 280.572 131.565 281.671C134.504 282.759 137.448 283.769 140.459 284.629C144.862 285.884 149.314 287.077 153.549 288.781C156.31 289.892 159.26 290.43 161.92 291.773C162.761 292.195 163.128 291.79 163.122 290.93C163.122 290.497 163.128 290.069 163.128 289.636C163.128 263.164 163.122 236.691 163.133 210.219C163.133 205.64 162.132 201.116 162.41 196.525C162.421 196.364 162.388 196.203 162.349 196.048C160.885 190.297 160.957 184.407 160.868 178.557C160.729 169.342 160.701 160.122 161.158 150.913L161.174 150.896ZM252.895 96.2085C256.062 95.5424 258.205 93.4774 260.838 92.3672C262.875 91.5068 264.823 90.4022 266.898 89.6584C269.531 88.7203 270.85 87.3325 270.043 84.3295C269.748 83.2249 269.503 82.6698 268.357 82.42C264.873 81.6539 261.338 81.1488 257.86 80.4327C250.73 78.9728 243.634 77.2965 236.638 75.3092C232.592 74.1602 228.518 73.1444 224.439 72.1341C223.075 71.7955 221.767 71.1294 220.392 70.974C215.433 70.4133 210.769 68.6204 205.922 67.5768C200.189 66.3445 194.518 64.7292 188.802 63.3581C181.834 61.6817 174.838 60.1108 167.964 58.0514C161.508 56.1141 155.035 54.1879 148.34 53.1888C144.433 52.6059 140.621 51.5124 136.73 50.924C132.601 50.3023 128.682 48.9201 124.619 48.0597C122.41 47.5879 120.1 47.0939 117.952 46.2335C117.156 45.9171 116.761 46.078 116.399 46.9773C115.753 48.5982 115.842 50.2412 115.781 51.9065C115.726 53.4774 116.338 54.2213 117.891 54.5654C120.306 55.0983 122.677 55.8255 125.054 56.5193C131.12 58.2845 137.315 59.4835 143.492 60.7769C150.355 62.209 157.011 64.4738 163.94 65.7394C170.035 66.8496 175.984 68.7314 182.051 70.047C186.425 70.9962 190.817 71.8788 195.108 73.1055C198.731 74.1435 202.276 75.448 205.989 76.2085C208.365 76.697 210.658 77.6961 213.046 78.0125C217.454 78.5954 221.622 80.1718 226.041 80.7047C228.919 81.0489 231.702 82.0869 234.551 82.7031C240.356 83.9631 246.044 85.6451 251.766 87.2215C252.884 87.5268 253.296 88.2096 253.09 89.4086C252.701 91.6401 252.973 93.8993 252.884 96.2029L252.895 96.2085ZM250.179 93.4441C250.179 92.6892 250.102 91.9232 250.196 91.1793C250.352 89.9193 249.851 89.3142 248.61 89.07C246.924 88.7369 245.248 88.3151 243.59 87.8377C237.006 85.9448 230.355 84.3739 223.62 83.075C216.157 81.6317 208.716 79.9554 201.391 77.9237C195.002 76.153 188.702 74.138 182.179 72.828C174.304 71.2515 166.545 69.1144 158.686 67.3992C151.952 65.9282 145.323 63.9354 138.561 62.5421C131.743 61.1377 125.02 59.367 118.33 57.4519C113.143 55.9698 107.928 54.5266 102.591 53.6384C101.094 53.3886 100.353 54.0325 100.303 55.5146C100.27 56.5915 100.398 57.6906 100.248 58.7453C99.9861 60.5327 100.882 61.2987 102.402 61.9648C105.719 63.4136 109.364 63.4691 112.742 64.5904C115.798 65.6062 119.076 65.2732 122.143 66.2113C124.158 66.8274 126.15 67.76 128.209 67.9432C132.845 68.3539 137.059 70.3023 141.572 71.146C146.437 72.0564 151.19 73.5496 156.004 74.7375C159.087 75.498 162.237 75.9143 165.321 76.7858C171.025 78.3955 176.83 79.639 182.58 81.0822C187.027 82.1979 191.451 83.3803 195.881 84.5571C198.13 85.1566 200.484 85.1677 202.705 85.8838C205.471 86.783 208.237 87.6101 211.126 88.1485C216.585 89.1755 222.006 90.4522 227.394 91.8177C230.644 92.6392 233.995 92.9723 237.184 94.0214C238.174 94.3489 238.915 94.8263 238.592 95.9753C238.08 97.7849 238.436 99.6168 238.33 101.437C238.252 102.797 238.965 102.97 239.922 102.337C241.965 100.993 244.208 100.028 246.478 99.2504C249.423 98.2401 250.986 96.6748 250.179 93.4386V93.4441ZM81.4582 66.9828C81.4582 67.5046 81.4582 68.0431 81.4582 68.5815C81.4582 71.0461 82.6659 72.543 85.0814 73.0722C85.1872 73.0944 85.2929 73.1222 85.3931 73.1666C89.4727 74.9873 93.914 75.4924 98.1773 76.6415C99.9527 77.1188 101.689 77.8682 103.492 78.0625C107.867 78.5399 112.041 79.8943 116.265 80.9323C121.809 82.2923 127.235 84.1574 132.806 85.4508C140.476 87.2271 148.056 89.3364 155.854 90.6131C162.182 91.6512 168.387 93.3997 174.638 94.8929C178.678 95.8588 182.719 96.8524 186.765 97.7794C190.811 98.7064 194.868 99.5946 198.887 100.627C204.525 102.076 210.102 103.774 215.712 105.318C216.752 105.606 217.231 106.35 216.708 107.072C215.261 109.07 216.201 111.251 215.934 113.322C215.829 114.149 216.268 114.205 216.931 113.916C218.105 113.389 219.301 112.9 220.487 112.401C221.761 111.862 222.402 111.018 222.301 109.531C222.162 107.488 222.207 105.434 222.19 103.386C222.19 102.742 222.062 102.226 221.361 101.987C219.875 101.487 218.422 100.877 216.919 100.46C212.923 99.3559 208.849 98.4844 204.903 97.2354C199.555 95.5368 194.145 94.1047 188.702 92.7336C182.218 91.1016 175.762 89.3642 169.261 87.7877C162.761 86.2113 156.321 84.4016 149.787 82.9751C142.619 81.4097 135.456 79.8332 128.315 78.1458C120.913 76.3972 113.544 74.5043 106.158 72.7058C103.537 72.0675 100.916 71.2848 98.2441 70.9851C92.5115 70.3522 87.1462 68.3595 81.4582 66.9884V66.9828ZM282.916 77.5407C282.916 76.5693 282.916 75.5979 282.916 74.632C282.916 72.7299 281.994 71.5586 280.15 71.1183C279.733 71.0184 279.293 70.9073 278.876 70.9351C277.1 71.0572 275.442 70.6298 273.817 69.997C271.551 69.1144 269.253 68.4316 266.826 68.0542C260.409 67.0717 254.42 64.4239 248.064 63.136C243.311 62.1757 238.653 60.7491 233.967 59.5002C232.303 59.0561 230.689 58.501 228.974 58.1791C221.505 56.7636 214.242 54.471 206.812 52.828C200.718 51.4846 194.696 49.8027 188.613 48.3928C183.737 47.2604 178.851 46.078 174.036 44.657C172.69 44.2629 171.376 43.7355 170.007 43.4469C164.208 42.2201 158.392 41.0933 152.592 39.861C151.334 39.5946 150.143 39.0117 148.897 38.6675C147.8 38.3622 146.988 38.5121 147.06 40.0053C147.244 43.8799 146.214 43.0861 150.355 44.4516C150.405 44.4683 150.461 44.4794 150.511 44.4905C155.904 45.7783 161.286 47.1161 166.695 48.3262C169.139 48.8702 171.376 50.0359 173.803 50.5188C177.726 51.3015 181.383 52.9556 185.318 53.7328C188.151 54.2934 190.889 55.3481 193.733 56.0253C203.974 58.4733 214.337 60.3495 224.628 62.5476C229.57 63.6023 234.612 64.4128 239.449 65.7838C244.998 67.3603 250.73 68.1541 256.179 70.0803C256.892 70.33 257.632 70.5354 258.372 70.6465C263.765 71.4513 269.025 72.8446 274.256 74.3323C275.392 74.6542 276.427 75.2593 277.657 75.3481C278.542 75.4147 278.948 76.0142 278.775 76.9523C278.369 79.1449 278.675 81.3597 278.592 83.5635C278.558 84.5293 278.993 84.6348 279.811 84.3073C282.905 83.0694 282.911 83.0861 282.911 79.811C282.911 79.0561 282.911 78.3012 282.911 77.5462L282.916 77.5407ZM356.187 43.1971C356.187 44.9123 356.204 46.1002 356.187 47.2826C356.171 48.2873 356.61 48.4039 357.378 47.932C358.892 47.005 360.428 46.1113 362.081 45.4341C364.135 44.5959 365.014 43.2249 364.853 40.8269C364.664 38.0458 364.469 35.2371 364.486 32.4394C364.491 31.2015 364.096 30.6353 362.827 30.3689C355.82 28.8924 348.908 26.9828 341.761 26.1058C337.103 25.534 332.606 24.063 328.003 23.1249C324.207 22.3534 320.467 21.3042 316.627 20.7103C306.709 19.1727 296.869 17.1577 286.907 15.9254C283.206 15.4702 279.571 14.5987 275.892 14.0769C269.47 13.1666 263.136 11.901 256.836 10.3967C248.91 8.50379 240.979 6.63868 233.204 4.17962C232.024 3.8077 230.739 3.91317 229.576 3.41914C229.208 3.26371 228.846 3.30257 228.624 3.74664C228.151 4.6681 228.696 6.26122 229.67 6.54431C234.952 8.07637 240.273 9.50851 245.571 10.9684C249.862 12.1508 254.214 13.2498 258.595 14.1935C263.537 15.2537 268.518 16.3139 273.338 17.9182C274.306 18.2401 275.33 18.4844 276.343 18.5621C282.015 18.995 287.497 20.5327 293.057 21.5596C298.606 22.5809 304.099 24.1019 309.626 25.3176C315.258 26.561 320.851 27.9654 326.439 29.3642C331.788 30.702 337.214 31.5568 342.607 32.6281C346.164 33.3331 349.776 33.5385 353.405 33.5718C355.386 33.5884 357.033 35.4203 356.699 37.1355C356.276 39.317 356.176 41.5152 356.193 43.1971H356.187ZM225.006 105.967C225.006 106.572 225.028 107.704 225.001 108.837C224.973 109.819 225.134 110.125 226.153 109.509C228.869 107.871 231.585 106.228 234.546 105.04C235.737 104.563 235.948 103.597 235.803 102.525C235.586 100.916 235.547 99.3003 235.592 97.685C235.614 96.7192 235.258 96.1752 234.256 96.0253C230.995 95.5368 227.811 94.7097 224.628 93.8549C223.431 93.5329 222.229 93.1999 221.016 92.9445C216.213 91.9398 211.376 91.0739 206.606 89.9304C203.89 89.2754 201.28 88.2318 198.481 87.7988C191.696 86.7552 185.229 84.3683 178.511 82.9529C173.986 81.9981 169.506 80.7269 165.015 79.5501C163.762 79.2226 162.555 78.6231 161.286 78.4566C155.865 77.735 150.694 75.9698 145.374 74.8318C139.63 73.6051 134.059 71.69 128.237 70.7408C124.419 70.1191 120.824 68.6259 116.911 68.0986C109.047 67.0383 101.494 64.496 93.9196 62.1813C92.9456 61.8815 92.4781 61.8926 92.5115 63.0417C92.5393 64.0131 92.5504 64.9845 92.5004 65.9504C92.4558 66.8108 92.8844 67.1716 93.6413 67.4602C95.2943 68.093 97.0642 67.9265 98.7394 68.3151C104.049 69.5474 109.403 70.5965 114.679 71.9898C120.573 73.544 126.534 74.8207 132.461 76.264C135.239 76.9412 137.966 77.7405 140.788 78.3012C148.09 79.7444 155.364 81.3708 162.577 83.2193C169.161 84.9068 175.817 86.3389 182.34 88.2262C189.854 90.3967 197.54 91.8899 204.97 94.4044C209.901 96.0697 215.033 97.2021 220.019 98.7508C225.669 100.505 224.778 99.7 225.012 105.984L225.006 105.967ZM11.6433 94.2157C11.6433 96.2214 12.6303 97.4445 14.6042 97.8849C15.0717 97.9903 15.5726 98.118 15.9678 98.3733C19.3572 100.621 22.9749 102.331 26.8875 103.508C31.0227 104.751 35.0578 106.322 39.2042 107.51C44.2299 108.953 49.3503 110.058 54.3871 111.468C59.8915 113.011 65.3235 114.799 70.8168 116.358C74.2396 117.33 77.7292 118.079 81.1799 118.94C84.2132 119.694 87.2687 120.383 90.2686 121.26C95.862 122.897 101.962 122.981 106.904 126.644C107.277 126.922 107.8 127.011 108.262 127.166C114.941 129.342 121.948 130.18 128.655 132.306C134.504 134.16 140.532 135.459 146.448 137.102C149.147 137.852 151.774 138.851 154.451 139.694C155.136 139.911 156.165 140.372 156.444 139.45C156.917 137.89 156.56 136.231 156.243 134.649C156.026 133.566 154.952 134.316 154.295 134.049C149.91 132.256 145.507 130.535 140.76 129.781C137.626 129.286 134.604 128.049 131.465 127.627C128.771 127.266 126.133 126.911 123.595 125.912C122.538 125.495 121.425 125.301 120.273 125.256C117.295 125.134 114.345 124.779 111.54 123.702C108.563 122.559 105.385 122.043 102.313 121.465C97.6207 120.583 93.2628 118.779 88.7658 117.419C82.4322 115.498 76.2655 113.011 69.8372 111.363C62.3181 109.431 54.9882 106.877 47.5637 104.635C42.6771 103.158 38.041 100.86 32.9095 100.194C32.5477 100.15 32.1748 99.9776 31.8576 99.7833C29.7315 98.4844 27.3606 97.6739 25.062 96.8191C21.4276 95.4647 17.8601 93.9492 14.2369 92.5615C11.5932 91.5513 11.6322 91.4458 11.6322 94.2157H11.6433ZM24.1993 86.5665C24.0212 87.8266 24.5499 88.4483 25.6074 88.8313C30.071 90.43 34.4066 92.3395 38.7088 94.3267C41.0575 95.4091 43.768 95.4813 45.9942 96.9357C46.573 97.3131 47.2409 97.6906 47.9032 97.785C50.9754 98.2179 53.7415 99.639 56.669 100.51C63.9321 102.659 70.9615 105.562 78.1467 108.01C84.6584 110.23 91.3204 111.773 97.9658 113.4C104.978 115.12 112.091 116.431 119.182 117.818C123.523 118.668 127.898 119.384 132.25 120.039C136.597 120.694 140.81 121.854 145.023 122.903C149.258 123.958 153.522 124.923 157.74 126.056C159.404 126.5 161.069 126.999 162.766 127.288C166.2 127.871 167.491 129.32 167.53 132.817C167.541 133.677 167.608 134.538 167.714 135.393C168.037 137.946 168.048 137.946 170.53 137.291C173.185 136.591 173.48 136.203 173.48 133.394C173.48 131.995 173.402 130.585 173.502 129.192C173.597 127.91 173.068 127.371 171.844 127.111C166.829 126.039 161.876 124.707 156.933 123.336C156.204 123.136 155.486 122.892 154.746 122.742C147.5 121.26 140.415 119.178 133.341 117.058C129.211 115.82 125.115 114.482 120.991 113.239C119.499 112.789 117.902 112.867 116.388 112.367C111.112 110.619 105.674 109.386 100.309 107.988C93.8918 106.317 87.5971 104.252 81.2078 102.509C72.5811 100.155 64.2883 96.7136 55.6338 94.4211C54.0198 93.9937 52.4614 93.2498 50.7639 93.2387C46.5675 93.2165 42.6326 91.7233 38.5419 91.1016C35.375 90.6187 32.3084 89.4197 29.2918 88.204C27.6611 87.5435 25.9358 87.1161 24.1937 86.561L24.1993 86.5665ZM347.088 47.5324H347.099C347.099 49.0422 347.104 50.5521 347.099 52.0619C347.093 52.8335 347.227 53.1666 348.123 52.7447C349.631 52.0286 350.945 50.9462 352.581 50.4633C353.199 50.2801 353.377 49.6639 353.393 49.0089C353.494 45.2398 353.594 41.4708 353.739 37.7017C353.778 36.6526 353.382 36.2418 352.325 36.2806C350.433 36.3584 348.551 36.1752 346.665 35.9587C341.244 35.3314 335.89 34.2546 330.575 33.1222C324.358 31.7955 318.252 29.9692 312.024 28.637C306.431 27.438 300.882 26.0503 295.311 24.7458C293.786 24.3906 292.272 23.8743 290.725 23.73C285.604 23.2471 280.629 21.9592 275.592 21.0711C268.273 19.7777 261.166 17.4463 253.892 15.8588C249.795 14.9651 245.727 13.8715 241.692 12.6503C236.021 10.9351 230.255 9.54737 224.561 7.89319C221.216 6.92178 221.283 6.80521 221.338 10.3689C221.355 11.4791 221.75 12.0064 222.858 12.2451C225.39 12.7836 227.956 13.2665 230.433 13.9548C237.245 15.8477 244.124 17.413 251.048 18.8396C253.753 19.4003 256.324 20.4938 259.001 21.06C263.164 21.937 267.205 23.2637 271.451 23.8688C275.108 24.3906 278.592 25.8782 282.282 26.5332C285.566 27.1161 288.727 28.2318 292.044 28.8091C299.006 30.0247 305.68 32.4672 312.514 34.249C316.872 35.3869 321.313 36.3861 325.538 38.0458C325.933 38.2013 326.378 38.3012 326.801 38.2956C329.105 38.279 331.32 38.8174 333.491 39.4613C337.242 40.5826 341.094 41.1433 344.962 41.3931C346.609 41.4985 347.071 42.0814 347.077 43.4802C347.082 44.8291 347.077 46.178 347.077 47.5213L347.088 47.5324ZM319.187 61.9759C319.187 62.4422 319.165 62.7142 319.187 62.9806C319.304 64.0297 318.709 65.7228 319.466 65.9726C320.323 66.2557 321.625 65.3786 322.66 64.8513C323.334 64.5071 324.152 64.1963 324.163 63.1416C324.202 60.3939 324.697 57.6739 324.564 54.9096C324.525 54.0603 324.358 53.5995 323.389 53.3386C320.005 52.4338 316.655 51.4458 313.249 50.5965C306.865 49.0145 300.476 47.4325 294.103 45.8005C286.723 43.9187 279.26 42.481 271.83 40.8435C264.516 39.2282 257.281 37.2354 249.857 36.103C245.844 35.4924 242.048 33.9826 238.035 33.3331C234.735 32.7947 231.501 31.801 228.223 31.2348C223.598 30.4355 219.006 29.4363 214.398 28.576C206.395 27.0883 198.57 24.7125 190.527 23.3192C189.976 23.2249 189.108 22.6143 189.013 23.73C188.947 24.5293 188.435 25.6451 189.731 26.0614C192.303 26.8885 194.841 27.8821 197.473 28.4483C204.285 29.9082 210.886 32.1285 217.66 33.7161C224.733 35.3703 231.635 37.7128 238.898 38.6509C243.49 39.2448 248.026 40.3106 252.6 41.1044C260.292 42.4311 268.023 43.7689 275.514 46.0225C280.161 47.4214 284.892 48.4927 289.562 49.7861C295.01 51.2959 300.431 52.9667 305.986 54.0936C309.097 54.7264 312.102 55.8976 315.358 55.881C316.393 55.881 317.44 56.4028 318.458 56.7636C319.132 57.0023 319.505 57.5518 319.338 58.2956C319.048 59.5779 319.26 60.8768 319.182 61.9703L319.187 61.9759ZM340.053 54.0603C340.064 51.1294 340.069 51.0961 337.493 50.3634C331.426 48.6481 325.343 46.9828 319.276 45.2565C317.462 44.7403 315.725 43.8077 313.889 43.5302C309.921 42.9307 306.192 41.4319 302.24 40.7936C299.146 40.294 296.229 39.1005 293.179 38.3678C285.41 36.4971 277.607 34.8319 269.759 33.3331C265.897 32.5948 262.112 31.5457 258.199 30.9184C249.461 29.5196 240.874 27.3103 232.097 26.0558C227.884 25.4508 223.709 24.4516 219.58 23.458C213.174 21.9204 206.617 21.0711 200.317 19.0839C199.711 18.8951 198.909 18.3678 198.481 19.3115C198.041 20.2773 198.853 22.3034 199.66 22.4921C203.974 23.4858 208.27 24.5793 212.606 25.4397C219.697 26.8552 226.759 28.4205 233.856 29.7694C240.902 31.1127 247.781 33.211 254.91 34.1713C257.888 34.571 260.693 35.8366 263.704 36.3084C271.334 37.5074 278.748 39.7167 286.345 41.1433C292.595 42.3201 298.739 44.063 304.917 45.6173C308.268 46.4611 311.546 47.6767 314.941 48.254C318.742 48.9035 322.26 50.4966 326.05 51.1294C327.129 51.307 327.569 52.0508 327.447 53.2831C327.18 55.9587 327.118 58.6509 326.962 61.3375C326.907 62.2812 327.029 62.6087 328.115 62.0869C331.126 60.6492 334.059 59.0561 337.159 57.8072C338.923 57.0966 340.837 56.3195 340.047 54.0492L340.053 54.0603ZM344.366 49.342H344.344C344.344 48.5315 344.361 47.7267 344.344 46.9162C344.277 43.7633 344.85 44.1075 341.516 43.7411C335.973 43.1305 330.608 41.6484 325.17 40.5826C319.287 39.428 313.572 37.3409 307.728 35.831C303.136 34.6431 298.628 33.0944 294.003 32.012C288.966 30.8352 283.885 29.8416 278.842 28.6814C275.275 27.8599 271.841 26.5721 268.179 25.9948C263.442 25.2509 258.895 23.5746 254.231 22.4311C248.421 21.0045 242.493 20.022 236.733 18.4344C229.548 16.4527 222.24 15.015 215.049 13.0722C213.279 12.5948 211.465 12.2618 209.679 11.8343C208.972 11.6678 208.476 11.7566 208.471 12.6059C208.46 14.2768 208.471 15.9476 208.476 17.6184C208.476 18.1846 208.771 18.5343 209.361 18.5732C213.981 18.8618 218.327 20.4882 222.813 21.393C231.229 23.0972 239.744 24.274 248.103 26.1668C254.532 27.6212 261.082 28.4039 267.472 30.0081C268.624 30.2967 269.77 30.6853 270.939 30.8241C275.887 31.4014 280.646 32.8779 285.538 33.7439C290.357 34.5987 295.033 36.2307 299.813 37.352C304.906 38.5454 309.993 39.7999 315.035 41.1377C320.963 42.7086 326.796 44.6626 332.728 46.239C335.689 47.0272 338.544 48.3151 341.683 48.3928C342.596 48.415 342.88 49.0367 342.841 49.8249C342.791 50.9018 342.613 51.9787 342.641 53.05C342.657 53.6662 342.034 54.7541 343.203 54.8208C344.194 54.8763 344.411 53.9826 344.372 53.0611C344.322 51.8232 344.361 50.5798 344.361 49.342H344.366ZM181.277 127.766C181.277 126.739 181.194 125.706 181.3 124.696C181.45 123.258 180.693 122.947 179.463 122.653C175.116 121.615 170.775 120.51 166.484 119.25C164.786 118.751 163.133 118.129 161.408 117.657C154.44 115.759 147.511 113.738 140.454 112.134C135.628 111.035 130.875 109.536 126.117 108.104C121.592 106.739 116.972 105.634 112.381 104.457C110.917 104.08 109.498 103.43 108.017 103.247C103.376 102.675 99.0733 100.838 94.5374 99.8332C90.5747 98.9562 86.7121 97.3575 82.7773 96.2806C78.4249 95.0872 74.1617 93.5662 69.687 92.7169C63.8041 91.5957 58.2163 89.3364 52.5226 87.5268C46.4951 85.6062 40.4731 83.7744 34.2341 82.6753C33.8779 82.6143 33.5161 82.3367 33.1933 82.7197C32.6868 83.3192 33.1877 86.6054 33.8946 86.8996C36.0429 87.7822 38.2747 88.4705 40.5677 88.7813C42.2318 89.0089 43.8848 89.1366 45.4543 89.8194C46.2391 90.1635 47.0461 90.4633 47.9533 90.4355C50.2407 90.3689 52.4837 90.6131 54.6598 91.3847C55.9789 91.8566 57.3091 92.4116 58.6782 92.6226C62.2847 93.1777 65.6797 94.4821 69.0581 95.6756C73.8445 97.3631 78.6253 98.995 83.523 100.322C89.6174 101.97 95.5837 104.046 101.706 105.617C108.028 107.238 114.306 109.02 120.679 110.447C126.261 111.696 131.638 113.694 137.109 115.331C143.52 117.252 149.993 118.906 156.483 120.488C162.605 121.981 168.604 124.013 174.882 124.873C175.745 124.99 176.101 125.456 176.085 126.433C176.04 128.798 176.196 131.163 176.218 133.527C176.229 134.588 176.613 134.699 177.509 134.271C181.272 132.462 181.277 132.473 181.277 128.254C181.277 128.093 181.277 127.932 181.277 127.771V127.766ZM285.71 75.8199C285.71 77.3853 285.71 78.9451 285.71 80.5104C285.71 81.1544 285.799 81.6151 286.629 81.2432C288.443 80.4327 290.268 79.6334 292.1 78.8507C292.795 78.5565 293.062 78.0458 293.057 77.3298C293.023 74.6875 293.001 72.0508 292.979 69.4086C292.979 68.8924 292.89 68.4538 292.272 68.3095C289.228 67.5879 286.378 66.2612 283.267 65.6673C279.41 64.9345 275.598 63.9132 271.813 62.8529C267.449 61.6373 263.175 60.1163 258.795 58.9562C252.745 57.352 246.695 55.7755 240.796 53.6884C240.59 53.6162 240.39 53.544 240.178 53.4941C235.041 52.284 229.932 50.9296 224.756 49.9082C218.678 48.7147 212.751 46.9162 206.673 45.7283C203.139 45.04 199.783 43.73 196.154 43.1971C188.045 42.0092 180.209 39.4391 172.15 37.896C169.155 37.3242 166.295 36.0586 163.222 35.6922C162.738 35.6367 162.176 35.2593 162.004 36.1863C161.636 38.2013 162.493 39.4169 164.497 39.6445C165.354 39.7444 166.194 39.9498 167.052 40.083C171.537 40.788 175.806 42.3756 180.203 43.4469C187.216 45.1566 194.273 46.7275 201.247 48.5926C207.658 50.3023 214.142 51.6956 220.57 53.3276C227.834 55.1705 235.136 56.8857 242.337 58.9673C246.389 60.1385 250.641 60.4494 254.576 61.987C257.253 63.0361 260.086 63.5191 262.797 64.4128C265.424 65.2843 268.34 65.04 270.839 66.1668C275.052 68.0597 279.677 68.0375 284.002 69.3531C285.137 69.6972 285.705 70.1635 285.71 71.2959C285.721 72.8058 285.71 74.3156 285.71 75.8255V75.8199ZM316.46 63.4413C316.46 62.581 316.46 61.715 316.46 60.8546C316.449 58.8063 315.97 58.34 313.861 58.2956C312.887 58.2734 311.924 58.2956 310.961 58.0569C303.643 56.1918 296.313 54.3711 288.999 52.4783C287.436 52.073 285.966 51.1516 284.397 50.974C280.395 50.5188 276.672 49.0145 272.765 48.1985C269.353 47.4824 266.036 46.3167 262.557 45.7561C258.611 45.1177 254.743 44.0186 250.786 43.4747C244.369 42.5921 238.035 41.2654 231.663 40.1607C229.971 39.8665 228.385 38.9895 226.698 38.6897C221.856 37.8349 217.17 36.3473 212.395 35.226C210.402 34.7597 208.499 34.0159 206.495 33.5274C198.959 31.6845 191.574 29.2643 183.954 27.71C182.146 27.3381 181.812 27.549 182.068 29.403C182.179 30.2024 182.658 30.5021 183.342 30.6353C184.188 30.7963 185.062 30.8518 185.88 31.0961C192.28 33.0056 198.62 35.0539 205.193 36.4472C211.721 37.8294 218.177 39.6223 224.689 41.1377C231.774 42.7808 238.642 45.2565 245.794 46.7053C248.844 47.3214 251.799 48.3983 254.866 49.0367C261.622 50.4355 268.401 51.7566 275.102 53.3942C281.859 55.0483 288.543 57.0078 295.339 58.501C298.762 59.2559 302.14 60.2662 305.646 60.6381C307.928 60.8768 308.485 61.4819 308.396 63.8077C308.312 66.0114 308.234 68.2207 308.128 70.4244C308.084 71.3736 308.412 71.5624 309.275 71.1738C310.499 70.6187 311.735 69.9803 312.982 69.5862C316.199 68.5704 317.1 66.5055 316.449 63.4469L316.46 63.4413ZM275.854 81.8482C275.854 81.0933 275.881 80.3384 275.848 79.5834C275.815 78.8119 276.076 77.8849 275.074 77.4796C273.421 76.8135 271.763 76.103 270.004 75.8088C265.106 74.9928 260.387 73.3831 255.478 72.6059C252.773 72.1785 250.263 70.9351 247.475 70.6687C244.669 70.4022 242.12 68.8979 239.371 68.4649C234.562 67.71 229.96 66.1669 225.156 65.3509C219.802 64.4405 214.465 63.2582 209.133 62.1091C201.853 60.5382 194.557 59.0284 187.344 57.1521C186.247 56.869 185.212 56.3362 184.11 56.1252C179.585 55.2759 175.244 53.7661 170.92 52.2895C166.35 50.7297 161.592 50.0247 156.967 48.7591C152.358 47.4991 147.672 46.4388 143.064 45.1177C140.047 44.2518 137.02 43.4913 133.892 43.136C133.235 43.0639 132.907 43.2082 132.779 43.9243C132.289 46.7663 132.684 47.4047 135.5 48.0486C135.973 48.1596 136.446 48.2651 136.931 48.3373C141.633 49.0089 146.286 49.9748 150.95 50.8463C159.009 52.3506 166.812 54.9595 174.715 57.141C179.903 58.5732 185.184 59.6834 190.455 60.8324C197.139 62.2868 203.701 64.274 210.385 65.7894C217.37 67.3714 224.311 69.1921 231.262 70.9462C237.785 72.5948 244.241 74.5321 250.792 76.103C253.63 76.7858 256.441 77.7572 259.318 78.0347C263.387 78.4289 267.266 79.6001 271.251 80.2995C272.447 80.5105 272.976 81.221 272.837 82.4921C272.72 83.5579 272.748 84.6459 272.804 85.7172C272.831 86.2279 272.959 86.894 273.766 86.6664C274.902 86.35 275.959 85.9504 275.865 84.4405C275.809 83.5801 275.854 82.7142 275.859 81.8538L275.854 81.8482ZM295.483 71.5901C295.433 73.1555 295.5 74.7097 295.756 76.264C295.873 76.9801 296.162 77.2465 296.836 76.9079C299.34 75.6478 302.056 74.8596 304.494 73.4441C305.012 73.1444 305.301 72.7947 305.323 72.1785C305.418 69.7083 305.518 67.2326 305.657 64.7625C305.719 63.6856 305.268 63.297 304.199 63.0972C300.164 62.3534 296.101 61.6928 292.15 60.6215C285.588 58.8452 279.037 57.0578 272.375 55.6922C268.885 54.9762 265.524 53.816 261.978 53.2665C254.192 52.0508 246.679 49.6084 238.993 47.8932C233.01 46.561 227.188 44.5404 221.194 43.136C215.739 41.8538 210.179 40.9157 204.881 39.0006C204.324 38.8008 203.729 38.6509 203.145 38.6065C198.887 38.3012 194.946 36.7303 190.95 35.4813C186.203 33.9992 181.35 32.9723 176.569 31.6567C175.578 31.3847 175.35 31.7233 175.3 32.6448C175.144 35.5757 175.116 35.5701 177.905 36.2529C182.045 37.2687 186.169 38.3678 190.327 39.3004C196.844 40.7547 203.401 42.0259 209.912 43.5024C213.636 44.3461 217.187 45.8116 221.032 46.3056C223.798 46.6609 226.442 47.9709 229.208 48.2596C233.227 48.6814 237.017 49.9859 240.84 51.0073C246.974 52.6392 253.051 54.5488 259.162 56.3084C267.973 58.8396 276.727 61.5485 285.699 63.4691C288.638 64.0964 291.287 65.7949 294.459 65.634C295.461 65.584 295.856 66.6831 295.684 67.5768C295.428 68.9201 295.539 70.2634 295.483 71.6012V71.5901ZM197.584 120.222C197.584 119.522 197.479 118.801 197.607 118.124C197.952 116.27 196.939 115.52 195.342 115.37C191.702 115.032 188.318 113.633 184.873 112.656C180.509 111.412 176.029 110.696 171.716 109.314C169.139 108.493 166.489 108.043 163.835 107.543C160.996 107.011 158.286 105.823 155.419 105.229C152.353 104.596 149.364 103.569 146.286 103.031C141.606 102.203 137.053 100.855 132.45 99.7444C129.128 98.9451 125.833 97.8071 122.543 96.7747C114.83 94.3656 106.976 92.456 99.129 90.5465C95.6672 89.7028 92.4057 88.2873 88.9272 87.4547C83.9015 86.2557 78.9982 84.5515 74.0504 83.025C67.6611 81.0489 61.166 79.4891 54.6988 77.8071C54.3259 77.7128 53.9975 77.5463 53.7972 78.0958C53.4076 79.1949 53.9975 80.5327 55.0995 80.738C58.617 81.3986 61.9396 82.7031 65.3569 83.6911C70.5775 85.201 75.7312 86.9329 80.9239 88.5149C85.0925 89.7861 89.2834 91.0517 93.4298 92.4116C98.9008 94.2101 104.466 95.7422 110.082 97.0578C114.546 98.1013 119.026 99.0617 123.445 100.261C127.246 101.293 131.042 102.353 134.832 103.419C141.544 105.306 148.362 106.733 155.108 108.482C160.328 109.836 165.577 111.102 170.742 112.673C176.213 114.338 181.951 114.987 187.338 116.991C188.301 117.352 189.275 117.624 190.327 117.635C191.54 117.652 192.275 118.235 192.553 119.533C192.959 121.415 192.692 123.297 192.837 125.173C192.87 125.573 192.609 126.245 193.538 126.028C196.861 125.24 197.568 124.385 197.568 121.032C197.568 120.76 197.568 120.494 197.568 120.222H197.584ZM68.5627 71.3736C68.1898 72.7503 68.6796 73.4996 70.1266 73.9492C74.657 75.3536 79.2988 76.3695 83.8069 77.8793C88.443 79.428 93.2239 80.5549 97.9491 81.8371C103.771 83.4191 109.603 84.9623 115.431 86.5443C116.783 86.9107 118.108 87.4158 119.471 87.7322C123.256 88.6093 126.946 89.8638 130.636 91.0128C134.966 92.3672 139.379 93.4108 143.743 94.5432C149.264 95.9753 154.88 97.1355 160.473 98.3234C165.215 99.3281 169.957 100.394 174.649 101.687C180.988 103.441 187.427 104.801 193.828 106.339C195.876 106.827 197.907 107.338 200 107.655C202.282 108.004 204.508 108.737 206.751 109.342C207.948 109.664 208.51 110.458 208.46 111.734C208.404 113.294 208.526 114.865 208.432 116.425C208.337 117.918 209.033 117.924 210.063 117.446C212.261 116.425 214.092 115.204 213.452 112.267C213.241 111.29 213.352 110.219 213.435 109.203C213.541 107.988 213.118 107.327 211.888 106.994C206.734 105.612 201.592 104.191 196.438 102.82C191.846 101.598 187.216 100.522 182.591 99.4669C172.389 97.1355 162.26 94.471 151.941 92.6614C146.409 91.69 141.032 90.0247 135.539 88.9312C130.497 87.9265 125.649 86.2779 120.707 84.9456C115.759 83.6134 110.794 82.3589 105.808 81.1988C99.7189 79.7833 93.6023 78.4788 87.5915 76.7525C86.4561 76.425 85.3541 75.9975 84.1853 75.7367C78.937 74.5543 73.7554 73.1111 68.5571 71.3847L68.5627 71.3736ZM205.955 115.953V115.631C205.955 111.868 205.966 111.818 202.354 110.968C196.533 109.603 190.644 108.482 184.867 106.95C179.652 105.567 174.387 104.363 169.155 103.053C161.052 101.021 152.848 99.4058 144.678 97.6573C142.396 97.1688 140.275 95.9809 138.027 95.6756C133.424 95.0539 129.222 93.1721 124.775 92.0675C119.816 90.8352 114.946 89.2365 110.01 87.8654C103.626 86.0891 97.2255 84.3794 90.8028 82.7364C86.6732 81.6817 82.6715 80.1607 78.5585 79.0395C73.5105 77.6628 68.4681 76.2862 63.459 74.7874C63.0194 74.6542 62.3404 73.9937 62.0844 74.7541C61.8506 75.4425 61.6614 76.3806 62.4906 76.969C62.7467 77.1521 63.0862 77.2243 63.3978 77.3076C67.5219 78.3789 71.6906 79.2892 75.7535 80.5493C81.4638 82.3256 87.0962 84.274 92.9345 85.695C96.1347 86.4722 99.346 87.5046 102.518 88.5371C106.526 89.8416 110.65 90.6687 114.718 91.7067C119.271 92.8724 123.757 94.2657 128.232 95.6423C132.05 96.8191 135.879 97.896 139.775 98.7564C141.416 99.1172 142.986 99.861 144.622 100.028C149.114 100.483 153.399 101.898 157.696 103.019C162.599 104.296 167.586 105.251 172.445 106.689C173.374 106.966 174.287 107.399 175.239 107.51C179.724 108.032 183.915 109.703 188.273 110.719C191.306 111.424 194.217 112.628 197.328 113.122C199.226 113.422 200.289 114.81 200.317 116.741C200.339 117.979 200.317 119.223 200.323 120.46C200.323 122.664 200.523 122.786 202.432 121.709C204.675 120.444 207.263 119.373 205.961 115.948L205.955 115.953ZM190.071 124.518C190.071 123.303 190.076 122.437 190.071 121.576C190.071 121.082 190.038 120.616 189.425 120.427C186.687 119.589 184.004 118.468 181.21 117.946C177.164 117.191 173.229 116.042 169.272 115.004C163.167 113.405 157.078 111.762 150.945 110.247C143.136 108.321 135.344 106.339 127.58 104.257C122.276 102.836 116.983 101.365 111.613 100.144C107.422 99.1893 103.147 98.4122 99.09 96.919C96.7024 96.042 94.1311 95.7533 91.8047 94.7708C87.8141 93.0889 83.6177 92.0175 79.4824 90.9018C75.7869 89.9026 72.2972 88.3095 68.5349 87.5213C66.2752 87.0494 64.0991 86.1668 61.8951 85.4286C58.8229 84.3961 55.645 83.7633 52.5226 82.9584C49.8233 82.259 47.0962 81.5596 44.408 80.7713C43.9961 80.6492 43.5119 80.4383 43.2782 80.9767C43.0277 81.554 43.4062 81.876 43.9349 82.037C44.3468 82.1646 44.7586 82.2923 45.1705 82.42C49.8567 83.8688 54.6097 85.1233 59.2014 86.8219C63.0695 88.254 67.0377 89.3697 71.0116 90.2301C74.6515 91.0184 78.1856 92.1785 81.7643 93.1055C87.7473 94.6598 93.4855 97.1077 99.6132 98.2457C102.212 98.7286 104.65 99.7833 107.238 100.383C114.067 101.97 120.846 103.774 127.591 105.695C133.547 107.388 139.513 109.003 145.524 110.513C153.143 112.434 160.818 114.277 168.22 116.991C168.777 117.197 169.328 117.474 169.901 117.546C174.153 118.079 178.044 120.055 182.301 120.594C183.298 120.721 183.86 121.382 183.843 122.525C183.815 124.135 183.971 125.751 183.982 127.366C184.01 130.702 183.954 130.624 186.976 129.248C189.242 128.215 190.995 127.027 190.071 124.502V124.518ZM84.7252 112.928C84.6918 113 84.6584 113.078 84.6306 113.15C84.8198 113.239 85.0035 113.35 85.1983 113.422C89.0553 114.904 93.2907 115.298 96.8916 117.502C96.9807 117.557 97.0975 117.552 97.2089 117.568C102.797 118.484 108.212 120.122 113.672 121.587C114.668 121.854 115.653 122.07 116.677 122.209C118.926 122.503 121.308 122.187 123.406 123.086C127.987 125.062 132.979 125.112 137.726 126.295C143.698 127.782 149.72 128.97 155.353 131.551C155.848 131.779 156.271 131.934 156.872 131.723C157.98 131.34 158.581 131.901 158.787 133.022C159.137 134.937 159.371 136.886 159.254 138.806C159.154 140.438 160.033 140.832 161.23 141.393C162.543 142.015 162.454 140.738 163.022 140.372C163.339 140.172 163.618 139.878 163.963 139.75C164.875 139.411 165.148 138.762 165.093 137.852C164.97 135.809 164.864 133.766 164.792 131.723C164.759 130.763 164.119 130.319 163.362 130.23C162.159 130.091 161.069 129.62 159.916 129.348C155.82 128.387 151.741 127.371 147.655 126.361C143.364 125.301 139.101 124.13 134.782 123.18C131.894 122.548 128.933 122.265 126.016 121.748C121.13 120.882 116.238 120.016 111.373 119.034C106.192 117.99 101.005 116.969 95.8898 115.637C92.1887 114.671 88.4542 113.822 84.7363 112.917L84.7252 112.928ZM73.1989 109.553C73.2489 109.447 73.3046 109.348 73.3547 109.242C69.9207 108.01 66.4645 106.839 63.0639 105.528C59.3962 104.119 55.5893 103.147 51.8882 101.87C48.6434 100.755 45.4543 99.3836 42.2151 98.3012C39.193 97.2909 36.1598 96.264 33.3547 94.8541C28.9245 92.6281 23.9989 91.6068 19.7413 89.0145C19.3962 88.8035 18.5725 88.0264 18.4556 89.2199C18.3832 89.9137 17.0252 90.6409 18.5892 91.4291C20.4425 92.3617 22.4127 92.9223 24.3496 93.5551C28.4737 94.9096 32.2082 97.1077 36.5271 98.1569C41.8756 99.4558 47.0405 101.604 52.3501 103.197C54.7211 103.908 56.964 104.968 59.3795 105.595C64.0156 106.8 68.5961 108.215 73.1989 109.542V109.553ZM379.173 36.4028C377.96 36.4028 376.847 35.9976 375.695 35.77C373.268 35.2926 370.842 34.7819 368.365 34.6431C367.836 34.6154 367.129 34.4488 367.291 35.3314C367.658 37.3631 367.463 39.4058 367.513 41.4375C367.53 42.1591 367.769 42.4588 368.493 42.1369C369.762 41.5707 371.148 41.171 372.283 40.405C374.476 38.9229 376.819 37.7461 379.173 36.4083V36.4028ZM171.816 28.8591C169.311 29.8083 166.356 30.2079 163.657 31.418C163.217 31.6179 162.443 31.7899 162.555 32.4227C162.655 33 163.423 33.0722 163.907 33.1111C166.467 33.3053 168.888 33.9992 171.259 34.9207C172.205 35.287 172.556 34.8596 172.578 33.9548C172.617 32.506 172.495 31.0461 172.918 29.6251C173.146 28.8535 172.634 28.8424 171.821 28.8591H171.816ZM152.342 36.7802C153.828 37.7128 155.091 37.7627 156.293 38.0292C159.36 38.7175 159.366 38.7009 159.304 35.7311C159.299 35.4092 159.299 35.0872 159.293 34.7652C159.282 34.088 159.121 33.7383 158.325 34.1324C156.46 35.0539 154.785 36.3473 152.347 36.7802H152.342ZM200.044 15.9531C200.89 16.6359 201.67 16.6692 202.382 16.8579C206.378 17.9348 205.922 18.5177 205.961 13.8493C205.972 12.8058 205.532 12.5615 204.697 13.0556C203.178 13.9548 201.697 14.9151 200.044 15.9531ZM218.634 9.34753C218.65 7.47132 218.656 7.48242 216.914 7.95425C215.728 8.2762 214.587 8.78689 213.33 8.80909C212.996 8.81464 212.656 8.92011 212.639 9.32533C212.628 9.74165 213.001 9.79716 213.307 9.88042C214.443 10.1913 215.584 10.4966 216.725 10.7963C218.583 11.2793 218.617 11.2515 218.634 9.34753ZM85.0258 65.1455C86.2112 65.4563 87.3967 65.7783 88.5822 66.078C88.9161 66.1613 89.3614 66.5332 89.5951 66.0891C89.9847 65.3564 89.9068 64.5182 89.712 63.7355C89.584 63.2138 89.0886 63.4413 88.7436 63.4691C87.3633 63.5635 86.2335 64.335 85.0202 65.1455H85.0258ZM174.61 28.1763C174.61 28.1763 174.548 28.2262 174.548 28.2651C174.548 28.3095 174.604 28.3706 174.649 28.3817C175.895 28.6925 177.142 29.0089 178.394 29.3031C178.75 29.3864 179.229 29.503 179.279 28.9479C179.352 28.1596 179.535 27.3214 179.162 26.5832C178.934 26.128 178.489 26.4333 178.166 26.5832C176.986 27.0994 175.817 27.6378 174.61 28.1818V28.1763Z" fill="#8FA386"/>
<path d="M101.611 190.702C101.428 194.893 101.812 200.011 101.327 205.129C100.993 208.62 99.8803 208.859 97.014 207.743C93.5244 206.383 89.8845 205.623 86.3003 204.635C80.9573 203.164 75.5587 201.882 70.2268 200.377C64.6222 198.795 59.1513 196.808 53.6357 194.949C47.8698 193 42.2597 190.63 36.3991 188.959C35.0244 188.571 34.2118 187.549 34.184 186.1C34.0226 177.274 33.3213 168.454 33.5551 159.617C33.6274 156.975 34.3064 156.503 36.9723 156.936C38.8146 157.236 40.4787 157.985 42.2263 158.507C46.3059 159.717 50.3242 161.249 54.4817 162.065C60.6261 163.264 66.6147 164.968 72.6367 166.617C77.6291 167.982 82.7271 168.965 87.6638 170.497C91.7212 171.757 96.0735 171.929 99.9304 173.927C101.155 174.56 101.661 175.32 101.645 176.692C101.583 181.055 101.622 185.423 101.622 190.708L101.611 190.702ZM98.7839 190.519H98.834C98.834 186.317 98.795 182.109 98.8563 177.907C98.8729 176.686 98.45 176.042 97.2812 175.676C94.0476 174.649 90.6637 174.266 87.4301 173.189C83.6009 171.912 79.5603 171.407 75.6922 170.186C72.5087 169.181 69.3029 168.071 66.047 167.471C61.2217 166.578 56.6189 164.879 51.7601 164.063C47.8253 163.403 43.9071 162.137 40.1392 160.633C39.488 160.372 38.8312 160.122 38.1578 159.944C36.9278 159.622 36.2711 159.733 36.2544 161.404C36.1876 169.275 36.605 177.125 36.9501 184.979C36.9946 185.95 37.3675 186.411 38.2636 186.711C43.6288 188.498 48.866 190.641 54.2702 192.323C59.1067 193.827 63.8041 195.703 68.6963 197.102C74.7516 198.834 80.8515 200.377 86.9236 202.048C90.4578 203.02 94.0531 203.769 97.4815 205.096C98.0659 205.323 98.45 205.196 98.5557 204.574C98.667 203.941 98.7728 203.297 98.7728 202.659C98.7895 198.618 98.7839 194.577 98.7839 190.536V190.519Z" fill="#8FA386"/>
<path d="M46.0443 179.362C46.6621 177.624 47.1463 176.031 47.8308 174.51C48.0702 173.972 48.3651 173.339 49.0664 173.394C49.7844 173.45 49.9847 174.138 50.0515 174.715C50.2686 176.475 50.4411 178.246 50.5747 180.011C50.6693 181.243 50.5524 182.481 50.8752 183.708C51.0144 184.241 51.237 184.996 50.3465 185.129C49.5617 185.246 49.328 184.535 49.2501 183.98C49.1165 183.025 49.1221 182.048 49.1109 181.082C49.0887 179.767 49.1109 178.446 48.8827 177.086C48.3484 178.579 47.5637 179.906 46.9849 181.321C46.7901 181.798 46.7066 182.442 45.9942 182.437C45.2317 182.431 44.8699 181.898 44.6417 181.243C44.2855 180.211 44.2633 179.134 44.2076 178.057C44.1408 176.819 43.7846 175.626 43.2225 174.077C42.5992 176.159 42.4823 177.963 42.3042 179.756C42.2541 180.272 42.499 181.021 41.7643 181.055C40.9573 181.093 40.9406 180.277 40.9963 179.711C41.2523 177.147 41.5306 174.582 41.8868 172.029C41.9758 171.368 42.2151 170.53 43.1001 170.524C44.024 170.519 44.1074 171.413 44.2744 172.051C44.8978 174.477 45.4543 176.914 46.0387 179.35L46.0443 179.362Z" fill="#8FA386"/>
<path d="M64.4107 181.882C64.8949 180.411 65.2789 179.123 65.7464 177.868C65.9858 177.224 66.2974 176.431 67.1434 176.531C67.9838 176.625 67.9282 177.491 67.9783 178.09C68.173 180.283 68.2955 182.487 68.4458 184.685C68.5014 185.479 68.3344 186.295 68.9244 187C69.1804 187.305 69.186 187.727 68.8354 188.015C68.4179 188.354 67.995 188.16 67.661 187.877C66.9431 187.277 66.7538 186.422 66.7316 185.545C66.6926 184.108 66.7204 182.664 66.7204 180.76C65.9078 182.348 65.7743 183.625 65.496 184.862C65.3513 185.501 65.1955 186.239 64.394 186.25C63.6315 186.261 63.2976 185.579 63.1584 184.946C62.8635 183.597 62.6631 182.231 62.4071 180.783C61.767 182.054 61.6223 183.314 61.6502 184.618C61.6613 185.201 61.7003 185.962 60.8265 185.873C60.1029 185.801 59.936 185.107 60.0027 184.502C60.0918 183.702 60.3089 182.92 60.4981 182.137C60.8209 180.783 61.3719 179.478 61.4721 178.068C61.5166 177.43 61.7726 176.919 62.524 176.864C63.2976 176.808 63.5703 177.313 63.6927 177.935C63.9376 179.195 64.1547 180.461 64.4107 181.882Z" fill="#8FA386"/>
<path d="M81.2523 188.637C80.8293 189.425 80.8849 190.142 80.7569 190.819C80.6679 191.279 80.4063 191.629 79.8776 191.574C79.3488 191.518 79.1039 191.113 79.1596 190.658C79.4768 187.921 79.3154 185.196 79.1596 182.459C79.1206 181.771 79.4601 181.071 80.2282 180.799C80.9851 180.533 81.5528 180.871 82.1149 181.382C83.9905 183.092 84.0462 183.847 82.3209 185.906C82.0259 186.261 81.7309 186.572 82.0982 187.016C83.0166 188.127 83.8959 189.276 84.8922 190.314C85.2706 190.708 85.9051 190.969 85.4153 191.551C84.92 192.14 84.2243 192.051 83.7512 191.44C83.0054 190.469 82.2819 189.492 81.2578 188.632L81.2523 188.637Z" fill="#8FA386"/>
<path d="M78.1021 184.247C77.9852 185.457 77.9296 187.133 77.1671 188.671C76.3156 190.392 74.913 190.697 73.5272 189.37C72.5421 188.427 71.8408 187.244 71.5959 185.89C71.3956 184.785 71.3232 183.703 72.5254 182.903C73.1098 182.515 73.4437 181.727 73.8277 181.083C74.3008 180.278 74.913 179.689 75.8926 179.811C76.9111 179.939 77.4565 180.705 77.8127 181.582C78.1021 182.287 78.1578 183.042 78.0966 184.252L78.1021 184.247ZM76.3935 184.574C76.3935 183.98 76.4102 183.386 76.3879 182.798C76.3712 182.337 76.4937 181.749 75.8202 181.627C75.2581 181.527 74.913 181.954 74.6292 182.332C73.7331 183.503 73.6051 186.772 74.3676 188.027C74.8741 188.871 75.3805 188.926 75.9148 188.049C76.5716 186.961 76.3434 185.751 76.3935 184.58V184.574Z" fill="#8FA386"/>
<path d="M53.1013 180.078C53.1959 178.413 53.2738 176.747 53.3851 175.082C53.4519 174.094 53.7859 173.589 54.9491 174.033C55.9954 174.433 57.1475 174.549 58.2216 174.888C58.7838 175.065 59.396 175.443 59.0398 176.192C58.7225 176.858 58.1382 176.581 57.6317 176.364C57.1864 176.176 56.7579 175.915 56.2959 175.798C55.3888 175.571 54.8934 175.965 54.6819 176.886C54.4649 177.83 54.7988 178.202 55.7171 178.207C55.9286 178.207 56.1624 178.229 56.3516 178.313C57.0083 178.585 58.1827 178.585 57.9768 179.506C57.7486 180.544 56.8358 179.695 56.2125 179.673C55.5001 179.645 54.5316 179.34 54.5483 180.555C54.5595 181.482 54.053 182.72 55.667 182.97C56.3572 183.075 57.0417 183.242 57.704 183.453C58.0491 183.564 58.422 183.814 58.2272 184.297C58.0881 184.641 57.7541 184.713 57.4091 184.68C56.552 184.608 55.6949 184.519 54.8322 184.452C53.9862 184.385 53.6133 183.814 53.4018 183.114C53.1069 182.126 53.0512 181.099 53.1013 180.072V180.078Z" fill="#8FA386"/>
<path d="M89.0664 187.538C89.5116 186.372 89.84 185.351 90.2908 184.385C90.4745 183.997 90.8029 183.441 91.4095 183.708C91.9549 183.947 91.6321 184.441 91.5987 184.851C91.4707 186.322 90.8863 187.677 90.3854 189.026C89.7398 190.758 89.1888 192.478 89.1276 194.332C89.0998 195.126 88.8883 196.009 87.892 195.831C86.9348 195.665 87.0962 194.776 87.3856 194.116C88.5265 191.507 88.3985 189.087 86.701 186.694C86.1778 185.956 86.2335 184.84 85.7716 183.974C85.5434 183.547 85.638 183.086 86.1333 182.897C86.6008 182.72 86.8012 183.136 86.9682 183.469C87.3077 184.146 87.6249 184.829 87.9366 185.512C88.226 186.145 88.4208 186.822 89.0775 187.527L89.0664 187.538Z" fill="#8FA386"/>
</g>
<defs>
<clipPath id="clip0_1525_372">
<rect width="474" height="300" fill="white"/>
</clipPath>
</defs>
</svg>
