<svg width="294" height="224" viewBox="0 0 294 224" fill="none" xmlns="http://www.w3.org/2000/svg">
<g clip-path="url(#clip0_1519_276)">
<path d="M174.136 169.962C172.145 170.47 169.744 172.851 167.832 173.78C165.465 174.935 163.006 175.409 160.388 175.436C154.467 175.502 149.509 173.187 144.425 170.417C142.104 172.745 140.568 173.635 137.159 173.167C135.511 172.943 133.783 172.448 132.3 171.696C131.482 171.281 130.388 170.074 129.57 169.87C128.126 169.5 128.858 169.23 128.034 170.424C127.308 171.479 127.42 174.117 127.236 175.383C126.768 178.562 126.333 181.754 125.897 184.939C124.987 191.626 124.242 198.353 123.049 205C122.449 208.337 121.803 211.668 121.11 214.992C120.906 215.981 120.866 218.052 120.319 218.942C119.462 220.333 118.288 219.918 117.167 220.736C115.578 220.617 111.2 221.916 109.921 220.419C108.635 218.922 109.453 215.427 109.591 213.626C110.046 207.698 110.31 201.795 110.534 195.847C110.646 192.905 110.673 189.971 110.686 187.029C110.686 185.315 110.693 183.6 110.726 181.892C110.752 180.58 111.471 177.83 110.989 176.676C110.251 174.902 108.174 175.245 106.235 174.77C103.545 174.104 101.172 172.87 98.633 171.809C97.7692 172.514 98.4286 176.498 98.4022 177.493C98.3363 180.039 98.0264 182.585 98.1319 185.137C96.8461 190.366 97.3802 196.711 97.0242 202.112C96.6879 207.276 96.3714 212.637 95.5604 217.761C95.0857 220.775 94.8681 222.76 91.6702 223.426C89.9954 223.776 85.947 224.29 84.6876 223.077C83.3096 221.751 83.9755 216.864 83.87 215.156C83.6986 212.268 83.6195 209.373 83.4678 206.484C82.914 195.952 81.859 185.44 79.9337 175.053C79.4655 172.534 79.5513 169.514 77.1974 168.333C74.6786 167.067 72.2918 166.882 69.9972 165.016C68.1774 163.539 66.5422 161.686 65.4476 159.608C64.0696 156.99 64.5509 153.508 63.0146 151.107C59.3222 153.554 53.0386 151.173 50.1374 148.601C46.4186 145.304 44.6648 140.404 44.7505 135.504C44.7966 132.899 45.245 130.472 46.0692 128.019C47.0319 125.137 45.7395 125.407 43.7285 123.363C42.0471 121.655 41.3416 119.96 40.768 117.711C40.0691 114.968 38.8097 112.409 38.0844 109.659C36.6602 104.258 36.0404 98.0718 36.9173 92.5255C37.3921 89.5447 38.7767 87.0254 40.2405 84.4337C41.7834 81.6968 42.0669 80.6878 41.7174 77.6674C41.4339 75.2339 41.6054 74.8448 39.2251 76.2495C36.8052 77.6806 34.5502 79.3689 32.0909 80.7406C27.1127 83.5038 21.5544 84.038 15.9301 83.4379C13.0025 83.1279 12.0992 81.7694 9.92333 80.2394C7.87932 78.8017 5.43311 78.6566 3.57373 76.7507C1.8726 75.0031 1.01543 73.1301 0.52751 70.7824C0.329704 69.8261 -0.540645 66.6342 1.38467 67.0761C-3.29016 64.082 13.108 45.9001 15.574 43.15C22.9258 34.9461 27.8182 25.2583 33.9239 16.1772C39.3635 8.10512 47.2165 1.51688 57.5618 1.88619C60.0409 1.97192 62.7179 2.88861 65.1707 2.69736C67.6037 2.50611 69.5422 0.77826 71.9555 0.336406C77.7182 -0.705577 80.2568 3.00731 84.0744 6.64766C86.9954 5.34848 89.3493 4.32628 92.6922 4.41201C96.2791 4.50434 97.4594 6.06072 100.09 7.93365C100.98 8.56675 100.743 8.67887 101.824 8.68546C103.202 8.69206 105.484 6.83231 106.802 6.32451C109.71 5.20339 112.974 4.6824 116.093 4.66261C119.08 4.64283 121.638 5.27593 123.741 7.47201C124.473 8.23042 125.528 10.6177 126.425 10.9937C127.592 11.4883 128.396 10.2748 129.484 9.47025C134.304 5.92223 140.219 2.87542 146.153 1.73451C151.25 0.751881 158.113 1.92576 161.72 5.94201C163.111 7.4918 163.507 10.321 165.208 11.0068C166.118 11.3696 168.591 10.4463 169.698 10.5188C171.756 10.6573 171.934 11.2179 173.549 12.3126C174.894 13.2227 173.945 13.0974 175.125 13.1568C176.226 13.2095 178.929 10.6375 179.958 10.044C182.371 8.65249 185.154 7.45223 187.929 7.03016C190.817 6.5949 194.081 6.79275 196.864 7.73581C199.996 8.79098 200.747 10.8486 202.818 13.0446C210.908 6.79934 226.39 1.30585 234.17 11.1651C236.227 13.7767 235.271 14.0537 238.7 13.348C241.027 12.8666 243.863 12.8666 245.953 14.1592C247.964 15.4056 248.135 17.8061 250.535 17.5489C253.041 17.2785 255.395 16.441 258.026 16.408C262.377 16.3487 268.898 19.0789 271.41 22.8775C273 25.2781 272.591 28.4831 272.584 31.2266C272.584 32.506 271.74 36.3112 272.617 37.2938C272.894 37.6104 275.419 37.7687 276.006 38.0127C277.101 38.4545 278.143 39.1602 279.112 39.8328C281.472 41.4684 283.562 43.5259 285.409 45.7286C289.114 50.1538 291.138 55.1328 290.097 60.9231C289.839 62.3476 289.47 63.7259 288.817 65.0185C288.501 65.6384 287.017 67.0761 286.998 67.6564C286.965 68.5797 289.352 69.747 290.209 71.0396C293.545 76.0978 292.879 81.5649 288.409 85.5746C292.147 90.5537 294.402 95.7504 293.71 102.154C293.413 104.897 292.708 107.628 291.231 109.975C289.483 112.752 287.017 113.767 284.835 115.944C283.668 117.111 283.885 116.847 284.162 118.641C284.4 120.184 284.406 121.662 284.347 123.224C284.222 126.496 284.083 130.109 282.666 133.123C281.518 135.563 279.178 137.245 277.984 139.606C276.751 142.046 277.305 145.39 276.573 148.074C275.268 152.835 272.004 157.894 266.709 158.434C264.059 158.705 263.393 158.421 262.278 161.092C260.986 164.178 259.957 166.717 259.812 170.14C259.298 182.631 258.045 195.088 255.243 207.295C254.643 209.92 254.241 213.072 251.307 213.725C249.052 214.227 245.346 213.963 244.37 211.714C243.203 209.023 244.054 204.189 244.054 201.314C244.054 197.746 244.351 194.211 244.351 190.65C244.351 185.058 244.146 179.36 243.671 173.807C243.388 170.542 242.089 171.38 239.419 169.942C237.5 168.907 233.583 166.605 232.35 169.672C231.546 171.663 232.588 175.607 232.588 177.79C232.588 180.784 232.687 183.877 232.621 186.779C232.509 191.771 232.37 196.711 232.337 201.775C232.324 204.618 232.502 207.52 232.291 210.349C232.027 213.897 230.801 214.688 227.247 215.156C225.348 215.407 222.902 216.001 221.801 214.227C220.462 212.077 220.726 207.414 220.462 204.888C219.776 198.366 219.077 191.837 218.102 185.348C217.581 181.885 216.836 178.469 215.761 175.132C215.431 174.11 215.003 171.848 214.047 171.11C212.794 170.14 212.774 170.964 211.633 171.908C206.813 175.897 200.925 177.414 194.734 176.689C190.982 176.254 187.25 175.66 183.71 174.361C180.729 173.266 176.239 172.554 174.136 169.949V169.962ZM124.559 18.2875C123.115 17.4698 123.899 16.8894 123.88 15.6826C123.86 14.2977 123.932 14.1855 123.102 12.8864C121.776 10.8156 119.957 8.7646 117.484 8.29637C111.583 7.17525 105.095 11.1519 100.473 14.2251C99.1737 15.089 96.8461 16.9752 96.5956 14.2581C96.4439 12.6226 98.9363 11.4949 98.4286 10.1627C97.8022 8.52719 93.4373 7.6171 91.901 7.46542C89.0394 7.17525 86.1712 9.06796 83.4678 8.24361C80.9491 7.47861 79.2677 4.85387 76.8941 3.81188C74.3951 2.72373 71.7445 3.54809 69.351 4.4318C63.5223 6.58171 56.942 4.34606 50.9418 6.42343C46.0164 8.1249 41.2559 10.9475 38.302 15.3133C34.6294 20.7474 32.0051 26.8542 28.5699 32.4334C22.8137 41.7849 14.7234 49.5272 8.4134 58.5028C7.15403 60.2966 1.78688 67.4718 4.18034 69.3843C7.03535 71.6595 12.1322 63.4819 14.1234 65.4472C16.0817 67.3794 11.2816 69.681 10.3453 70.1229C9.41562 70.5648 8.38703 71.2176 7.34525 71.3429C6.79798 71.4089 5.80235 71.0462 5.36059 71.1715C1.56929 72.2135 7.68152 75.9725 9.39584 76.5463C10.4904 76.9156 12.0464 77.0607 12.93 77.918C13.497 78.472 13.4377 79.3952 13.8597 79.7909C15.4487 81.2748 18.5213 80.7867 20.4994 80.6944C25.8534 80.4372 29.0842 78.8479 33.5151 75.9725C43.2406 69.6481 55.0562 67.0563 65.4608 61.9651C68.0323 60.7055 69.7401 60.0196 70.7357 57.3685C71.4676 55.4098 72.4566 53.3325 73.9006 51.7761C75.2852 50.2922 78.3842 49.9493 79.4524 48.5776C80.2831 47.5158 79.4853 44.0931 79.9732 42.5169C80.5271 40.7166 88.1756 30.5803 89.9493 35.1109C90.3647 36.1727 86.6591 38.903 85.9272 39.7141C84.1667 41.6794 83.3162 43.3479 83.2766 46.0452C83.2239 49.2437 84.114 50.833 80.9227 52.4751C78.5952 53.6754 76.9402 54.1041 75.6215 56.531C73.294 60.8176 73.927 65.5791 70.5774 69.5162C67.2411 73.4401 63.2718 76.1901 58.5442 78.2016C54.7859 79.7975 49.0824 79.9426 46.0296 82.6861C42.4889 85.8648 40.7614 93.2312 40.9196 97.775C41.124 103.506 42.9175 109.362 44.6252 114.79C45.6604 118.081 46.5044 119.261 49.2473 121.292C50.5924 122.288 52.7419 123.409 52.5638 125.368C52.4056 127.122 50.111 128.83 49.6891 130.776C49.2407 132.873 49.2539 135.761 49.6099 137.872C50.5198 143.253 54.6144 146.709 59.6255 148.034C60.5486 148.278 61.7289 148.766 62.7047 148.687C63.496 148.628 64.3004 147.612 64.9861 147.718C67.3664 148.074 67.0697 151.668 67.5114 153.442C68.7906 158.573 71.5731 161.943 76.5446 163.717C78.8919 164.554 81.47 164.818 83.9492 164.528C84.9052 164.416 86.1712 164.231 87.0547 163.789C88.0701 163.275 88.2613 162.398 89.0526 161.85C91.0174 160.498 92.4087 162.721 94.0241 164.04C96.0549 165.695 98.3627 167.08 100.651 168.34C105.108 170.786 110.046 172.429 115.084 170.852C117.622 170.061 119.91 168.669 122.238 167.416C123.524 166.724 124.889 166.19 126.168 165.511C126.544 165.313 127.882 164.277 128.231 164.271C129.794 164.251 131.607 166.935 133.038 167.726C135.181 168.92 137.667 169.421 140.093 169.58C140.495 169.606 143.179 169.975 143.35 169.738C143.641 169.329 142.698 168.716 142.691 168.498C142.605 166.823 141.452 165.023 144.649 165.84C146.792 166.388 149.034 168.406 151.157 169.27C153.551 170.246 156.155 171.334 158.779 171.281C160.428 171.954 162.05 171.11 163.685 171.202C167.14 170.298 170.186 168.702 173.219 166.876C173.767 166.546 175.916 164.864 176.661 165.128C177.762 165.517 177.169 167.159 177.703 167.918C179.094 169.889 184.158 170.635 186.314 171.268C189.73 172.264 193.422 173.187 197.002 173.273C200.372 173.352 203.747 172.382 206.787 170.971C207.862 170.47 208.956 169.903 209.952 169.25C210.605 168.821 211.923 167.238 212.701 167.106C214.95 166.737 217.317 169.177 219.625 168.683C220.64 168.465 221.893 167.364 222.183 166.553C222.401 165.939 221.59 165.141 222.091 164.462C223.08 163.117 228.717 164.647 230.372 164.62C232.726 164.587 236.366 163.314 238.449 164.231C239.603 164.732 240.315 165.84 241.608 166.302C242.794 166.731 244.403 167.021 245.682 167.034C247.904 167.054 250.39 166.618 252.447 165.682C254.993 164.521 256.654 162.609 258.243 160.393C259.549 158.573 260.894 155.374 263.162 154.589C265.951 153.62 268.226 154.57 270.487 151.938C272.314 149.815 273.204 146.893 273.764 144.209C274.397 141.202 274.285 138.241 276.059 135.636C277.694 133.222 279.408 131.659 280.048 128.771C280.655 126.047 281.406 122.084 280.826 119.353C280.252 116.649 278.571 118.298 277.364 116.326C279.982 113.101 284.195 111.664 286.8 108.043C289.813 103.862 289.985 97.9267 288.363 93.1916C287.756 91.4176 285.455 88.4104 285.699 86.5308C285.844 85.3965 287.334 83.5632 287.782 82.3761C288.224 81.2088 288.831 79.9888 289.048 78.7555C289.417 76.6716 288.811 74.8316 287.776 73.051C286.648 71.0989 285.013 71.0528 284.789 68.6918C284.34 63.9567 287.057 59.6041 285.646 54.8493C284.439 50.7869 281.373 46.9157 278.123 44.258C275.69 42.2663 272.914 41.9498 270.415 40.433C268.312 39.1536 269.472 39.1272 269.934 37.3004C270.764 34.0492 270.243 26.94 267.817 24.3284C264.329 20.5759 258.467 19.9033 253.766 20.721C251.742 21.0771 250.041 22.1125 248.254 21.0903C246.428 20.0418 245.643 17.6083 243.533 16.7575C241.271 15.8474 238.983 16.896 236.676 16.6916C234.506 16.5003 234.124 15.7551 232.396 14.179C228.73 10.8288 225.48 9.68128 220.508 9.79999C215.814 9.9121 211.396 11.0992 207.519 13.8426C205.501 15.2671 203.985 16.8828 201.413 15.5837C199.653 14.6934 198.347 12.9787 196.534 12.0554C191.582 9.5296 186.499 10.8618 181.758 13.1634C179.701 14.1592 177.433 16.4014 175.243 16.9092C173.351 17.3445 172.408 16.1772 170.958 15.2737C169.501 14.3702 168.591 13.7767 166.843 14.2053C167.133 14.1328 165.63 14.9505 165.386 14.9835C163.012 15.3133 162.01 13.8096 160.54 11.8774C157.711 8.17106 155.384 5.93542 150.439 5.26274C145.203 4.5505 139.493 7.29395 135.109 9.87913C133.381 10.9013 131.792 12.1346 130.302 13.4733C128.667 14.9374 126.755 17.6676 124.546 18.2612L124.559 18.2875ZM88.0767 214.596C90.7669 214.596 91.7889 215.209 92.1713 212.38C92.4746 210.144 92.5801 207.856 92.7911 205.607C93.3054 200.193 93.7867 194.778 94.2615 189.357C94.6505 184.866 94.9604 180.329 95.2109 175.805C95.3362 173.583 96.0879 170.727 94.6571 168.953C93.3582 167.35 91.024 166.315 89.5932 164.587C88.413 165.781 87.2987 167.126 85.7756 167.891C84.4964 168.531 83.2502 168.195 82.9667 169.52C82.6898 170.806 83.9162 173.47 84.1865 174.763C84.6481 176.939 84.9778 179.135 85.3074 181.338C85.9074 185.328 86.4943 189.318 86.9097 193.328C87.2064 196.223 86.8371 200.048 87.7932 202.778C87.813 206.722 88.0701 210.646 88.0701 214.596H88.0767ZM229.799 194.04C229.799 194.04 229.818 194.04 229.832 194.04C229.832 189.496 229.548 184.978 229.548 180.448C229.548 178.245 229.541 176.049 229.396 173.846C229.324 172.758 229.713 170.166 229.172 169.322C226.95 165.867 224.187 170.417 222.249 171.321C221.082 171.861 218.82 171.756 218.346 172.917C217.884 174.051 219.348 177.243 219.671 178.483C221.55 185.664 222.743 192.859 223.601 200.232C223.739 201.406 223.396 204.255 224.056 205.132C224.642 205.904 228.308 206.003 229.126 205.264C230.966 203.609 229.799 196.322 229.799 194.033V194.04ZM125.489 168.254C123.794 169.032 122.39 170.899 120.801 171.947C119.113 173.055 117.392 173.932 115.565 174.776C113.462 175.746 113.772 175.442 113.95 177.935C114.101 180.085 114.154 182.228 114.194 184.378C114.28 188.935 114.444 193.466 114.247 198.03C114.148 200.437 114.082 202.837 114.049 205.251C114.029 206.834 113.238 209.498 113.699 210.929C114.036 211.971 114.655 212.354 116.258 211.681C118.189 210.87 118.236 208.819 118.539 206.985C119.251 202.719 120.102 198.465 120.774 194.191C122.132 185.526 124.302 176.946 125.489 168.267V168.254ZM257.478 168.214C255.415 169.263 253.324 170.318 251.083 170.938C248.373 171.683 246.434 170.694 246.639 173.866C246.79 176.24 247.113 178.581 247.252 180.956C247.377 183.178 246.559 186.1 247.417 188.203C247.43 192.938 247.595 197.581 247.417 202.27C247.344 204.314 247.285 205.251 249.777 205.139C253.028 204.994 252.751 202.25 253.107 199.659C254.524 189.146 256.707 178.786 257.485 168.214H257.478ZM70.5576 62.862C64.874 64.2337 59.4145 68.2368 53.9023 70.3471C51.5484 71.2506 48.944 71.9233 46.7088 73.117C45.7857 73.6116 45.2846 73.4599 44.8758 74.3898C44.7769 74.614 44.9087 77.4498 45.2714 77.7729C46.3791 78.7621 51.0935 76.7639 52.2342 76.4342C55.2606 75.5702 58.1881 74.5217 60.9904 73.0708C63.6146 71.7123 72.6082 66.5089 70.5576 62.8686V62.862ZM246.843 207.13C246.843 208.436 246.599 209.696 247.014 210.936C249.533 211.252 253.041 210.21 251.814 206.847C250.199 206.596 248.623 206.966 246.85 207.13H246.843ZM224.557 207.981V212.182C228.124 211.378 229.238 211.549 229.238 207.678C227.616 207.48 226.133 207.797 224.557 207.981ZM113.343 217.405C114.385 217.504 116.225 217.293 116.937 216.383C117.121 216.152 117.589 213.831 117.378 213.593C117.042 213.224 114.636 213.936 114.312 214.207C113.468 214.906 112.915 216.304 113.343 217.399V217.405ZM91.4592 216.766C89.6921 215.414 87.0283 217.359 88.4723 219.41C90.1932 221.857 91.4592 218.507 91.4592 216.766Z" fill="#8FA386" stroke="#FDF9F0" stroke-width="0.5" stroke-miterlimit="10"/>
<path d="M74.9489 12.1807C81.015 12.682 85.6832 13.3282 89.8833 18.0633C91.9735 20.4177 93.7208 23.0292 95.3757 25.7001C96.1867 27.0059 98.1121 29.3009 97.6044 30.9298C96.1604 35.5594 86.2173 33.2051 83.2436 32.4005C82.0436 32.0774 68.5861 26.5443 70.9202 24.3086C72.1928 23.0886 76.2742 25.8189 77.4676 26.3926C80.1776 27.6984 82.7359 29.0173 85.7426 29.5054C86.6986 29.657 92.4416 30.9892 93.1933 29.9208C93.9713 28.8195 90.7339 24.7769 90.2196 24.0448C87.0151 19.4878 83.7447 16.4938 78.16 15.4518C76.9731 15.2276 71.6917 15.6892 70.8741 14.9506C68.8828 13.1502 73.9335 12.0027 74.9555 12.1807H74.9489Z" fill="#8FA386" stroke="#FDF9F0" stroke-width="0.5" stroke-miterlimit="10"/>
<path d="M281.822 61.2659C281.683 63.2839 281.202 65.1766 280.074 66.8649C279.923 67.0891 278.011 69.7205 277.648 68.817C277.569 68.6257 278.69 66.8187 278.729 66.7792C278.729 64.0951 279.521 61.8265 278.901 59.1028C278.373 56.7748 277.391 54.5853 275.954 52.6728C274.641 50.9318 273.019 49.3424 270.811 48.9138C269.769 48.7093 265.595 49.5007 265.325 48.0301C265.054 46.5528 269.861 46.3418 270.547 46.388C272.729 46.5462 274.846 47.4365 276.448 48.9336C279.514 51.7957 281.881 57.0518 281.822 61.2659Z" fill="#8FA386" stroke="#FDF9F0" stroke-width="0.5" stroke-miterlimit="10"/>
<path d="M274.8 122.037C274.905 124.998 274.167 127.333 272.749 129.898C272.353 130.617 269.076 135.576 268.503 134.871C267.923 134.152 271.351 126.845 271.602 125.493C272.314 121.661 271.918 117.784 270.639 114.117C270.171 112.785 267.942 106.111 271.358 109.837C273.903 112.62 275.215 118.41 274.806 122.037H274.8Z" fill="#8FA386" stroke="#FDF9F0" stroke-width="0.5" stroke-miterlimit="10"/>
<path d="M199.706 21.0901C194.556 21.4858 190.62 19.7712 185.932 23.0686C184.798 23.8666 178.646 31.8133 179.312 26.8474C179.839 22.8905 185.206 19.5733 188.523 18.4456C191.668 17.3838 198.15 17.1398 199.706 21.0901Z" fill="#8FA386" stroke="#FDF9F0" stroke-width="0.5" stroke-miterlimit="10"/>
<path d="M54.0012 116.135C49.1681 117.039 47.8362 108.604 46.1812 106.038C46.4516 102.708 45.4494 99.3051 46.5439 95.9813C46.8142 95.1702 47.4538 93.2049 48.489 93.8908C49.1352 94.3194 48.4362 97.4718 48.3769 98.0125C48.0208 101.218 48.2318 104.205 49.3659 107.265C50.4934 110.305 53.2957 113.009 54.0012 116.135Z" fill="#8FA386" stroke="#FDF9F0" stroke-width="0.5" stroke-miterlimit="10"/>
<path d="M78.3116 134.713C75.8325 136.605 72.1335 131.725 71.1181 129.991C70.34 128.659 66.9575 122.314 67.9993 120.844C69.5422 118.667 71.6653 125.064 72.061 125.862C73.6698 129.1 76.9666 131.481 78.3116 134.713Z" fill="#8FA386" stroke="#FDF9F0" stroke-width="0.5" stroke-miterlimit="10"/>
<path d="M226.845 150.059C225.137 149.947 218.168 147.559 219.051 144.809C219.48 143.464 225.144 147.078 226.614 147.249C227.853 147.394 235.047 145.904 235.357 146.28C236.86 148.107 227.801 150.059 226.851 150.065L226.845 150.059Z" fill="#8FA386" stroke="#FDF9F0" stroke-width="0.5" stroke-miterlimit="10"/>
<path d="M283.2 95.3678C283.2 96.7066 283.325 98.5465 281.861 99.2786C279.943 100.235 281.235 97.6694 281.288 96.9902C281.551 93.673 279.059 90.1315 276.811 87.9948C276.059 87.276 273.936 86.1482 274.575 85.0997C275.228 84.0379 278.11 85.8449 278.795 86.3461C281.848 88.562 282.646 91.8792 283.2 95.3744V95.3678Z" fill="#8FA386" stroke="#FDF9F0" stroke-width="0.5" stroke-miterlimit="10"/>
<path d="M147.973 20.5298C146.641 20.8463 145.566 19.8835 144.234 19.8373C142.83 19.7912 141.366 20.4309 140.186 21.1167C139.282 21.6443 135.616 25.5946 135.102 22.6929C134.733 20.6155 139.144 18.1886 140.72 17.7995C143.713 17.0477 146.548 17.6017 147.973 20.5232V20.5298Z" fill="#8FA386" stroke="#FDF9F0" stroke-width="0.5" stroke-miterlimit="10"/>
<path d="M46.3526 21.7298C50.0714 21.433 50.2758 28.1334 46.3065 28.2785C42.1987 28.4301 42.0866 21.7166 46.3526 21.7298Z" fill="#8FA386" stroke="#FDF9F0" stroke-width="0.5" stroke-miterlimit="10"/>
<path d="M54.0013 134.053C54.0013 129.971 56.4211 135.867 56.8563 136.724C57.6211 138.214 58.6893 139.705 59.8893 140.872C60.2849 141.261 62.3619 142.277 62.5729 142.686C63.6674 144.789 59.4607 143.127 58.597 142.488C56.1771 140.694 53.7177 137.192 53.9947 134.053H54.0013Z" fill="#8FA386" stroke="#FDF9F0" stroke-width="0.5" stroke-miterlimit="10"/>
<path d="M262.054 135.748C261.494 133.578 262.615 130.387 262.845 128.151C263.004 126.581 262.536 121.965 265.18 124.26C267.138 125.961 264.467 135.986 262.061 135.755L262.054 135.748Z" fill="#8FA386" stroke="#FDF9F0" stroke-width="0.5" stroke-miterlimit="10"/>
<path d="M222.025 16.9948C219.308 16.9948 222.394 14.4228 223.897 14.4624C226.304 14.5217 228.724 17.463 229.726 19.3821C231.546 22.8642 230.082 22.7653 227.814 20.2856C226.146 18.4654 224.682 16.8497 222.025 16.9948Z" fill="#8FA386" stroke="#FDF9F0" stroke-width="0.5" stroke-miterlimit="10"/>
<path d="M109.849 166.124C107.752 168.907 98.0791 162.873 99.4638 159.74C100.374 157.669 102.991 161.976 103.783 162.622C105.286 163.849 108.932 164.488 109.855 166.124H109.849Z" fill="#8FA386" stroke="#FDF9F0" stroke-width="0.5" stroke-miterlimit="10"/>
<path d="M74.217 17.562C77.4281 17.8192 80.3556 18.6831 82.9469 20.6352C84.4964 21.8025 86.6393 23.9062 83.3821 23.0159C80.7117 22.2905 78.3116 20.3252 75.5819 19.5075C74.5929 19.2107 71.3554 17.806 74.217 17.562Z" fill="#8FA386" stroke="#FDF9F0" stroke-width="0.5" stroke-miterlimit="10"/>
<path d="M100.637 20.8465C100.07 17.7601 109.578 13.8362 108.899 16.9357C108.827 17.2523 104.284 20.0683 103.697 20.5761C102.655 21.473 100.763 23.4185 100.637 20.8531V20.8465Z" fill="#8FA386" stroke="#FDF9F0" stroke-width="0.5" stroke-miterlimit="10"/>
<path d="M198.789 168.59C196.857 171.083 183.499 166.566 185.965 163.585C185.417 164.251 197.859 168.287 198.789 168.59Z" fill="#8FA386" stroke="#FDF9F0" stroke-width="0.5" stroke-miterlimit="10"/>
<path d="M162.386 166.665C160.922 168.788 151.955 168.386 152.68 164.686C153.003 163.037 155.601 164.871 156.538 165.234C157.625 165.656 161.898 165.722 162.386 166.665Z" fill="#8FA386" stroke="#FDF9F0" stroke-width="0.5" stroke-miterlimit="10"/>
<path d="M270.072 142.488C269.67 145.053 268.186 147.408 266.353 149.208C265.806 149.749 261.837 152.222 262.753 149.379C262.878 148.99 264.54 148.377 265.002 148.008C266.202 147.058 267.092 145.765 267.87 144.466C268.226 143.873 270.072 140.232 270.072 142.481V142.488Z" fill="#8FA386" stroke="#FDF9F0" stroke-width="0.5" stroke-miterlimit="10"/>
<path d="M252.711 159.324C251.142 162.134 245.195 164.271 243.948 159.786C243.045 156.541 245.491 159.417 246.487 159.852C248.94 160.934 250.436 158.863 252.718 159.331L252.711 159.324Z" fill="#8FA386" stroke="#FDF9F0" stroke-width="0.5" stroke-miterlimit="10"/>
<path d="M72.6874 153.086C72.8192 151.562 73.2346 151.094 74.3951 152.057C74.9885 152.545 75.1336 154.246 75.5028 154.932C75.905 155.684 76.8413 156.475 77.1182 157.24C77.6457 158.698 77.4084 158.757 75.7534 158.012C73.8676 157.161 72.6214 155.176 72.694 153.079L72.6874 153.086Z" fill="#8FA386" stroke="#FDF9F0" stroke-width="0.5" stroke-miterlimit="10"/>
<path d="M261.56 29.5054C260.637 29.822 258.87 28.1007 257.887 27.8172C257.083 27.5797 254.195 27.7908 254.564 26.3795C255.428 23.1216 261.177 27.8237 261.553 29.5054H261.56Z" fill="#8FA386" stroke="#FDF9F0" stroke-width="0.5" stroke-miterlimit="10"/>
<path d="M275.769 108.604C275.195 108.254 274.694 102.127 275.716 101.547C277.899 100.301 277.846 107.713 275.769 108.604Z" fill="#8FA386" stroke="#FDF9F0" stroke-width="0.5" stroke-miterlimit="10"/>
<path d="M55.6628 111.143C54.6078 110.767 51.1264 105.728 53.0056 104.825C54.5221 104.099 55.2803 107.153 54.8386 108.036C55.4716 108.577 55.5837 110.43 55.6562 111.143H55.6628Z" fill="#8FA386" stroke="#FDF9F0" stroke-width="0.5" stroke-miterlimit="10"/>
<path d="M237.843 140.912C237.144 142.27 233.148 144.387 232.528 141.585C232.087 139.606 236.775 140.358 237.843 140.912Z" fill="#8FA386" stroke="#FDF9F0" stroke-width="0.5" stroke-miterlimit="10"/>
<path d="M232.39 159.028C231.256 158.817 225.269 156.957 228.803 156.37C229.482 156.258 232.311 157.129 232.878 157.584C233.517 158.098 233.926 159.483 232.39 159.021V159.028Z" fill="#8FA386" stroke="#FDF9F0" stroke-width="0.5" stroke-miterlimit="10"/>
<path d="M147.828 26.1221C146.984 27.0652 143.41 27.3751 143.153 25.7528C142.79 23.438 147.326 24.2426 147.828 26.1221Z" fill="#8FA386" stroke="#FDF9F0" stroke-width="0.5" stroke-miterlimit="10"/>
<path d="M69.8126 134.376C71.1049 134.555 74.8171 137.371 72.1005 137.654C70.7291 137.799 67.1686 134.258 69.8126 134.376Z" fill="#8FA386" stroke="#FDF9F0" stroke-width="0.5" stroke-miterlimit="10"/>
</g>
<defs>
<clipPath id="clip0_1519_276">
<rect width="294" height="224" fill="white"/>
</clipPath>
</defs>
</svg>
