<svg width="1030" height="664" viewBox="0 0 1030 664" fill="none" xmlns="http://www.w3.org/2000/svg">
<g clip-path="url(#clip0_1520_342)">
<path d="M299.848 522.743C298.818 522.153 297.475 521.852 297.098 521.073C295.768 518.334 294.098 519.239 292.29 520.281C287.972 522.794 283.402 524.251 278.318 524.389C274.313 524.502 270.748 526.751 266.856 527.63C264.785 528.107 262.764 528.811 260.63 528.987C255.784 529.401 251.478 531.725 246.871 532.981C243.017 534.024 239.2 534.916 235.221 535.456C228.781 536.323 222.416 537.767 216.051 539.136C213.377 539.714 211.117 539.802 208.456 538.408C204.64 536.398 201.037 534.288 198.112 531.097C197.283 530.205 196.279 529.602 195.224 529.012C189.55 525.884 187.366 521.085 188.094 514.767C188.734 509.227 189.136 503.624 189.173 498.047C189.236 490.171 190.19 482.395 191.182 474.607C191.42 472.773 191.458 470.889 191.471 469.029C191.584 458.515 192.525 448.051 193.655 437.6C194.007 434.321 193.768 433.919 190.353 433.882C187.039 433.844 183.712 433.744 180.411 434.384C178.176 434.811 175.891 434.749 173.682 434.158C169.175 432.977 164.518 432.538 160.086 431.068C158.416 430.515 156.671 430.591 154.939 430.628C139.9 430.867 124.91 429.95 109.909 428.958C97.3045 428.128 85.2654 425.001 73.7913 419.775C70.0502 418.067 66.0456 416.836 62.656 414.474C53.2658 407.929 46.5244 399.551 44.6162 387.843C43.5868 381.537 42.8963 375.193 42.3063 368.837C42.1682 367.38 41.9171 365.923 41.9171 364.466C41.9046 360.647 39.7077 358.788 36.3433 357.682C30.1542 355.647 24.0154 353.499 17.8766 351.351C9.67897 348.487 4.07997 342.596 1.00429 334.833C-0.853673 330.134 -0.138105 324.871 3.3393 320.562C3.75357 320.047 4.28083 319.645 4.46914 318.967C7.15566 309.37 14.2109 303.026 21.2034 296.72C32.0624 286.91 45.269 281.156 58.7895 276.282C66.0079 273.682 73.603 272.225 81.424 271.949C88.203 271.71 94.9821 271.559 101.761 271.396C104.573 271.321 107.322 270.868 110.072 270.404C111.792 270.115 113.399 269.524 114.729 268.293C119.412 263.922 124.747 260.442 130.032 256.9C136.673 252.453 143.628 248.584 151.047 245.556C154.186 244.275 154.387 243.848 153.985 240.482C153.935 240.08 153.922 239.678 153.797 239.301C151.625 232.467 151.524 225.42 151.663 218.348C151.713 216.087 151.524 213.838 151.072 211.602C150.294 207.808 149.905 203.977 150.093 200.096C150.696 188.363 149.189 176.731 148.549 165.048C148.399 162.31 147.432 159.823 146.001 157.562C142.348 151.771 139.937 145.49 137.778 139.02C135.631 132.576 132.242 126.697 129.053 120.693C126.015 114.977 122.149 109.689 120.115 103.395C118.96 99.8279 119.299 96.9513 121.847 94.2128C123.002 92.9692 124.182 91.7758 124.735 89.9921C125.249 88.359 127.107 87.9445 128.564 87.3667C135.719 84.5277 142.85 81.6511 150.382 79.8045C162.396 76.8651 174.397 73.9131 186.512 71.4887C192.613 70.2702 198.915 70.1446 205.092 69.2527C215.888 67.695 226.759 66.9162 237.568 65.4842C245.979 64.3787 254.441 63.5873 262.99 63.4492C275.343 63.2482 287.633 61.7785 299.923 60.359C315.126 58.6129 330.09 55.4348 345.318 53.8897C348.87 53.5254 352.373 52.5958 355.888 51.8547C369.672 48.9781 383.569 46.6165 397.403 43.9282C414.627 40.5868 431.863 37.4087 448.949 33.3638C464.202 29.7586 479.48 26.2162 494.997 23.8169C513.275 20.978 531.051 15.7774 549.141 12.1094C561.406 9.62219 573.332 5.85367 585.597 3.44182C589.376 2.70068 592.854 0.828984 596.67 0.150651C599.156 -0.289009 599.432 -0.125707 599.017 2.32383C598.854 3.30364 599.118 3.83123 599.708 4.37139C601.076 5.615 601.704 7.2229 601.779 8.9941C601.993 13.9685 603.286 18.742 604.667 23.4401C606.977 31.266 607.504 39.4186 609.399 47.2822C612.287 59.3289 613.002 71.7901 616.467 83.6861C619.568 94.3259 621.526 105.179 622.807 116.146C623.686 123.72 627.138 130.026 631.394 136.031C634.432 140.327 636.44 145.063 638.122 149.999C639.177 153.09 639.277 153.152 642.328 151.796C644.274 150.942 646.182 149.999 648.015 148.919C654.392 145.151 661.385 143.756 668.653 143.58C678.621 143.354 688.589 143.379 698.557 144.02C706.516 144.535 713.709 142.287 720.011 137.061C723.275 134.348 725.999 131.081 729.552 128.644C734.95 124.939 740.7 121.937 746.424 118.834C756.141 113.57 766.761 111.799 777.52 111.008C788.944 110.166 800.305 111.083 811.691 112.88C825.89 115.128 839.147 120.178 852.429 125.228C856.647 126.836 860.463 129.361 864.254 131.823C873.632 137.915 882.583 144.598 890.467 152.549C895.526 157.65 899.92 163.327 904.125 169.156C910.176 177.522 913.917 187.107 918.462 196.252C922.818 205.007 928.618 212.77 934.116 220.76C934.643 221.526 935.384 222.192 935.748 223.021C938.937 230.306 945.138 234.326 951.704 238.007C960.517 242.944 969.242 248.056 978.519 252.076C993.634 258.621 1008.67 265.316 1024.39 270.441C1032.45 273.067 1040.41 276.257 1047.51 281.068C1052.55 284.473 1056.14 289.296 1059.33 294.384C1064.93 303.29 1069.14 312.938 1074 322.233C1076.45 326.931 1078.21 331.956 1080.56 336.729C1084.25 344.229 1080.73 351.866 1072.95 356.991C1064.36 362.644 1054.85 365.018 1044.94 366.702C1032.12 368.887 1019.23 368.397 1006.34 368.284C996.232 368.197 986.152 367.38 976.033 367.506C962.136 367.681 948.402 368.887 935.171 373.41C929.132 375.482 923.496 378.535 918.135 381.989C908.08 388.484 897.961 395.053 886.613 398.847C876.344 402.289 865.736 405.128 854.538 403.633C848.763 402.867 842.888 402.754 837.025 402.603C820.944 402.201 804.862 401.749 788.806 400.857C774.871 400.078 760.936 399.488 746.977 399.425C739.52 399.387 732.113 399.965 724.706 400.769C721.279 401.146 717.802 401.196 714.349 401.096C702.461 400.756 690.748 402.477 679.01 403.847C670.423 404.852 661.799 405.417 653.174 405.618C646.697 405.781 640.596 407.138 634.52 409.273C623.033 413.318 611.245 415.881 598.967 415.303C595.64 415.152 592.414 414.474 589.313 413.067C585.572 411.359 581.819 409.65 577.739 408.809C576.596 408.57 575.542 407.904 574.475 407.351C573.169 406.673 571.826 406.058 570.357 405.907C568.662 405.731 566.604 405.015 565.398 406.372C563.955 407.992 565.838 409.537 566.465 411.032C569.867 419.109 573.119 427.249 576.22 435.465C577.814 439.685 579.597 443.868 581.731 447.838C585.196 454.269 587.945 461.078 591.573 467.396C593.431 470.625 595.063 473.929 596.67 477.27C597.862 479.757 598.051 479.87 600.612 478.777C605.395 476.73 610.24 475.059 615.362 473.991C625.167 471.944 634.909 472.258 644.713 473.677C652.12 474.745 659.577 474.406 667.009 474.23C668.766 474.192 670.361 473.464 672.005 472.898C681.835 469.544 691.15 464.972 700.703 460.952C715.303 454.81 730.355 450.036 745.734 446.217C759.97 442.675 774.457 440.866 789.057 439.798C792.773 439.522 796.489 439.321 800.205 439.133C809.821 438.655 819.249 439.911 828.765 441.306C842.235 443.278 854.877 447.7 867.016 453.365C878.076 458.528 887.579 466.002 894.057 476.805C897.396 482.383 901.225 487.671 904.828 493.098C905.581 494.216 906.561 495.095 907.69 495.824C915.536 500.911 921.525 507.619 926.232 515.759C930.752 523.572 935.924 530.996 941.473 538.157C944.674 542.289 948.741 544.199 953.775 544.475C955.232 544.551 956.7 544.563 958.157 544.676C959.764 544.789 961.458 544.965 962.588 546.184C964.308 548.03 966.442 548.382 968.752 548.432C969.681 548.457 970.61 548.57 971.539 548.57C978.092 548.507 982.047 552.175 984.884 557.652C989.529 566.647 988.148 573.844 980.339 582.349C974.251 588.981 967.572 595.111 960.303 600.563C953.939 605.337 948.051 610.788 942.502 616.504C935.208 624.003 926.396 628.588 916.415 631.101C909.586 632.822 902.681 634.229 895.84 635.912C889.99 637.344 883.989 637.482 878.051 638.123C871.837 638.801 865.61 639.391 859.509 640.736C850.37 642.758 841.042 642.921 831.79 643.675C819.738 644.667 807.687 645.697 795.685 647.205C788.831 648.072 781.951 648.85 775.072 649.24C763.635 649.906 752.35 651.765 740.976 652.858C725.484 654.34 710.194 657.392 694.69 658.636C680.253 659.792 665.854 661.337 651.417 662.455C628.958 664.201 606.487 664.213 584.041 663.573C564.52 663.02 544.998 662.053 525.553 659.968C518.296 659.189 510.94 659.189 503.709 658.196C491.858 656.563 480.007 654.817 468.106 653.762C456.268 652.707 444.693 650.433 433.157 647.833C431.738 647.506 430.332 647.079 428.938 646.64C417.678 643.022 406.605 638.876 395.508 634.819C389.143 632.495 382.728 630.272 376.263 628.249C371.015 626.616 365.517 626.465 360.068 626.39C348.632 626.252 337.183 626.139 325.746 626.39C311.811 626.704 298.216 624.343 284.582 621.956C276.51 620.536 269.053 617.383 261.408 614.733C257.014 613.213 252.696 611.442 248.277 610.01C242.414 608.113 238.874 603.641 235.811 598.779C234.204 596.217 232.835 593.428 232.019 590.438C231.103 587.072 231.379 584.057 233.476 581.005C237.43 575.226 242.439 570.528 247.687 565.993C252.507 561.835 257.353 557.69 262.086 553.419C264.27 551.447 266.643 549.738 269.028 548.068C275.908 543.232 281.908 537.365 288.185 531.851C291.876 528.61 295.617 525.482 299.873 522.693L299.848 522.743ZM412.38 348.261C413.686 347.306 413.886 346.515 414.213 345.786C414.615 344.882 415.192 344.015 416.297 344.455C417.514 344.932 417.615 346.05 417.226 347.156C416.648 348.789 415.895 350.346 415.343 351.979C413.648 356.904 410.547 361.225 409.003 366.174C406.944 372.782 404.22 379.15 402.111 385.733C401.245 388.433 401.295 388.685 404.258 388.672C410.899 388.672 417.552 388.572 424.193 388.421C425.361 388.396 426.742 388.207 427.633 387.567C431.562 384.728 436.157 383.271 440.413 381.11C449.778 376.362 459.218 371.764 468.495 366.852C475.438 363.172 482.907 360.697 489.887 357.092C493.39 355.283 497.156 353.838 501.148 353.148C503.508 352.733 505.492 352.884 507.387 354.68C509.207 356.401 511.304 357.971 513.677 358.838C522.678 362.092 531.214 366.601 540.454 369.139C543.906 370.081 545.626 372.141 546.869 375.018C547.81 377.203 548.174 379.741 549.442 381.688C552.97 387.064 554.916 393.207 558.192 398.696C559.335 400.618 560.44 401.686 562.724 401.824C571.349 402.327 579.258 405.404 587.104 408.758C590.895 410.379 594.774 411.836 598.992 411.886C610.253 412.049 621.3 410.68 631.896 406.723C639.328 403.935 646.973 402.603 654.869 402.302C660.581 402.075 666.306 401.9 671.968 401.209C685.701 399.538 699.435 398.244 713.282 398.307C716.471 398.319 719.659 398.232 722.836 397.804C727.97 397.126 733.117 396.31 738.289 396.096C752.124 395.543 765.97 395.92 779.742 397.013C796.062 398.307 812.382 398.847 828.727 399.098C836.171 399.211 843.628 398.872 851.035 399.89C862.045 401.41 872.766 399.978 883.261 396.599C890.241 394.35 896.844 391.147 903.121 387.441C906.874 385.23 910.728 383.107 914.319 380.633C919.265 377.228 924.513 374.389 930.011 372.04C936.878 369.088 944.084 367.355 951.491 366.187C958.332 365.094 965.199 364.353 972.104 364.164C984.344 363.825 996.546 364.503 1008.76 365.37C1021.67 366.287 1034.53 365.106 1047.26 362.757C1050.92 362.079 1054.77 361.978 1058.2 360.71C1063.66 358.687 1068.94 356.1 1073.54 352.356C1079.23 347.733 1080.13 343.651 1077.04 336.943C1071.25 324.394 1065.49 311.832 1058.75 299.76C1056.24 295.251 1053.42 290.867 1049.67 287.173C1044.33 281.897 1037.55 279.084 1030.74 276.421C1023.81 273.707 1016.72 271.446 1009.79 268.771C1003.35 266.271 997.036 263.444 990.633 260.831C979.925 256.46 969.367 251.787 959.337 245.984C954.968 243.459 950.524 241.047 946.155 238.534C942.439 236.399 938.786 233.937 936.451 230.382C932.66 224.603 928.818 218.863 924.814 213.235C919.152 205.284 914.658 196.691 910.766 187.785C906.134 177.183 899.694 167.799 892.111 159.182C885.596 151.783 877.913 145.666 870.067 139.686C857.764 130.303 843.729 124.763 829.217 120.303C818.922 117.138 808.365 115.002 797.531 114.5C787.55 114.035 777.57 114.048 767.665 115.367C756.379 116.874 746.437 121.999 736.795 127.753C731.975 130.629 727.769 134.234 723.664 138.066C717.136 144.146 709.616 147.65 700.239 147.261C688.551 146.771 676.838 147.16 665.126 147.123C662.301 147.123 659.464 147.324 656.903 148.442C652.17 150.527 647.437 152.637 642.931 155.238C641.06 156.318 640.244 157.737 640.382 159.772C640.47 161.091 640.683 162.41 640.922 163.717C642.165 170.387 644.45 176.831 645.065 183.627C645.266 185.788 645.931 187.773 646.898 189.694C649.823 195.511 653.162 201.176 655.258 207.344C656.815 211.916 658.736 216.237 661.259 220.332C661.611 220.898 661.812 221.551 662.1 222.141C664.385 226.664 665.804 231.563 667.888 236.135C673.022 247.39 677.893 258.746 682.362 270.265C684.032 274.574 686.379 278.669 686.819 283.43C686.907 284.322 687.471 285.164 687.785 286.03C689.279 290.201 692.242 293.63 693.836 297.688C695.042 300.74 696.874 302.901 699.649 304.421C700.352 304.798 701.017 305.25 701.657 305.727C702.398 306.28 703.34 306.87 702.749 307.963C702.197 308.993 701.143 308.667 700.239 308.466C698.833 308.139 697.653 307.234 696.058 307.322C687.434 307.8 678.772 307.913 670.172 308.641C664.36 309.131 658.535 309.332 652.71 309.998C638.461 311.644 624.301 313.98 610.04 315.563C603.399 316.304 596.996 318.038 590.493 319.419C576.847 322.321 563.126 324.921 549.555 328.162C537.278 331.089 525.101 334.431 512.672 336.667C510.174 337.119 507.764 337.885 505.542 339.129C502.253 340.963 501.876 341.88 502.83 345.598C503.257 347.269 503.709 348.939 504.098 350.623C504.224 351.163 504.01 351.69 503.521 351.992C502.88 352.394 502.202 352.243 501.7 351.753C501.248 351.288 500.759 350.748 500.596 350.145C499.993 347.972 499.051 345.849 499.014 343.563C498.951 339.807 498.11 336.189 497.445 332.521C496.327 326.366 494.243 320.437 493.352 314.231C492.9 311.078 492.837 310.99 489.649 310.865C485.657 310.714 483.02 308.918 481.162 305.325C477.961 299.094 476.103 292.437 474.885 285.628C473.655 278.807 472.262 272.062 470.165 265.442C468.006 258.583 466.976 251.448 465.495 244.426C464.353 238.999 461.955 234.088 458.791 229.616C454.737 223.875 446.564 222.845 442.07 227.342C439.722 229.704 438.843 232.844 438.53 236.035C438.228 239.075 438.329 242.152 438.253 245.205C438.153 249.237 437.55 253.181 435.868 256.862C434.387 260.103 430.457 260.392 428.537 257.427C427.382 255.643 426.39 253.734 426.264 251.523C425.963 246.473 425.436 241.424 425.423 236.386C425.411 231.6 424.419 227.128 422.36 222.895C419.347 216.69 416.021 210.635 413.083 204.404C409.957 197.759 405.199 192.458 399.814 187.685C398.056 186.127 395.897 184.733 393.386 184.745C383.305 184.783 373.187 183.64 363.156 185.687C350.176 188.338 337.296 187.798 324.566 184.054C322.62 183.476 322.093 183.828 322.055 186.278C321.942 192.659 321.842 199.053 322.03 205.447C322.231 212.079 322.269 218.8 323.888 225.269C326.085 233.987 326.964 242.78 326.738 251.749C326.65 255.342 326.449 258.972 326.876 262.527C327.742 269.826 326.537 269.926 333.956 269.914C336.969 269.914 338.011 270.969 338.4 273.946C339.191 280.001 340.986 285.88 341.024 292.06C341.037 295.1 342.794 296.645 345.82 296.745C347.276 296.796 348.732 296.482 350.188 296.507C352.611 296.557 353.339 297.851 351.996 299.873C350.452 302.197 348.908 304.584 346.987 306.581C344.024 309.659 343.736 313.214 344.665 316.957C345.958 322.12 347.565 327.195 348.983 332.32C349.9 335.649 352.122 337.96 355.097 339.305C358.361 340.787 361.914 341.679 365.554 341.478C373.513 341.038 381.46 340.435 389.419 339.97C390.951 339.882 392.306 339.455 393.499 338.576C396.324 336.478 399.512 335.121 402.889 334.305C405.438 333.689 407.509 332.345 409.555 330.851C413.736 327.785 417.715 324.482 420.942 320.374C421.682 319.432 422.511 318.54 423.716 318.163C424.783 317.824 425.649 318.615 425.335 319.658C425.185 320.16 424.896 320.625 424.582 321.052C422.084 324.507 419.008 327.434 415.719 330.084C414.037 331.441 411.928 332.672 411.539 334.72C410.71 339.116 410.698 343.601 412.367 348.261H412.38ZM608.194 660.307C624.263 661.048 640.847 659.817 657.418 658.536C664.435 657.995 671.516 658.297 678.496 657.154C682.425 656.501 686.392 656.073 690.359 655.634C707.269 653.762 724.154 651.777 741.014 649.504C748.119 648.549 755.237 647.368 762.393 647.004C773.427 646.439 784.387 645.295 795.334 643.863C804.423 642.67 813.512 641.565 822.701 641.188C831.727 640.811 840.753 640.258 849.704 638.927C857.186 637.821 864.593 636.163 872.176 635.636C887.228 634.593 901.903 631.452 916.44 627.609C922.115 626.101 927.588 624.229 932.459 620.712C936.69 617.66 940.493 614.155 944.109 610.462C952.219 602.171 962.161 595.991 970.271 587.713C973.698 584.208 977.69 581.268 980.515 577.161C983.729 572.488 984.821 567.526 983.302 562.011C981.745 556.409 977.138 552.64 971.589 551.786C967.735 551.196 963.894 551.686 960.065 551.233C958.885 551.095 957.416 551.183 957.178 549.676C956.914 548.03 955.834 547.967 954.617 547.779C951.591 547.314 948.566 546.925 945.666 545.869C944.26 545.354 942.929 544.764 941.95 543.633C939.941 541.335 937.794 539.111 936.075 536.599C931.643 530.13 927.086 523.761 923.132 516.965C919.654 510.986 915.549 505.496 909.724 501.388C907.276 499.667 904.527 498.11 902.681 495.585C898.827 490.334 895.036 485.033 891.86 479.33C890.165 476.29 888.069 473.501 885.721 470.989C880.424 465.324 874.272 460.651 867.33 457.171C857.186 452.084 846.516 448.416 835.468 445.928C828.087 444.258 820.605 442.939 813.01 442.637C802.364 442.21 791.681 442.562 781.135 443.617C765.544 445.175 750.04 447.712 735.025 452.561C733.757 452.976 732.49 453.378 731.196 453.679C723.79 455.387 716.697 458.076 709.679 460.889C699.071 465.148 688.677 469.921 678.069 474.192C673.16 476.177 668.051 477.999 662.69 478.124C658.058 478.237 653.4 477.747 648.768 477.283C639.792 476.378 630.854 474.531 621.777 476.102C613.555 477.521 605.357 479.091 598.365 484.154C597.85 484.518 597.134 484.619 596.494 484.782C594.41 485.335 592.552 486.339 590.782 487.545C587.029 490.07 583.237 492.52 579.496 495.07C573.295 499.316 566.716 500.949 559.121 499.504C544.22 496.69 530.097 491.754 516.79 484.593C507.638 479.669 498.072 475.712 488.582 471.567C487.238 470.977 485.82 470.675 484.363 470.399C478.865 469.369 473.266 469.18 467.742 468.414C455.314 466.668 442.948 465.864 430.432 468.1C414.589 470.939 398.834 474.079 383.393 478.627C376.639 480.611 370.224 483.651 363.608 486C349.435 491.012 337.107 498.763 326.386 509.227C323.951 511.601 321.829 514.189 321.139 517.53C320.298 521.65 317.636 523.183 313.858 523.572C312.665 523.698 311.472 524.138 310.318 524.062C304.279 523.648 299.571 526.462 295.153 530.092C286.126 537.503 277.916 545.869 268.3 552.628C261.345 557.514 255.219 563.506 248.879 569.184C244.724 572.902 240.619 576.658 237.204 581.143C234.781 584.333 234.455 587.574 235.748 591.255C238.723 599.659 243.983 605.714 252.758 608.289C253.273 608.439 253.763 608.666 254.277 608.766C257.428 609.419 260.341 610.726 263.291 611.944C270.673 614.984 278.192 617.66 286.064 619.117C291.022 620.034 296.056 620.536 301.053 621.303C306.978 622.207 312.916 622.848 318.917 622.848C327.566 622.848 336.216 623.011 344.853 622.911C352.31 622.81 359.742 623.3 367.174 623.727C371.555 623.978 375.949 624.581 380.104 626.013C390.649 629.656 401.169 633.387 411.639 637.269C424.118 641.904 436.709 646.037 449.941 648.009C458.616 649.303 467.29 650.596 476.015 651.614C482.618 652.38 489.272 652.493 495.825 653.687C508.404 655.973 521.171 656.802 533.876 657.706C544.597 658.473 555.368 658.925 566.126 659.427C579.936 660.055 593.757 660.872 608.169 660.319L608.194 660.307ZM505.404 178.464C505.63 192.847 504.249 207.595 504.65 222.367C504.676 223.297 504.588 224.227 504.487 225.156C503.508 234.289 502.868 243.434 502.918 252.629C502.931 255.015 502.805 257.415 502.692 259.801C502.165 270.705 501.914 281.609 502.792 292.512C503.131 296.695 502.29 300.728 501.349 304.747C500.972 306.317 500.056 307.737 498.537 308.466C496.327 309.521 495.938 311.028 496.478 313.352C498.047 320.085 499.805 326.768 500.872 333.627C501.437 337.257 501.612 337.219 505.115 335.599C505.83 335.26 506.584 334.946 507.35 334.77C512.647 333.539 517.97 332.345 523.28 331.165C529.381 329.795 535.621 328.903 541.546 326.969C550.183 324.168 559.209 323.326 567.897 320.814C573.621 319.168 579.634 318.527 585.459 317.246C593.757 315.412 601.905 312.938 610.479 312.435C618.714 311.945 626.749 309.86 634.896 308.667C643.182 307.448 651.63 307.775 659.853 305.978C661.259 305.677 662.766 305.915 664.234 305.84C666.494 305.74 668.754 305.689 671.001 305.426C676.286 304.81 681.571 304.358 686.894 304.207C688.802 304.157 691.564 305.212 692.418 303.378C693.259 301.569 691.288 299.509 690.258 297.662C686.957 291.758 683.216 286.043 682.412 279.071C682.312 278.167 681.998 277.237 681.571 276.433C677.441 268.645 675.47 259.977 671.453 252.139C669.457 248.232 667.812 244.162 666.08 240.117C662.904 232.668 660.556 224.842 656.125 217.946C655.271 216.627 654.819 215.044 654.191 213.574C651.48 207.218 649.17 200.724 645.693 194.681C643.784 191.378 642.366 187.722 641.638 183.891C640.006 175.399 638.587 166.87 636.742 158.428C635.185 151.293 633.214 144.296 628.87 138.116C626.309 134.461 623.686 130.78 622.116 126.409C620.309 121.346 619.292 116.171 618.501 110.907C617.635 105.129 617.584 99.2501 615.689 93.6224C613.869 88.2083 612.475 82.6686 611.521 77.0033C610.102 68.4738 608.056 60.0449 606.801 51.503C604.667 36.9942 600.913 22.8497 597.875 8.55444C597.649 7.46157 596.871 6.69531 596.406 5.74062C595.753 4.40907 594.824 4.01966 593.494 4.55981C589.025 6.39383 584.229 6.83349 579.584 7.9766C572.88 9.62219 566.239 11.5064 559.511 13.1395C546.467 16.305 533.16 18.3777 520.343 22.4603C519.464 22.7366 518.522 22.8999 517.606 23.013C505.454 24.445 493.704 28.0754 481.514 29.4823C473.366 30.4244 465.395 32.8865 457.385 34.7959C441.091 38.6774 424.783 42.3832 408.262 45.197C398.044 46.9431 387.95 49.3549 377.731 51.101C365.554 53.1737 353.452 55.7363 341.263 57.7713C326.838 60.1831 312.288 61.6905 297.864 64.0521C288.8 65.5344 279.674 66.4012 270.472 66.376C260.755 66.3509 251.038 66.6273 241.46 68.3231C231.756 70.0441 221.964 71.0616 212.172 71.7776C194.86 73.0463 177.913 76.1239 161.191 80.6461C158.881 81.2742 156.571 81.9023 154.223 82.3545C145.812 83.9624 137.916 87.0652 130.045 90.3187C127.509 91.3739 126.643 93.6727 125.588 95.6825C124.697 97.3784 127.045 98.2326 127.773 99.5641C128.676 101.21 130.083 102.478 131.237 103.91C133.987 107.315 136.874 110.681 138.807 114.651C142.423 122.05 145.687 129.612 150.206 136.558C154.487 143.128 158.567 149.824 162.76 156.456C167.593 164.106 173.77 170.789 178.44 178.565C182.47 185.285 186.838 191.755 189.588 199.216C192.575 207.356 195.463 215.459 196.856 224.051C197.396 227.329 198.099 230.595 199.066 233.761C201.363 241.248 201.915 248.923 201.551 256.661C201.112 266.082 199.392 275.416 199.568 284.912C199.681 290.892 199.241 296.884 198.865 302.85C198.463 309.357 197.835 315.852 195.438 322.02C193.981 325.75 192.902 329.632 192.312 333.564C191.307 340.335 189.098 346.741 186.725 353.097C183.185 362.619 183.26 372.066 186.863 381.562C188.797 386.662 190.429 391.85 190.918 397.352C191.194 400.53 191.759 403.683 192.324 406.824C192.839 409.726 195.149 411.647 197.71 411.396C207.627 410.404 217.608 410.178 227.488 408.683C240.744 406.673 254.114 405.191 266.655 399.978C269.593 398.759 272.895 398.91 275.857 397.541C282.172 394.614 288.901 393.081 295.73 391.825C303.2 390.456 310.481 388.295 317.26 384.778C323.876 381.349 330.466 377.882 337.76 376.098C343.045 374.804 348.18 372.706 353.616 372.267C358.248 371.902 362.893 371.538 367.538 371.4C377.531 371.123 387.348 369.151 397.303 368.598C402.186 368.322 406.844 367.016 407.622 360.873C407.685 360.371 407.961 359.843 408.262 359.428C410.522 356.263 410.911 353.122 409.078 349.454C407.534 346.352 407.597 342.721 407.283 339.292C407.095 337.27 406.103 336.729 404.371 337.257C401.822 338.023 399.349 338.991 397.027 340.297C395.282 341.277 393.524 342.508 391.553 342.633C385.59 343.01 379.778 344.769 373.752 344.442C371.906 344.342 369.986 344.329 368.191 344.668C364.387 345.397 360.746 344.781 357.193 343.638C352.511 342.131 348.594 339.719 346.535 334.845C343.66 328.037 342.041 320.964 341.426 313.628C341.112 309.835 341.539 306.167 343.874 302.976C344.803 301.707 344.489 300.778 343.334 299.949C342.794 299.559 342.292 299.082 341.702 298.818C338.262 297.311 337.271 294.56 337.459 291.03C337.685 286.897 336.919 282.89 336.09 278.807C335.237 274.549 333.479 272.451 329.111 272.79C328.859 272.815 328.583 272.702 328.332 272.639C324.88 271.861 324.277 271.006 323.838 267.59C322.972 260.831 323.26 254.036 323.223 247.252C323.198 242.717 322.783 238.208 322.018 233.761C319.695 220.37 318.39 206.891 318.377 193.287C318.377 190.348 318.729 187.458 319.093 184.544C319.532 180.989 319.181 180.487 316.08 178.891C314.536 178.1 312.954 177.409 311.435 176.567C304.844 172.912 301.982 165.388 304.48 158.202C307.694 148.969 313.632 141.797 321.315 135.943C325.42 132.815 329.487 129.687 334.195 127.376C338.262 125.378 342.644 124.185 346.623 122.012C348.481 120.994 350.414 120.052 352.398 119.311C359.503 116.673 366.496 113.771 373.576 111.108C387.071 106.046 400.768 101.976 415.117 100.293C416.033 100.18 416.937 99.941 417.841 99.7023C424.181 97.9562 430.721 97.3784 437.199 97.504C446.828 97.6798 456.218 99.8405 465.093 103.647C469.462 105.518 473.718 107.842 476.492 112.076C477.208 113.168 478.225 114.111 479.267 114.902C486.711 120.58 491.908 128.054 496.327 136.156C498.185 139.561 499.277 143.279 500.834 146.796C503.935 153.831 505.78 161.091 505.391 168.867C505.24 171.92 505.366 174.985 505.366 178.439L505.404 178.464ZM512.559 478.501C513.576 476.893 513.639 475.411 513.928 473.991C514.505 471.127 514.945 468.225 515.648 465.387C515.974 464.08 516.175 461.957 518.108 462.384C520.129 462.837 519.213 464.796 518.912 466.103C518.07 469.733 517.066 473.326 516.577 477.019C516.284 479.246 517.104 480.909 519.037 482.006C527.649 486.88 536.864 490.246 546.279 493.135C551.514 494.743 556.786 496.062 562.247 496.414C565.813 496.64 569.478 497.117 572.792 495.221C579.597 491.314 586.087 486.905 592.678 482.671C594.473 481.516 594.423 480.31 593.557 478.652C591.774 475.26 590.255 471.755 588.309 468.401C585.246 463.138 582.911 457.46 580.136 452.008C573.897 439.798 569.642 426.734 564.193 414.172C563.227 411.949 562.448 409.851 560.477 408.206C558.983 406.962 557.59 405.291 556.837 403.52C552.995 394.451 547.497 386.21 544.044 376.965C543.454 375.369 542.701 373.799 540.856 373.096C536.763 371.538 532.671 369.968 528.641 368.247C520.995 364.968 512.723 363.021 505.969 357.795C504.914 356.979 503.734 356.225 502.303 356.527C499.968 357.017 497.52 357.042 495.348 358.16C485.405 363.26 474.823 366.965 464.955 372.229C461.089 374.289 457.159 376.249 453.268 378.271C444.066 383.032 434.563 387.228 425.536 392.328C424.733 392.78 423.992 393.37 423.164 393.797C422.134 394.337 420.917 394.526 420.465 393.219C419.799 391.247 418.305 391.612 416.887 391.561C409.568 391.323 402.274 391.863 394.968 392.227C393.738 392.29 392.671 392.629 391.616 393.307C386.243 396.749 380.995 400.38 375.848 404.148C366.96 410.643 358.286 417.413 349.046 423.43C340.773 428.819 331.759 432.789 323.311 437.826C318.151 440.904 312.389 442.688 306.928 445.137C303.89 446.494 302.609 448.478 302.647 451.895C302.798 466.128 302.484 480.373 301.028 494.53C300.274 501.841 301.103 509.177 300.061 516.437C299.848 517.945 300.576 518.648 301.969 518.912C304.719 519.414 307.443 520.043 310.205 520.419C314.172 520.947 316.507 519.427 318.264 515.709C320.084 511.852 322.219 508.297 325.595 505.433C328.834 502.682 332.174 500.057 335.438 497.344C338.087 495.133 340.961 493.161 343.937 491.414C351.745 486.804 360.332 483.877 368.68 480.435C378.786 476.278 389.281 473.338 399.927 470.914C400.843 470.7 402.073 470.6 402.387 469.796C403.442 467.133 405.877 465.512 407.107 462.962C410.698 455.538 414.439 448.202 418.13 440.828C418.418 440.251 418.757 439.66 419.197 439.183C419.561 438.793 420.126 438.693 420.665 438.969C421.168 439.233 421.544 439.648 421.481 440.225C421.406 440.866 421.255 441.544 420.967 442.122C417.226 449.609 413.46 457.083 409.693 464.557C409.003 465.927 407.948 467.195 408.3 468.891C408.764 468.929 409.028 469.004 409.279 468.954C410.447 468.715 411.614 468.452 412.782 468.163C424.971 465.211 437.249 463.377 449.878 463.666C457.348 463.829 464.704 464.947 472.111 465.399C481.815 466.002 490.942 468.439 499.629 472.798C503.759 474.871 508.103 476.554 512.584 478.514L512.559 478.501ZM167.016 332.446C167.016 328.966 167.179 325.901 166.978 322.849C166.589 316.882 165.673 310.965 164.329 305.137C162.396 296.745 159.007 288.719 158.366 279.988C157.826 272.564 155.278 265.404 155.203 257.892C155.178 255.367 155.014 252.842 154.927 250.317C154.864 248.735 154.085 248.194 152.566 248.634C149.993 249.375 147.583 250.456 145.222 251.712C135.104 257.076 125.551 263.294 116.801 270.718C114.629 272.552 112.018 273.569 109.206 274.059C106.318 274.561 103.418 274.863 100.481 274.938C93.1743 275.114 85.8555 275.315 78.5617 275.667C74.0549 275.88 69.5481 276.282 65.1919 277.652C54.5086 281.006 44.1643 285.164 34.5983 291.08C22.4085 298.617 11.8382 307.662 6.51541 321.542C6.32711 322.02 5.86261 322.371 5.63665 322.849C3.62804 327.032 2.47309 331.491 4.8332 335.724C7.41929 340.372 10.6707 344.656 15.8554 346.854C18.0524 347.784 20.1991 348.952 22.4839 349.567C28.1582 351.1 33.481 353.512 38.9796 355.522C42.6327 356.866 44.7041 359.165 45.1184 363.046C45.8465 369.917 46.901 376.776 47.3027 383.673C47.9806 395.041 53.6675 403.369 62.2669 410.203C66.0832 413.243 70.6277 414.738 74.9713 416.735C87.2113 422.363 100.079 425.717 113.474 426.119C127.157 426.533 140.829 427.613 154.537 427.149C157.5 427.048 160.387 427.387 163.149 428.493C172.627 432.299 182.532 430.98 192.337 431.005C193.517 431.005 194.496 430.565 194.597 429.259C194.873 425.403 195.576 421.609 196.153 417.803C196.367 416.371 195.526 415.14 194.107 415.743C190.24 417.388 188.998 415.504 187.127 412.313C182.557 404.512 179.519 396.322 177.913 387.479C176.808 381.349 175.841 375.156 172.991 369.49C171.975 367.468 171.046 365.383 170.782 363.109C170.456 360.308 169.665 357.645 168.736 355.007C168.02 352.997 167.731 350.899 167.367 348.789C166.401 343.211 166.878 337.634 167.028 332.471L167.016 332.446ZM299.358 466.09C299.358 461.605 299.396 458.402 299.358 455.212C299.308 451.619 299.007 451.493 295.743 452.523C288.147 454.923 280.527 457.234 272.895 459.545C266.279 461.555 259.625 463.427 252.821 464.683C250.913 465.035 249.984 465.939 250.135 467.899C250.21 468.828 250.248 469.758 250.273 470.688C250.298 471.755 250.423 473.049 249.042 473.263C247.385 473.514 247.222 472.032 246.958 470.901C246.745 469.997 246.732 469.055 246.632 468.138C245.665 458.591 245.979 449.006 245.967 439.434C245.967 436.118 245.766 432.776 246.205 429.46C246.996 423.481 246.569 417.514 245.917 411.56C245.716 409.776 244.837 409.336 243.217 409.675C241.272 410.077 239.313 410.542 237.33 410.693C225.542 411.635 213.929 414.172 202.091 414.537C199.894 414.612 199.292 415.717 199.041 417.803C198.551 422.036 198.576 426.307 198.011 430.515C196.442 442.248 195.048 454.006 194.534 465.801C194.044 477.094 192.487 488.312 192.6 499.642C192.651 505.207 192.488 510.797 191.395 516.337C190.705 519.816 192.186 522.869 195.074 525.067C196.869 526.436 198.928 527.517 200.509 529.1C203.284 531.863 206.322 534.036 209.962 535.531C211.419 536.134 212.624 536.411 214.13 536.034C217.482 535.192 220.834 534.413 224.299 534.087C230.124 533.534 235.911 532.504 241.51 530.946C250.976 528.308 260.441 525.67 269.97 523.258C273.698 522.316 277.364 521.022 281.23 520.683C286.026 520.269 289.98 517.719 294.198 515.834C296.182 514.955 297.111 513.234 297.111 511.011C297.111 509.013 297.274 507.029 297.362 505.031C297.977 491.615 299.295 478.237 299.358 466.09ZM403.605 370.583C398.822 372.48 394.541 372.279 390.323 372.656C382.527 373.347 374.719 373.987 366.91 374.628C359.641 375.219 352.285 375.181 345.292 377.743C344.175 378.145 342.97 378.359 341.802 378.547C335.149 379.628 329.085 382.354 323.198 385.444C314.561 389.979 305.635 393.609 295.906 394.953C292.604 395.405 289.403 396.197 286.227 397.264C275.142 400.97 264.12 404.877 252.746 407.678C249.432 408.495 249.08 408.884 249.457 412.426C249.934 416.798 250.047 421.169 250.084 425.566C250.097 427.362 249.319 429.159 249.808 431.093C252.432 431.093 254.729 431.709 257.039 432.337C264.433 434.347 271.915 435.264 279.485 433.392C283.477 432.412 287.457 431.307 291.361 430C300.526 426.923 309.828 426.269 319.281 428.141C322.959 428.87 326.725 428.455 330.379 429.284C331.483 429.535 332.45 428.995 333.429 428.581C340.07 425.754 346.096 421.772 351.971 417.727C362.24 410.655 371.944 402.754 382.188 395.631C386.268 392.805 390.172 389.401 395.219 388.107C396.976 387.655 398.094 386.323 398.885 384.665C400.893 380.469 402.337 376.085 403.592 370.596L403.605 370.583ZM325.156 432.563C320.197 431.872 315.879 430.842 311.397 430.628C301.932 430.201 292.943 432.324 284.155 435.552C276.698 438.278 269.116 438.341 261.395 436.846C257.504 436.093 253.763 434.786 250.072 433.869C249.218 434.698 249.394 435.54 249.394 436.306C249.381 443.215 249.356 450.124 249.394 457.046C249.419 461.128 250.135 461.731 254.189 460.889C262.375 459.194 270.509 457.297 278.393 454.445C284.005 452.41 289.968 451.468 295.466 449.069C297.274 448.277 299.233 447.75 299.797 445.413C300.074 444.245 301.266 444.032 302.283 443.667C308.158 441.57 313.569 438.366 319.482 436.319C321.428 435.64 323.185 434.409 325.156 432.563Z" fill="#8FA386"/>
<path d="M346.95 227.694C341.815 227.028 336.417 226.689 330.969 227.606C328.797 227.97 326.964 225.935 326.7 223.347C326.424 220.609 327.88 218.524 330.429 218.071C332.211 217.757 333.956 218.185 335.425 219.064C339.003 221.187 342.957 221.425 346.912 221.865C347.439 221.928 347.979 221.903 348.494 222.028C349.862 222.355 351.632 222.255 351.582 224.365C351.532 226.463 350.151 227.719 348.042 227.757C347.778 227.757 347.514 227.731 346.962 227.706L346.95 227.694Z" fill="#8FA386"/>
<path d="M442.861 251.235C443.061 245.833 443.576 241.487 445.221 237.367C446.539 234.063 450.029 232.995 452.64 234.955C453.418 235.545 454.084 236.274 453.569 237.304C453.142 238.158 452.301 237.995 451.473 237.919C448.485 237.643 448.096 237.907 447.305 240.67C445.974 245.356 446.2 250.129 446.564 254.903C446.69 256.536 447.769 257.817 448.673 259.136C449.351 260.141 450.205 261.347 448.748 262.201C447.355 263.018 446.602 261.711 445.936 260.744C443.802 257.578 442.559 254.136 442.861 251.247V251.235Z" fill="#8FA386"/>
<path d="M339.041 242.994C337.722 242.956 335.965 242.529 334.81 240.821C334.358 240.142 334.132 239.338 334.634 238.597C335.174 237.806 335.927 237.919 336.731 238.22C340.037 239.418 342.832 238.572 345.117 235.683C345.807 234.816 346.447 233.861 347.653 234.703C348.581 235.356 348.293 236.336 347.954 237.228C346.774 240.268 342.744 243.044 339.028 242.981L339.041 242.994Z" fill="#8FA386"/>
<path d="M451.083 240.055C452.175 240.218 452.853 241.097 452.665 241.989C452.238 244.049 451.636 246.097 450.807 248.031C450.456 248.835 449.376 248.659 448.849 247.856C448.108 246.725 449.238 241.072 450.317 240.293C450.518 240.155 450.807 240.143 451.083 240.067V240.055Z" fill="#8FA386"/>
<path d="M520.958 312.774C520.619 312.774 519.64 312.699 519.426 311.531C519.213 310.375 520.054 309.835 521.008 309.609C522.301 309.307 523.607 308.993 524.925 308.968C532.143 308.855 539.161 307.498 546.128 305.777C548.451 305.199 550.786 304.684 553.183 304.634C554.025 304.622 554.803 304.898 554.966 305.853C555.129 306.795 554.527 307.322 553.723 307.636C553.234 307.825 552.719 308.064 552.204 308.089C545.4 308.478 539.035 311.204 532.306 311.907C528.754 312.284 525.163 312.448 520.958 312.762V312.774Z" fill="#8FA386"/>
<path d="M271.099 185.398C267.195 184.431 263.002 184.921 259.048 183.514C254.302 181.818 249.356 180.813 244.423 179.783C243.908 179.67 243.368 179.633 242.866 179.494C241.686 179.155 240.343 178.716 240.769 177.17C241.221 175.537 242.665 176.09 243.782 176.354C252.67 178.414 261.471 180.914 270.535 182.208C270.924 182.258 271.3 182.396 271.689 182.522C272.468 182.76 273.296 183.074 273.259 184.042C273.208 185.323 272.116 185.273 271.112 185.411L271.099 185.398Z" fill="#8FA386"/>
<path d="M497.068 110.091C496.315 110.104 495.888 109.852 495.637 109.325C495.386 108.772 495.561 108.219 495.963 107.88C497.281 106.762 498.562 105.581 500.018 104.689C503.885 102.315 507.224 99.2628 510.902 96.6625C511.555 96.2103 512.17 95.6953 512.861 95.2933C513.651 94.8285 514.442 94.9793 514.932 95.7581C515.321 96.3611 515.233 97.1399 514.681 97.5795C509.32 101.913 504.073 106.398 498.022 109.802C497.683 109.991 497.269 110.041 497.055 110.104L497.068 110.091Z" fill="#8FA386"/>
<path d="M350.038 84.779C350.979 84.7287 351.544 85.294 351.971 85.9724C353.314 88.1204 354.344 90.4318 354.57 92.9692C354.871 96.4363 355.762 99.7149 357.03 102.931C357.269 103.546 357.507 104.174 357.57 104.827C357.633 105.518 357.319 106.121 356.603 106.373C355.888 106.624 355.222 106.373 354.883 105.782C354.369 104.878 353.904 103.91 353.616 102.906C352.109 97.7301 351.632 92.2532 349.159 87.3416C348.632 86.2864 348.77 85.2689 350.063 84.779H350.038Z" fill="#8FA386"/>
<path d="M518.347 303.554C516.853 303.516 515.974 303.554 515.698 302.587C515.346 301.368 516.3 300.966 517.179 300.64C522 298.856 526.82 297.072 531.654 295.326C532.52 295.012 533.487 294.786 534.34 295.326C535.131 295.816 535.47 296.922 534.629 297.236C528.967 299.321 523.682 302.436 518.347 303.554Z" fill="#8FA386"/>
<path d="M263.68 203.739C261.835 203.626 259.977 203.588 258.144 203.387C257.366 203.299 256.575 202.872 256.537 201.917C256.499 200.699 257.416 200.385 258.382 200.309C259.562 200.209 260.768 200.234 261.948 200.209C265.249 200.133 268.564 200.46 271.828 199.581C272.794 199.317 274.15 198.877 274.502 200.309C274.803 201.54 273.573 202.093 272.656 202.583C271.35 203.274 269.907 203.55 268.438 203.6C266.856 203.651 265.262 203.6 263.668 203.6C263.668 203.651 263.668 203.688 263.668 203.739H263.68Z" fill="#8FA386"/>
<path d="M336.731 114.588C336.517 115.857 335.877 116.209 334.986 116.045C334.157 115.895 333.517 115.304 333.165 114.626C331.621 111.674 329.249 109.35 327.366 106.662C326.914 106.021 326.6 105.28 326.286 104.564C326.072 104.061 326.11 103.509 326.537 103.107C327.114 102.567 327.755 102.705 328.332 103.082C328.772 103.371 329.211 103.697 329.512 104.112C331.709 107.076 333.881 110.053 336.015 113.056C336.379 113.571 336.567 114.211 336.731 114.588Z" fill="#8FA386"/>
<path d="M513.513 113.571C513.513 114.161 513.174 114.575 512.71 114.839C509.659 116.648 506.785 118.771 503.47 120.128C502.604 120.479 501.562 120.856 500.972 119.889C500.206 118.633 501.299 117.929 502.19 117.414C505.027 115.756 507.877 114.111 510.789 112.603C512.258 111.837 513.601 112.427 513.513 113.571Z" fill="#8FA386"/>
</g>
<defs>
<clipPath id="clip0_1520_342">
<rect width="1082" height="664" fill="white"/>
</clipPath>
</defs>
</svg>
