<svg width="280" height="325" viewBox="0 0 280 325" fill="none" xmlns="http://www.w3.org/2000/svg">
<path d="M171.02 301.105C170.262 301.105 169.51 301.066 168.752 301.105C164.234 301.371 159.833 300.678 155.432 299.699C152.23 298.986 149.23 297.936 146.248 296.543C144.245 295.603 142.314 294.385 140.11 293.847C139.358 293.665 138.801 293.114 138.192 292.68C137.466 292.168 136.74 291.708 135.858 291.494C135.469 291.404 135.042 291.19 134.769 290.905C134.03 290.127 133.149 289.602 132.216 289.103C131.373 288.649 130.777 287.794 130.044 287.282C127.763 285.681 128.631 283.264 128.191 281.222C127.996 280.328 127.886 280.036 126.907 280.166C119.849 281.093 112.745 280.872 105.668 280.652C96.7944 280.373 87.9277 279.667 79.1259 278.442C75.3601 277.917 71.6333 277.087 67.8999 276.336C66.2536 276.005 64.737 275.24 63.149 274.709C57.9768 272.985 53.0444 270.73 48.5462 267.593C46.3684 266.07 43.9962 264.813 42.0971 262.914C40.6129 261.436 39.362 259.764 38.2277 258.014C37.5277 256.932 36.737 255.895 36.2184 254.696C35.9203 254.003 35.4796 253.517 35.8231 252.538C36.1212 251.67 35.2009 250.639 34.9934 249.602C34.5073 247.185 33.5675 244.858 33.6259 242.337C33.6323 242.052 33.5481 241.754 33.4509 241.475C32.0184 237.153 31.8759 232.584 30.8129 228.177C29.3546 222.156 28.6805 215.986 28.0971 209.81C27.7147 205.766 27.0407 201.754 26.5546 197.723C26.3407 195.98 26.1786 194.217 26.1527 192.461C26.0814 187.127 25.5434 181.839 24.6684 176.576C24.5518 175.876 24.5972 175.151 24.5972 174.438C24.5972 169.104 24.7786 163.764 24.5518 158.443C24.1305 148.327 24.4092 138.216 24.3833 128.1C24.3703 124.211 25.0444 120.323 24.999 116.441C24.9471 111.93 25.9518 107.53 25.9064 103.032C25.8805 100.472 26.2953 97.9512 26.6259 95.4172C27.0018 92.5008 27.4814 89.6168 28.136 86.7653C29.2444 81.9241 30.1972 77.0505 31.8434 72.339C33.1722 68.5283 34.9221 64.9314 36.7888 61.3864C38.0916 58.9042 39.6471 56.4091 41.8055 54.7047C44.2814 52.7475 46.712 50.6218 49.6546 49.2673C50.7434 48.7682 51.7092 47.9841 52.6814 47.2712C56.0064 44.8279 59.7657 43.2401 63.5509 41.6912C64.7046 41.2181 65.5147 40.1941 66.636 39.5979C69.3388 38.1527 72.1518 36.9861 75.036 35.9751C76.5268 35.4502 78.0046 34.8734 79.5018 34.3549C83.8703 32.8449 88.4397 32.1449 92.8212 30.7581C94.7592 30.1424 96.7425 29.8961 98.7129 29.5332C103.276 28.6842 107.839 27.7121 112.441 27.1936C117.846 26.5779 123.226 25.7808 128.644 25.2558C138.224 24.3226 147.81 24.1217 157.403 24.1541C164.273 24.18 171.137 24.5624 178.001 25.0161C182.914 25.3401 187.723 26.1372 192.552 26.9214C192.96 26.9862 193.355 27.1482 193.764 27.2519C198.58 28.4768 203.441 29.598 208.049 31.4839C211.86 33.0458 215.937 33.6615 219.793 35.0678C222.892 36.1955 226.022 37.2842 228.913 38.872C231.726 40.4145 234.429 42.1773 237.125 43.9336C238.972 45.139 240.923 46.1889 242.582 47.6859C244.721 49.6237 246.893 51.5291 248.805 53.7001C249.563 54.5621 249.479 55.8453 249.997 56.8498C250.742 58.295 251.468 59.7662 252.343 61.1272C254.32 64.212 255.13 67.6145 255.422 71.2048C255.487 71.989 255.72 72.7537 255.895 73.525C256.381 75.6636 255.869 77.6986 255.5 79.8049C255.007 82.6046 254.586 85.4043 253.905 88.1781C252.842 92.4814 251.708 96.7652 250.529 101.036C249.952 103.129 249.161 105.171 248.331 107.18C247.236 109.837 246.212 112.533 244.689 115.002C243.671 116.655 242.492 118.152 241.13 119.526C239.419 121.256 237.65 122.935 236.036 124.749C234.014 127.018 232.854 129.791 231.596 132.533C230.89 134.082 230.877 135.54 230.942 137.102C231.071 140.044 231.752 142.909 232.056 145.825C232.303 148.242 232.815 150.627 232.776 153.077C232.75 154.477 233.32 155.786 233.58 157.14C234.416 161.457 236.004 165.578 236.846 169.888C237.579 173.654 237.559 177.484 237.378 181.288C237.287 183.193 237.579 185.151 236.807 187.011C236.192 188.508 235.77 190.089 235.135 191.58C234.247 193.653 234.137 195.889 233.586 198.034C232.646 201.69 231.454 205.273 229.645 208.566C228.33 210.957 228.239 213.394 228.777 215.824C229.606 219.57 229.49 223.439 230.293 227.146C231.369 232.085 231.369 237.12 232.037 242.091C232.705 247.036 232.517 252.123 231.454 257.12C231.019 259.168 230.792 261.222 229.788 263.121C229.023 264.56 227.928 265.681 226.793 266.763C225.387 268.105 223.948 269.414 222.295 270.49C219.424 272.356 216.118 272.836 212.884 273.367C209.676 273.892 206.48 274.767 203.168 274.424C202.624 274.365 202.566 274.69 202.553 275.117C202.43 278.228 202.747 281.319 202.818 284.424C202.831 284.871 202.974 285.26 203.492 285.344C204.419 285.5 204.504 286.148 204.063 286.724C202.352 288.967 201.081 291.507 198.878 293.439C196.551 295.486 194.043 297.165 191.249 298.351C188.728 299.414 186.116 300.127 183.322 300.529C179.213 301.125 175.136 300.982 171.04 301.099L171.02 301.105ZM78.9249 120.64C79.1129 123.926 78.4259 128.106 78.5944 132.299C78.6268 133.038 78.3675 133.712 77.8749 134.27C77.1555 135.093 76.5009 134.944 75.6518 134.257C74.699 133.485 73.9147 132.533 72.8064 131.911C71.5749 131.217 69.6888 131.47 69.2157 129.591C69.2027 129.539 69.0731 129.513 69.0018 129.467C65.7934 127.672 61.9434 128.554 59.7397 131.554C57.3157 134.853 55.7471 138.515 55.2286 142.572C54.5157 148.113 54.9629 153.524 57.2768 158.689C57.4583 159.098 57.8083 159.487 57.374 159.947C56.2138 161.184 56.2073 162.863 55.7277 164.354C54.9564 166.739 56.2203 169.149 58.6638 170.096C59.5518 170.439 60.4333 170.958 60.8675 171.994C61.6388 173.848 64.4194 175.559 66.4092 175.494C67.1092 175.475 67.686 175.209 68.1981 174.703C69.3583 173.563 69.8509 172.163 69.6629 170.588C69.4944 169.123 70.0907 168.488 71.4712 168.171C72.2944 167.983 73.1499 168.1 73.9342 167.756C74.5564 167.484 75.3212 166.596 75.7814 167.756C76.0601 168.456 76.8573 168.676 76.9092 169.597C77.2592 176.077 77.6027 182.565 78.1731 189.026C78.5555 193.368 78.6721 197.73 79.1647 202.059C79.8907 208.481 81.6342 214.697 83.7083 220.795C84.8944 224.275 87.1046 227.243 89.5934 229.862C91.5184 231.884 93.4564 233.886 95.2259 236.044C96.5481 237.658 98.0194 239.077 99.724 240.302C102.362 242.208 105.201 243.873 107.515 246.187C109.336 248.008 111.501 249.362 113.659 250.646C116.842 252.538 120.108 254.307 123.485 255.869C125.455 256.783 127.588 257.23 129.526 258.228C130.628 258.799 131.723 259.375 132.974 259.693C136.539 260.6 140.162 261.443 143.487 263.024C147.525 264.942 151.705 266.53 155.685 268.572C157.28 269.388 158.997 270.134 160.805 270.153C163.917 270.185 166.989 270.626 170.093 270.717C175.188 270.872 180.172 270.276 185.105 268.896C186.913 268.39 188.812 267.839 190.063 266.692C192.856 264.145 195.857 261.838 198.605 259.246C199.863 258.06 201.282 257.055 202.131 255.5C204.05 251.987 205.917 248.442 208.302 245.215C210.467 242.292 212.048 239.013 214.161 236.051C216.857 232.286 218.387 227.892 220.299 223.718C221.511 221.067 222.477 218.274 223.864 215.721C225.821 212.117 227.202 208.248 229.23 204.677C229.781 203.705 230.63 202.908 230.909 201.767C231.311 200.141 231.765 198.527 232.212 196.913C232.659 195.3 232.789 193.634 233.307 192.014C234.241 189.136 235.731 186.427 235.77 183.265C235.829 178.404 236.004 173.569 234.98 168.748C234.273 165.429 233.055 162.273 232.342 158.955C231.551 155.293 231.013 151.632 230.767 147.905C230.546 144.561 229.937 141.243 229.308 137.977C228.816 135.43 228.628 132.941 228.602 130.394C228.582 128.592 228.673 126.771 228.472 124.983C228.271 123.162 228.278 121.366 228.641 119.597C229.185 116.901 229.36 114.199 229.302 111.464C229.159 104.626 229.017 97.7891 228.53 90.9648C228.342 88.2947 227.662 85.7024 227.26 83.0647C227.189 82.6046 226.839 82.4879 226.534 82.2741C225.355 81.4575 224.311 80.4789 223.54 79.267C222.503 77.6403 221.142 76.3052 219.742 75.022C218.4 73.7907 216.896 72.7343 215.561 71.4965C213.902 69.9605 212.411 68.2366 210.719 66.746C209.767 65.91 208.606 65.3073 207.31 64.9832C204.53 64.2898 201.717 64.6462 198.917 64.549C198.119 64.5231 197.322 64.575 196.544 64.3287C193.887 63.4862 191.165 63.1297 188.371 63.1945C185.312 63.2658 182.253 63.2918 179.193 63.4019C177.897 63.4473 177.32 63.9528 177.009 64.9184C176.115 67.7052 175.188 70.466 173.853 73.0843C172.693 75.359 171.688 77.7699 169.802 79.5132C166.691 82.3778 162.912 84.0952 158.971 85.6052C154.194 87.4328 149.262 88.4049 144.271 89.2604C143.364 89.4159 142.463 89.6168 141.549 89.7205C137.381 90.1871 133.181 90.0381 129.001 90.401C121.943 91.0232 114.852 90.8482 107.78 91.425C104.592 91.6842 101.597 92.4943 98.6221 93.447C95.362 94.4969 92.1536 95.7801 89.2434 97.6206C86.949 99.0659 84.6999 100.582 83.0083 102.792C81.5953 104.633 80.5064 106.61 79.787 108.819C79.4499 109.85 78.9184 110.816 78.9249 111.937C78.9314 114.523 78.9249 117.108 78.9249 120.602V120.64ZM200.855 259.628C200.401 259.706 199.921 259.946 199.519 260.412C198.424 261.689 197.212 262.81 195.741 263.679C195.002 264.113 194.347 264.774 193.796 265.441C191.897 267.736 189.389 269.097 186.693 270.166C186.349 270.302 185.967 270.367 185.591 270.406C184.541 270.503 183.53 270.73 182.538 271.099C181.598 271.443 180.658 271.831 179.641 271.916C173.866 272.369 168.084 272.214 162.309 271.87C160.818 271.78 159.334 271.559 157.869 271.106C156.21 270.594 154.719 269.758 153.164 269.045C150.208 267.69 147.214 266.407 144.226 265.117C142.158 264.223 140.065 263.419 137.913 262.719C135.217 261.845 132.326 261.54 129.805 260.108C128.884 259.583 128.768 260.16 128.748 260.924C128.69 263.737 129.092 266.53 129.176 269.323C129.305 273.516 129.921 277.677 129.766 281.883C129.668 284.443 130.803 286.498 132.993 287.761C134.705 288.753 136.189 290.12 138.075 290.82C139.138 291.216 139.87 292.227 140.998 292.512C143.079 293.037 144.803 294.365 146.818 295.085C148.841 295.811 150.636 297.126 152.827 297.502C156.696 298.163 160.436 299.524 164.429 299.505C169.212 299.479 173.995 299.615 178.779 299.453C181.397 299.362 184.022 298.947 186.595 298.409C188.929 297.923 191.158 296.919 193.187 295.713C196.298 293.866 199.189 291.669 201.03 288.396C201.399 287.742 201.555 287.172 201.47 286.407C201.198 283.951 200.913 281.481 200.88 279.019C200.803 272.564 200.855 266.115 200.855 259.628Z" fill="#8FA386"/>
<path d="M139.987 215.319C143.681 215.338 146.87 215.319 150.053 215.5C152.95 215.668 155.556 216.809 158.206 217.807C159.872 218.436 161.525 218.358 163.256 217.943C165.997 217.282 168.499 216.012 171.137 215.118C175.207 213.737 178.967 211.611 183.031 210.322C185.442 209.551 187.911 208.553 190.575 208.76C191.009 208.792 191.431 208.818 191.832 208.403C192.532 207.671 193.044 207.93 193.381 208.941C193.919 210.568 193.569 212.201 193.381 213.789C192.908 217.736 192.455 221.702 191.631 225.578C190.964 228.727 190.53 232 188.87 234.884C188.488 235.552 187.956 236.083 187.522 236.692C186.699 237.852 186.142 239.136 185.5 240.393C183.919 243.484 181.229 245.325 178.066 246.712C174.883 248.105 171.643 248.98 168.201 248.662C165.343 248.397 162.471 248.144 159.749 246.997C158.057 246.284 156.288 245.752 154.603 245.014C152.522 244.106 150.591 242.894 148.867 241.501C147.771 240.613 146.916 239.382 145.658 238.611C145.282 238.384 144.991 237.878 145.088 237.541C145.587 235.727 143.986 235.221 143.066 234.56C140.92 233.031 139.229 231.119 137.602 229.103C136.286 227.477 135.217 225.701 134.18 223.886C133.259 222.279 132.754 220.49 131.781 218.915C131.477 218.423 131.218 218.008 130.66 217.84C130.031 217.645 129.319 217.36 129.506 216.608C129.675 215.928 130.369 215.487 131.081 215.351C131.652 215.247 132.255 215.306 132.838 215.319C135.398 215.383 137.952 215.481 140.006 215.306L139.987 215.319ZM133.7 219.22C134.601 221.346 135.599 223.342 136.727 225.292C137.744 227.062 138.853 228.222 141.225 228.125C144.057 228.008 146.896 228.235 149.748 227.956C153.76 227.561 157.792 227.846 161.817 227.781C163.158 227.762 164.487 227.684 165.816 227.438C168.441 226.952 171.079 226.491 173.73 226.18C177.631 225.727 181.326 224.586 184.923 223.083C186.764 222.318 188.41 221.08 190.458 220.814C190.899 220.756 190.99 220.328 191.042 219.939C191.106 219.44 191.21 218.941 191.223 218.442C191.249 216.621 191.904 214.852 191.748 212.836C189.214 214.314 186.848 215.701 184.476 217.075C184.042 217.321 183.594 217.567 183.121 217.716C180.931 218.397 178.701 218.967 176.53 219.706C172.9 220.937 169.186 221.799 165.375 221.974C161.609 222.149 157.831 222.02 154.058 221.987C150.189 221.955 146.345 221.436 142.606 220.607C139.708 219.959 136.889 219.058 133.719 219.22H133.7ZM132.806 216.965C133.434 217.496 134.16 217.58 134.919 217.587C135.878 217.6 136.844 217.535 137.796 217.775C142.055 218.851 146.313 220.056 150.727 220.173C158.038 220.374 165.388 221.236 172.595 219.155C177.158 217.833 181.896 217.016 185.999 214.418C187.548 213.433 189.259 212.7 190.633 211.449C190.906 211.197 191.301 210.937 191.191 210.529C191.061 210.043 190.562 210.257 190.212 210.212C188.948 210.043 187.853 210.724 186.667 210.937C185.37 211.177 184.022 211.462 182.856 212.046C181.093 212.921 179.213 213.51 177.437 214.353C176.173 214.949 174.955 215.876 173.587 216.09C171.377 216.433 169.523 217.6 167.494 218.339C163.197 219.907 159.023 220.49 154.758 218.17C153.235 217.341 151.407 217.14 149.651 217.01C144.057 216.602 138.457 216.984 132.806 216.965ZM149.262 238.889C149.048 239.31 149.294 239.492 149.418 239.68C150.623 241.462 152.606 242.259 154.376 243.141C157.383 244.638 160.514 245.85 163.904 246.465C167.501 247.12 170.975 247.418 174.553 246.368C177.58 245.48 180.237 244.048 182.551 241.955C183.16 241.404 183.588 240.639 184.068 239.959C184.236 239.719 184.359 239.356 184.106 239.148C183.789 238.889 183.562 239.252 183.406 239.453C182.674 240.38 181.747 241.119 180.827 241.812C178.053 243.905 174.631 244.288 171.396 244.897C167.034 245.72 162.944 243.841 158.835 242.713C157.254 242.279 155.763 241.423 154.259 240.691C152.678 239.92 150.928 239.479 149.269 238.896L149.262 238.889ZM182.48 238.137C175.48 240.309 168.123 240.419 161.13 241.644C168.836 244.625 176.095 243.983 182.48 238.137Z" fill="#8FA386"/>
<path d="M111.883 109.409C107.878 109.604 103.606 109.079 99.374 108.139C99.0176 108.061 98.6222 107.932 98.3565 107.692C97.2352 106.694 96.1074 105.689 95.0768 104.6C94.2926 103.764 94.5583 102.643 95.6407 101.943C96.4444 101.425 97.2676 100.913 98.2268 100.686C101.973 99.7981 105.726 99.0139 109.608 98.8843C112.661 98.7806 115.694 98.2945 118.76 98.4371C122.273 98.5991 125.786 98.7611 129.299 98.9491C130.706 99.0269 131.892 99.8629 133.233 100.187C133.596 100.278 133.946 100.401 134.329 100.427C135.839 100.511 136.014 100.705 135.774 102.157C135.683 102.701 135.683 103.213 135.761 103.764C135.936 105.002 134.983 106.454 133.804 106.596C129.481 107.128 125.332 108.534 120.99 108.981C118.067 109.28 115.15 109.461 111.883 109.403V109.409Z" fill="#8FA386"/>
<path d="M206.325 108.178C201.211 108.035 196.117 107.692 191.081 106.745C190.594 106.655 190.076 106.622 189.577 106.668C188.008 106.81 186.647 106.389 185.318 105.514C183.504 104.309 183.199 102.682 184.729 101.172C186.958 98.9684 189.706 97.7112 192.772 97.4714C198.709 96.9983 204.685 96.9335 210.609 97.5038C215.088 97.9315 219.314 99.5258 223.118 102.034C223.993 102.611 223.799 103.557 222.937 104.322C220.779 106.233 218.056 106.532 215.425 107.173C212.431 107.905 209.417 108.307 206.325 108.191V108.178Z" fill="#8FA386"/>
<path d="M169.089 160.277C167.229 160.381 165.57 160.167 163.93 159.791C163.333 159.655 162.517 159.564 162.705 158.709C162.873 157.938 163.619 158.119 164.182 158.275C166.282 158.858 168.428 158.631 170.56 158.709C171.805 158.754 172.304 158.126 172.401 156.998C172.563 155.183 172.349 153.375 171.908 151.645C171.066 148.32 170.087 145.028 169.057 141.761C167.157 135.734 166.127 129.493 164.533 123.395C164.383 122.837 164.228 122.196 164.882 121.995C165.641 121.768 165.881 122.501 166.023 123.045C166.613 125.313 167.268 127.575 167.663 129.882C168.026 131.995 168.914 133.972 169.147 136.11C169.497 139.305 170.975 142.176 171.733 145.255C172.531 148.495 173.827 151.619 174.021 155.002C174.093 156.188 174.073 157.387 173.723 158.495C173.347 159.687 172.194 160.102 171.046 160.264C170.346 160.361 169.62 160.284 169.082 160.284L169.089 160.277Z" fill="#8FA386"/>
<path d="M130.122 121.36C130.077 121.638 130.083 121.865 129.999 122.047C129.584 122.947 129.694 123.544 130.712 124.004C131.762 124.477 132.28 123.887 132.844 123.265C133.006 123.084 133.071 122.824 133.201 122.61C133.454 122.189 133.823 122.027 134.264 122.267C134.692 122.494 134.828 122.863 134.581 123.323C134.562 123.362 134.555 123.408 134.523 123.434C133.11 124.652 133.661 125.546 134.905 126.499C135.398 126.881 135.644 127.121 136.085 126.577C136.189 126.447 136.267 126.279 136.403 126.188C136.921 125.851 137.53 125.3 138.062 125.942C138.613 126.616 137.926 127.179 137.44 127.452C136.448 128.003 136.059 128.689 136.292 129.804C136.377 130.219 136.416 130.809 135.735 130.854C135.139 130.893 134.756 130.498 134.705 129.96C134.471 127.691 133.045 126.629 131.081 125.773C129.655 125.157 128.21 124.496 126.784 123.868C124.995 123.084 123.064 123.634 121.255 124.205C118.825 124.97 117.055 126.719 115.318 128.463C114.67 129.111 113.944 129.668 113.374 130.407C113.089 130.77 112.48 131.211 111.967 130.627C111.501 130.089 111.935 129.603 112.266 129.182C112.415 128.994 112.674 128.89 112.855 128.722C113.102 128.502 113.439 128.307 113.355 127.918C113.277 127.562 112.914 127.601 112.635 127.536C111.864 127.348 111.306 126.855 110.833 126.246C110.548 125.877 110.399 125.507 110.807 125.138C111.177 124.801 111.676 124.782 111.916 125.17C112.518 126.136 113.679 125.987 114.489 126.583C115.079 127.017 115.506 125.968 116.051 125.65C116.783 125.229 117.444 124.522 116.699 123.492C116.42 123.103 116.355 122.572 116.855 122.273C117.425 121.936 117.879 122.293 118.067 122.785C118.397 123.634 118.857 123.537 119.531 123.22C120.244 122.883 121.009 122.591 121.78 122.436C122.74 122.241 123.472 121.995 123.323 120.789C123.278 120.426 123.517 120.161 123.932 120.135C124.392 120.109 124.704 120.336 124.691 120.776C124.652 121.943 125.3 122.202 126.292 122.124C126.538 122.105 126.817 122.124 127.03 122.235C128.145 122.811 128.463 122.17 128.573 121.243C128.638 120.718 128.664 120.161 129.39 120.271C130.012 120.368 130.09 120.906 130.122 121.366V121.36Z" fill="#8FA386"/>
<path d="M196.674 121.619C193.965 121.625 192.189 123.369 190.523 125.209C190.089 125.682 189.823 126.246 189.169 125.76C188.533 125.287 188.812 124.749 189.279 124.269C189.57 123.971 189.791 123.595 190.095 123.317C190.595 122.863 190.789 122.435 190.322 121.813C189.972 121.347 189.862 120.731 190.432 120.362C191.016 119.979 191.379 120.504 191.619 120.932C192.046 121.684 192.507 121.528 193.032 121.1C193.589 120.64 194.555 120.543 194.859 120.083C196.305 117.899 198.515 119.778 200.226 118.916C201.12 118.463 202.371 118.767 202.721 117.354C202.819 116.966 203.292 116.551 203.817 116.726C204.381 116.907 204.381 117.38 204.18 117.866C204.16 117.905 204.147 117.944 204.134 117.983C203.985 118.495 204.16 118.903 204.698 118.832C205.651 118.702 206.435 120.264 207.427 119.098C207.77 118.689 207.984 118.165 208.257 117.698C208.483 117.309 208.769 116.972 209.261 117.251C209.728 117.516 209.825 117.918 209.605 118.43C208.678 120.53 208.743 120.459 210.532 121.735C211.407 122.358 211.97 122.403 212.664 121.625C212.936 121.321 213.299 121.087 213.643 120.848C213.928 120.647 214.265 120.537 214.557 120.828C214.861 121.133 214.92 121.509 214.634 121.846C214.336 122.189 214.032 122.571 213.649 122.792C212.67 123.336 212.839 123.868 213.558 124.47C213.714 124.6 213.857 124.768 213.967 124.943C214.22 125.332 214.531 125.76 214.006 126.149C213.487 126.538 213.046 126.324 212.716 125.857C211.705 124.419 210.24 123.505 208.872 122.468C205.664 120.044 202.125 119.856 198.379 120.763C197.698 120.932 197.62 121.975 196.687 121.632L196.674 121.619Z" fill="#8FA386"/>
<path d="M65.6704 135.138C65.4889 135.209 65.4112 135.255 65.3399 135.261C64.0501 135.365 63.7389 136.227 63.6482 137.335C63.6158 137.717 63.2593 138.028 62.8315 137.976C62.3065 137.912 62.2093 137.451 62.2223 137.017C62.2482 136.304 62.3065 135.598 62.4102 134.892C62.5917 133.647 63.4862 132.785 64.6399 132.695C65.9621 132.591 66.6102 133.077 67.0639 134.529C67.8223 136.959 67.6797 139.506 68.0491 141.988C68.1917 142.941 68.2241 143.906 68.5741 144.814C68.7297 145.209 68.7556 145.546 68.3343 145.786C67.9325 146.013 67.5825 145.838 67.3102 145.565C66.8436 145.099 66.7075 144.496 66.6491 143.848C66.4158 141.262 66.1565 138.676 65.8973 136.097C65.8714 135.812 65.7741 135.533 65.6834 135.131L65.6704 135.138Z" fill="#8FA386"/>
<path d="M197.614 175.747C197.037 175.701 196.616 175.371 196.972 174.781C197.484 173.938 197.996 173.064 198.942 172.571C201.866 171.042 204.497 169.084 207.148 167.127C208.425 166.187 209.592 165.131 210.836 164.165C211.309 163.796 211.886 163.362 212.366 163.958C212.878 164.587 212.249 164.982 211.795 165.371C208.062 168.598 204.063 171.437 199.817 173.938C199.299 174.243 198.871 174.612 198.534 175.111C198.32 175.423 198.087 175.727 197.607 175.753L197.614 175.747Z" fill="#8FA386"/>
<path d="M68.7685 170.53C68.6194 171.178 68.4315 172.156 68.1722 173.122C68.0361 173.615 67.6926 173.971 67.1676 174.159C65.6056 174.703 62.9093 173.653 62.125 172.208C61.788 171.593 61.8593 171.281 62.6111 171.243C63.888 171.178 64.6722 170.465 65.1259 169.311C65.4176 168.573 65.612 167.769 66.7528 168.054C68.5028 168.482 68.8333 168.786 68.7685 170.536V170.53Z" fill="#8FA386"/>
<path d="M109.368 162.079C110.969 162.357 112.104 163.491 113.277 164.444C115.234 166.032 117.211 167.62 118.838 169.577C119.693 170.601 120.51 171.657 121.307 172.726C121.631 173.154 121.787 173.686 121.204 174.036C120.711 174.334 120.309 174.036 120.03 173.627C117.529 169.933 114.21 167.082 110.691 164.418C110.133 163.997 109.479 163.88 108.928 163.504C108.578 163.265 108.163 163.018 108.312 162.526C108.461 162.02 108.915 162.027 109.362 162.085L109.368 162.079Z" fill="#8FA386"/>
<path d="M58.0482 160.789C59.0917 162.085 59.8046 163.511 60.9648 164.593C61.2824 164.885 61.2889 165.306 61.1398 165.76C60.7963 166.823 60.3232 167.853 60.213 168.994C60.1676 169.428 59.9148 169.545 59.5 169.383C57.925 168.76 56.2398 167.497 56.5833 165.261C56.8167 163.731 57.2121 162.26 58.0417 160.796L58.0482 160.789Z" fill="#8FA386"/>
<path d="M113.102 173.524C112.894 174.269 112.382 174.328 111.793 173.913C111.281 173.556 110.833 173.103 110.36 172.688C107.975 170.588 105.395 168.786 102.427 167.581C101.908 167.374 101.15 167.108 101.513 166.356C101.895 165.559 102.537 166.026 103.127 166.259C106.692 167.639 109.686 169.869 112.441 172.461C112.752 172.753 113.102 172.98 113.102 173.524Z" fill="#8FA386"/>
<path d="M217.039 169.597C216.922 169.759 216.786 170.024 216.585 170.212C215.133 171.567 213.675 172.908 212.204 174.237C211.53 174.846 210.985 175.585 210.194 176.09C209.747 176.376 209.391 176.544 208.989 176.136C208.594 175.727 208.827 175.345 209.151 175.047C211.361 173.044 213.429 170.88 215.788 169.046C216.067 168.832 216.345 168.657 216.695 168.871C216.922 169.007 217.065 169.201 217.039 169.59V169.597Z" fill="#8FA386"/>
<path d="M62.1184 170.316C61.4119 170.329 61.1721 169.927 61.1786 169.279C61.198 167.95 61.911 166.382 62.5138 166.356C62.9999 166.337 64.6397 167.562 64.6203 167.925C64.5425 169.123 63.2656 170.342 62.1184 170.309V170.316Z" fill="#8FA386"/>
<path d="M197.685 210.309C197.685 211.015 197.718 211.728 197.672 212.435C197.646 212.836 197.4 213.128 196.953 213.167C196.454 213.212 196.285 212.862 196.24 212.474C196.065 211.022 196.084 209.557 196.227 208.105C196.266 207.736 196.402 207.328 196.901 207.354C197.4 207.38 197.659 207.73 197.685 208.177C197.731 208.883 197.698 209.596 197.698 210.302C197.698 210.302 197.692 210.302 197.685 210.302V210.309Z" fill="#8FA386"/>
<path d="M131.593 224.495C131.626 225.085 131.425 225.266 131.127 225.377C130.718 225.526 130.355 225.441 130.129 225.079C129.39 223.912 128.593 222.784 128.048 221.508C127.925 221.222 127.854 220.944 128.132 220.704C128.418 220.458 128.787 220.38 129.059 220.62C130.304 221.734 130.595 223.452 131.6 224.482L131.593 224.495Z" fill="#8FA386"/>
</svg>
